<?xml version="1.0" standalone="no"?>
<!DOCTYPE svg PUBLIC "-//W3C//DTD SVG 1.1//EN" "http://www.w3.org/Graphics/SVG/1.1/DTD/svg11.dtd" >
<svg xmlns="http://www.w3.org/2000/svg">
<metadata></metadata>
<defs>
<font id="Museo500Regular" horiz-adv-x="1255" >
<font-face units-per-em="2048" ascent="1536" descent="-512" />
<missing-glyph horiz-adv-x="550" />
<glyph unicode="ff" horiz-adv-x="1308" d="M45 877v159h129v35q0 97 29 170.5t70.5 113t98.5 64t101.5 31t91.5 6.5q20 0 39 -1.5t28 -2.5l9 -2v-170q-20 4 -51 4q-28 0 -53 -4t-56.5 -18t-54 -36.5t-38 -64t-15.5 -96.5v-29h446v35q0 97 29 170.5t70.5 113t98.5 64t101.5 31t91.5 6.5q20 0 39 -1.5t28 -2.5l9 -2 v-170q-22 4 -51 4q-28 0 -53 -4t-56.5 -18t-54 -36.5t-38 -64t-15.5 -96.5v-29h244v-159h-244v-877h-199v877h-446v-877h-199v877h-129z" />
<glyph unicode="fi" horiz-adv-x="1208" d="M45 877v159h129v35q0 97 29 170.5t70.5 113t98.5 64t101.5 31t91.5 6.5q20 0 39 -1.5t28 -2.5l9 -2v-170q-22 4 -55 4q-27 0 -52.5 -4t-56 -18t-52.5 -36.5t-37 -64t-15 -96.5v-29h522q69 0 100 -31t31 -100v-690q0 -45 45 -45h84v-170h-194q-71 0 -102.5 31t-31.5 100 v700q0 46 -45 46h-409v-877h-199v877h-129zM831 1239v207h181v-207h-181z" />
<glyph unicode="fl" horiz-adv-x="1193" d="M45 877v159h129v35q0 97 29 169.5t70 110.5t99 61t101.5 28.5t91.5 5.5h318q69 0 100 -31t31 -100v-1100q0 -45 45 -45h84v-170h-197q-69 0 -100 31t-31 100v1100q0 45 -45 45h-180q-217 0 -217 -209v-31h245v-159h-245v-877h-199v877h-129z" />
<glyph unicode="ffi" horiz-adv-x="1851" d="M45 877v159h129v35q0 97 29 170.5t70.5 113t98.5 64t101.5 31t91.5 6.5q20 0 39 -1.5t28 -2.5l9 -2v-170q-22 4 -55 4q-27 0 -52 -4t-55.5 -18t-52.5 -36.5t-37.5 -64t-15.5 -96.5v-29h446v35q0 97 29 170.5t70.5 113t98.5 64t101.5 31t91.5 6.5q20 0 39 -1.5t28 -2.5 l9 -2v-170q-22 4 -55 4q-27 0 -52.5 -4t-56 -18t-52.5 -36.5t-37 -64t-15 -96.5v-29h522q69 0 100 -31t31 -100v-690q0 -45 45 -45h84v-170h-196q-69 0 -100 31t-31 100v700q0 46 -46 46h-409v-877h-199v877h-446v-877h-199v877h-129zM1477 1239v207h178v-207h-178z" />
<glyph unicode="ffl" horiz-adv-x="1837" d="M45 877v159h129v39q0 96 28 168.5t69 112t97 63.5t100.5 30.5t92.5 6.5q21 0 41 -1.5t30 -2.5l9 -2v-170q-24 4 -55 4q-27 0 -52.5 -4.5t-56 -18.5t-52.5 -36.5t-37 -63t-15 -94.5v-31h444v35q0 97 29 169.5t70 110.5t99 61t101.5 28.5t91.5 5.5h318q69 0 100 -31 t31 -100v-1100q0 -45 45 -45h84v-170h-197q-69 0 -100 31t-31 100v1100q0 45 -45 45h-180q-217 0 -217 -209v-31h246v-159h-246v-877h-199v877h-444v-877h-199v877h-129z" />
<glyph unicode="fj" horiz-adv-x="1241" d="M45 877v159h129v35q0 97 29 170.5t70.5 113t98.5 64t101.5 31t91.5 6.5q20 0 39 -1.5t28 -2.5l9 -2v-170q-22 4 -55 4q-27 0 -52 -4t-55.5 -18t-52.5 -36.5t-37.5 -64t-15.5 -96.5v-29h565q69 0 100 -31t31 -100v-940q0 -71 -15.5 -130t-40.5 -98.5t-60 -69t-70 -46 t-76 -27t-72 -13.5t-63 -3l-70 4v170q18 -2 45 -2q28 0 53.5 4t58 18t56 37t39.5 66.5t16 101.5v854q0 46 -45 46h-452v-877h-199v877h-129zM877 1239v207h178v-207h-178z" />
<glyph unicode=" "  horiz-adv-x="550" />
<glyph unicode="&#x09;" horiz-adv-x="550" />
<glyph unicode="&#xa0;" horiz-adv-x="550" />
<glyph unicode="!" horiz-adv-x="643" d="M219 1446h205l-12 -1049h-179zM221 0v199h203v-199h-203z" />
<glyph unicode="&#x22;" horiz-adv-x="696" d="M127 1085v385h156v-385h-156zM414 1085v385h155v-385h-155z" />
<glyph unicode="#" horiz-adv-x="1445" d="M76 391l24 152h269l59 344h-264l24 149h267l71 410h166l-71 -410h317l72 410h166l-72 -410h268l-26 -149h-267l-61 -344h266l-27 -152h-264l-69 -391h-166l67 391h-317l-68 -391h-166l68 391h-266zM535 543h317l61 344h-317z" />
<glyph unicode="$" horiz-adv-x="1118" d="M86 256l145 121q5 -9 14.5 -23.5t42.5 -51.5t70.5 -65.5t98 -51.5t125.5 -23q110 0 178.5 60.5t68.5 154.5q0 49 -24 89.5t-64.5 70.5t-92.5 57.5t-110 54t-116 55.5t-110 66t-92.5 81.5t-64.5 107t-24 137.5q0 142 104.5 243.5t272.5 124.5v193h149v-191 q59 -7 114.5 -24t108 -47t84 -79.5t31.5 -111.5v-119h-188v68q0 56 -62.5 93.5t-150.5 37.5q-115 0 -184.5 -53t-69.5 -133q0 -61 38.5 -109t100 -81t135.5 -64.5t148 -70.5t135.5 -87.5t100 -126t38.5 -176.5q0 -151 -104 -265.5t-275 -135.5v-191h-149v189 q-82 10 -155.5 42t-120 70.5t-81.5 76t-50 62.5z" />
<glyph unicode="%" horiz-adv-x="1603" d="M121 1167q0 125 90 214t219 89t220 -89t91 -214q0 -126 -91 -214.5t-220 -88.5t-219 88.5t-90 214.5zM152 0l1105 1446h193l-1106 -1446h-192zM279 1167q0 -65 43.5 -108t107.5 -43q65 0 108.5 43.5t43.5 107.5t-44 109t-108 45t-107.5 -45t-43.5 -109zM862 279 q0 125 91 214t221 89q128 0 219.5 -89.5t91.5 -213.5q0 -126 -91.5 -215t-219.5 -89q-130 0 -221 89t-91 215zM1022 279q0 -65 44 -108.5t108 -43.5q63 0 107 44t44 108q0 63 -44 108t-107 45q-64 0 -108 -45t-44 -108z" />
<glyph unicode="&#x26;" horiz-adv-x="1306" d="M90 414q0 119 67 222.5t183 137.5v4q-8 3 -20.5 9t-44.5 31.5t-56.5 58t-44.5 91.5t-20 130q0 167 119.5 269.5t314.5 102.5q42 0 87.5 -5.5t70.5 -10.5l24 -6l-51 -162q-60 14 -109 14q-112 0 -182 -63t-70 -160q0 -30 6 -58.5t24 -60t46.5 -54.5t77.5 -38.5t113 -15.5 h260v186h198v-186h183v-176h-183v-193q0 -240 -131 -373t-360 -133q-219 0 -360.5 125.5t-141.5 313.5zM297 416q0 -107 80.5 -180.5t214.5 -73.5q138 0 215.5 81t77.5 246v185h-258q-158 0 -244 -68t-86 -190z" />
<glyph unicode="'" horiz-adv-x="411" d="M127 1085v385h158v-385h-158z" />
<glyph unicode="(" horiz-adv-x="675" d="M170 674q0 476 231 831h174q-225 -376 -225 -817q0 -472 236 -883h-176q-115 180 -177.5 406t-62.5 463z" />
<glyph unicode=")" horiz-adv-x="675" d="M90 -195q236 411 236 883q0 439 -226 817h174q232 -357 232 -831q0 -237 -62.5 -463t-177.5 -406h-176z" />
<glyph unicode="*" horiz-adv-x="983" d="M86 1085l53 172l273 -102l-15 291h187l-17 -291l275 102l55 -172l-281 -75v-4l181 -226l-146 -106l-157 241h-5l-159 -241l-148 106l183 226v4z" />
<glyph unicode="+" d="M86 504v160h459v503h168v-503h456v-160h-456v-504h-168v504h-459z" />
<glyph unicode="," horiz-adv-x="491" d="M45 -207l127 422h201l-174 -422h-154z" />
<glyph unicode="-" horiz-adv-x="882" d="M143 496v176h598v-176h-598z" />
<glyph unicode="." horiz-adv-x="491" d="M143 0v211h203v-211h-203z" />
<glyph unicode="/" horiz-adv-x="708" d="M2 -86l520 1610h176l-520 -1610h-176z" />
<glyph unicode="0" horiz-adv-x="1243" d="M111 725q0 129 16 237.5t53 204t95 161.5t146.5 104t201.5 38t201 -38t145.5 -104t94.5 -161.5t53 -204t16 -237.5q0 -130 -16 -239t-53 -205t-94.5 -162.5t-145.5 -105t-201 -38.5t-201.5 38.5t-146.5 105t-95 162.5t-53 205t-16 239zM317 725q0 -125 15 -222 t48.5 -176.5t95 -122t147.5 -42.5t146.5 42.5t94 122t48 176.5t14.5 222q0 98 -8.5 178.5t-30 153t-55.5 121.5t-87 77.5t-122 28.5q-86 0 -147.5 -42t-95 -121t-48.5 -175.5t-15 -220.5z" />
<glyph unicode="1" horiz-adv-x="1032" d="M121 1110l346 336h186v-1270h316v-176h-838v176h318v934l2 90h-5q-16 -33 -67 -84l-135 -133z" />
<glyph unicode="2" horiz-adv-x="1173" d="M78 166q0 85 25 157.5t67.5 124.5t98 97t116.5 81.5t121.5 70.5t116 70.5t98 76.5t67.5 93.5t25 115.5q0 101 -69 165t-185 64q-95 0 -159 -41t-64 -96v-64h-189v123q0 67 41.5 120.5t106.5 84t135 46t137 15.5q199 0 327 -115t128 -300q0 -101 -40.5 -185t-105 -141.5 t-142.5 -107t-156.5 -93t-143 -87.5t-105 -101.5t-40.5 -124.5q0 -21 12 -30t39 -9h514q45 0 45 45v92h188v-182q0 -69 -31 -100t-100 -31h-741q-82 0 -109.5 37t-27.5 129z" />
<glyph unicode="3" horiz-adv-x="1107" d="M53 178l111 154q6 -7 17 -18t47.5 -39t76.5 -50t101.5 -39.5t123.5 -17.5q119 0 203 74.5t84 189.5q0 118 -90 188t-221 70h-103l-43 109l302 379q19 27 40 50.5t32 33.5l11 10v4q-42 -6 -122 -6h-279q-45 0 -45 -45v-92h-188v182q0 70 28.5 100.5t96.5 30.5h761v-129 l-381 -459q59 -6 115 -24.5t110.5 -53.5t94.5 -82t65 -115t25 -149q0 -91 -35.5 -174t-99 -146.5t-157.5 -101t-204 -37.5q-84 0 -164.5 21t-134.5 50.5t-96 59.5t-62 51z" />
<glyph unicode="4" horiz-adv-x="1177" d="M35 383v131l651 932h234v-887h225v-176h-225v-383h-205v383h-680zM256 553q60 6 123 6h338v498q0 29 2 66t4 59l2 22h-4q-37 -70 -74 -121l-315 -434q-16 -23 -35 -46t-30 -35l-11 -11v-4z" />
<glyph unicode="5" horiz-adv-x="1191" d="M104 178l111 150q5 -7 14 -17.5t41 -38t68.5 -48.5t94.5 -38.5t120 -17.5q135 0 223 83t88 206q0 132 -99.5 213.5t-244.5 81.5q-71 0 -139.5 -18.5t-101.5 -37.5l-33 -18l-84 39l57 598q6 71 35 101t96 30h504q69 0 100 -31t31 -100v-182h-186v92q0 45 -45 45h-303 q-21 0 -31.5 -10.5t-13.5 -34.5l-29 -264l-10 -76h4q9 5 24.5 12t64.5 19t97 12q229 0 372.5 -136.5t143.5 -338.5q0 -95 -37.5 -182t-104 -152.5t-165 -104.5t-213.5 -39q-61 0 -119 11t-101.5 29t-81.5 39.5t-64.5 43.5t-45.5 40t-28 29z" />
<glyph unicode="6" horiz-adv-x="1161" d="M78 641q0 116 24 231t76.5 223.5t127 191.5t184 133t239.5 50q76 0 146.5 -15t102.5 -29l32 -15l-66 -174q-10 5 -28.5 13t-73 21t-105.5 13q-95 0 -174 -42t-131 -113.5t-84.5 -158t-44.5 -182.5h4q43 65 133 103.5t187 38.5q202 0 329 -135t127 -336 q0 -213 -131 -348.5t-334 -135.5q-153 0 -275.5 81.5t-193.5 234.5t-71 350zM293 555q0 -93 41.5 -183t117.5 -150t164 -60q123 0 195 84t72 213q0 133 -80 216t-217 83q-120 0 -206.5 -62t-86.5 -141z" />
<glyph unicode="7" horiz-adv-x="1075" d="M53 1133v182q0 70 28.5 100.5t96.5 30.5h879v-139l-701 -1307h-227l614 1139q20 36 41 69.5t32 48.5l11 15v4q-32 -6 -104 -6h-436q-45 0 -45 -45v-92h-189z" />
<glyph unicode="8" horiz-adv-x="1179" d="M86 414q0 67 24.5 129.5t59.5 104t70 74t60 47.5l24 15v4q-7 4 -19 11.5t-43 34.5t-54.5 58.5t-43 83t-19.5 107.5q0 76 30 145.5t85.5 123.5t142.5 86t193 32q204 0 328.5 -110t124.5 -281q0 -60 -18 -117t-43.5 -96.5t-51.5 -70t-44 -45.5l-18 -15v-4 q105 -61 160.5 -140.5t55.5 -191.5q0 -173 -142 -298.5t-358 -125.5q-137 0 -251 53t-183.5 154.5t-69.5 231.5zM293 424q0 -118 87 -190t210 -72q117 0 205 70t88 174q0 37 -13 68.5t-33 54t-54.5 44.5t-65.5 36.5t-78 33.5q-127 53 -150 53q-20 0 -52.5 -21.5t-64.5 -56 t-55.5 -87.5t-23.5 -107zM346 1079q0 -46 17.5 -81t55 -62t72 -44t93.5 -40q85 -35 112 -35q42 0 98 80.5t56 169.5q0 98 -71 157.5t-183 59.5q-115 0 -182.5 -58t-67.5 -147z" />
<glyph unicode="9" horiz-adv-x="1161" d="M78 987q0 213 131 348t334 135q153 0 275.5 -81.5t193.5 -234t71 -349.5q0 -96 -17.5 -192.5t-51.5 -190t-88.5 -174t-124.5 -142t-165 -96.5t-204 -35q-76 0 -146 15t-102 30l-32 15l65 176q10 -5 28.5 -13.5t73 -22t105.5 -13.5q95 0 174 42t131 114t84.5 158.5 t44.5 182.5h-4q-43 -66 -132 -103.5t-187 -37.5q-203 0 -330 134t-127 335zM279 987q0 -132 79.5 -215.5t216.5 -83.5q120 0 206.5 62t86.5 141q0 94 -41.5 184t-117.5 149.5t-164 59.5q-123 0 -194.5 -83.5t-71.5 -213.5z" />
<glyph unicode=":" horiz-adv-x="602" d="M201 0v211h202v-211h-202zM201 825v211h202v-211h-202z" />
<glyph unicode=";" horiz-adv-x="602" d="M92 -207l105 422h198l-149 -422h-154zM201 825v211h202v-211h-202z" />
<glyph unicode="&#x3c;" d="M137 516v135l955 426v-182l-734 -309v-4l734 -310v-182z" />
<glyph unicode="=" d="M139 309v160h977v-160h-977zM139 696v160h977v-160h-977z" />
<glyph unicode="&#x3e;" d="M152 90v182l731 310v4l-731 309v182l954 -426v-135z" />
<glyph unicode="?" horiz-adv-x="927" d="M76 1343q6 5 16 14t45.5 32t74 40t99.5 31.5t123 14.5q178 0 303 -104.5t125 -270.5q0 -69 -20 -127.5t-52 -100.5t-70.5 -79.5t-77 -71.5t-70.5 -68.5t-52 -78t-20 -93.5v-84h-195v97q0 63 19 118t50 94.5t68 76t74 69.5t68 66.5t50 76t19 90.5q0 87 -66 145t-167 58 q-57 0 -115.5 -21.5t-88.5 -42.5l-30 -22zM301 0v199h203v-199h-203z" />
<glyph unicode="@" horiz-adv-x="1560" d="M82 494q0 156 58.5 296t158 241t238 160.5t292.5 59.5q115 0 206.5 -22.5t152 -61t100.5 -92t57 -113t17 -126.5v-580h147v-150h-559q-187 0 -305.5 114t-118.5 274q0 102 51.5 189t149.5 140.5t223 53.5h221q-3 91 -90.5 150.5t-240.5 59.5q-155 0 -284 -81.5 t-202 -217.5t-73 -294q0 -121 42.5 -228.5t117 -187t184 -126t237.5 -46.5v-162q-169 0 -315 58.5t-247.5 159.5t-159.5 239t-58 293zM727 496q0 -101 67.5 -170.5t170.5 -69.5h206v483h-202q-105 0 -173.5 -70.5t-68.5 -172.5z" />
<glyph unicode="A" horiz-adv-x="1361" d="M25 0v176h28q29 0 44 9t24 36l452 1225h215l453 -1225q9 -26 24.5 -35.5t43.5 -9.5h30v-176h-114q-76 0 -109.5 24t-58.5 95l-109 297h-532l-109 -297q-26 -71 -60 -95t-110 -24h-112zM465 588h432l-158 440q-12 34 -26.5 84.5t-22.5 84.5l-8 34h-4q-28 -127 -55 -203z " />
<glyph unicode="B" horiz-adv-x="1263" d="M76 1270v176h618q187 0 303.5 -99t116.5 -270q0 -112 -51 -192.5t-129 -118.5v-4q112 -33 174.5 -129t62.5 -221q0 -196 -131.5 -304t-332.5 -108h-367q-69 0 -100 31t-31 100v1139h-133zM414 221q0 -45 45 -45h258q114 0 179 67t65 179q0 111 -67 179.5t-177 68.5h-303 v-449zM414 838h282q94 0 151.5 61.5t57.5 157.5q0 97 -56.5 155t-156.5 58h-278v-432z" />
<glyph unicode="C" horiz-adv-x="1435" d="M70 735q0 154 55.5 290.5t151.5 234t230.5 154t287.5 56.5q62 0 131.5 -10t143.5 -34t132.5 -58.5t96.5 -89.5t38 -121v-141h-188v82q0 57 -58.5 100t-136.5 62.5t-155 19.5q-221 0 -368.5 -152t-147.5 -393q0 -155 68.5 -285.5t188.5 -206t265 -75.5q59 0 115.5 11 t100.5 28t84 38t68 42.5t48.5 38.5t30.5 28l10 11l110 -148q-8 -10 -24 -26t-71 -58t-116 -74t-158.5 -58t-199.5 -26q-159 0 -296.5 59t-232.5 161t-149.5 242t-54.5 298z" />
<glyph unicode="D" horiz-adv-x="1464" d="M78 1270v176h586q334 0 532.5 -191t198.5 -530q0 -340 -198.5 -532.5t-532.5 -192.5h-322q-69 0 -100 31t-31 100v1139h-133zM416 221q0 -45 45 -45h188q246 0 389.5 143t143.5 406q0 261 -144.5 403t-388.5 142h-233v-1049z" />
<glyph unicode="E" horiz-adv-x="1163" d="M78 1270v176h850q69 0 100 -31t31 -100v-182h-187v92q0 45 -45 45h-411v-453h506v-176h-506v-420q0 -45 45 -45h422q45 0 45 45v92h188v-182q0 -69 -31 -100t-100 -31h-643q-69 0 -100 31t-31 100v1139h-133z" />
<glyph unicode="F" horiz-adv-x="1050" d="M78 1270v176h796q69 0 100.5 -31t31.5 -100v-182h-187v92q0 45 -45 45h-358v-475h493v-177h-493v-618h-205v1270h-133z" />
<glyph unicode="G" horiz-adv-x="1507" d="M72 729q0 154 56 291t152.5 236t232 156.5t288.5 57.5q97 0 185.5 -18.5t146 -44.5t101.5 -52t64 -45l19 -18l-117 -149q-6 6 -18 15t-51.5 33t-82.5 42.5t-109.5 33.5t-133.5 15q-143 0 -262 -70.5t-188.5 -197.5t-69.5 -285q0 -248 150.5 -404.5t373.5 -156.5 q72 0 141 18.5t116 45t83.5 53t54.5 45.5l17 18v146q0 45 -45 45h-89v176h191q69 0 100 -31t31 -100v-584h-180v90l2 62h-4q-7 -7 -19.5 -19t-56 -42.5t-92 -54t-125.5 -42.5t-158 -19q-143 0 -272 55t-224.5 152t-151.5 239.5t-56 307.5z" />
<glyph unicode="H" horiz-adv-x="1566" d="M78 1270v176h207q69 0 100 -31t31 -100v-506h735v506q0 69 31 100t100 31h207v-176h-88q-45 0 -45 -45v-1225h-205v635h-735v-635h-205v1225q0 45 -45 45h-88z" />
<glyph unicode="I" horiz-adv-x="649" d="M86 0v176h141v1094h-141v176h477v-176h-141v-1094h141v-176h-477z" />
<glyph unicode="J" horiz-adv-x="1069" d="M45 416v71h205v-55q0 -72 19 -125.5t52.5 -82.5t72 -42.5t83.5 -13.5q96 0 160.5 62.5t64.5 193.5v801q0 45 -45 45h-354v176h473q69 0 100 -31t31 -100v-899q0 -91 -24.5 -166t-66 -125t-97.5 -84.5t-117 -50t-127 -15.5q-83 0 -157.5 26t-136.5 77t-99 138.5t-37 199.5 z" />
<glyph unicode="K" horiz-adv-x="1251" d="M78 1270v176h207q69 0 100 -31t31 -100v-477h137q44 0 73 10t46 39l321 559h230l-351 -600q-18 -32 -38.5 -55.5t-31.5 -30.5l-11 -8v-4q4 -1 12 -5t29.5 -27t39.5 -59l218 -434q14 -30 37 -38.5t65 -8.5h39v-176h-113q-87 0 -126.5 20t-73.5 89l-250 501 q-17 33 -47.5 43.5t-81.5 10.5h-123v-664h-205v1225q0 45 -45 45h-88z" />
<glyph unicode="L" horiz-adv-x="1112" d="M78 1270v176h207q69 0 100 -31t31 -100v-1094q0 -45 45 -45h399q45 0 45 45v92h187v-182q0 -69 -31 -100t-100 -31h-619q-69 0 -100 31t-31 100v1094q0 45 -45 45h-88z" />
<glyph unicode="M" horiz-adv-x="1755" d="M41 0v176h70q42 0 45 45l98 1225h211l340 -766q16 -35 34 -80.5t28 -73.5l10 -28h4q36 104 71 182l340 766h211l99 -1225q3 -45 45 -45h67v-176h-182q-68 0 -97 30.5t-34 100.5l-60 764q-3 38 -4 91.5t-1 87.5l1 34h-4q-41 -135 -76 -213l-292 -635h-172l-293 635 q-16 34 -35.5 87.5t-30.5 90.5l-12 37h-4v-62q0 -89 -4 -153l-58 -764q-5 -70 -34.5 -100.5t-98.5 -30.5h-182z" />
<glyph unicode="N" horiz-adv-x="1566" d="M78 0v176h88q45 0 45 45v1225h186l643 -916q24 -35 54 -84t48 -80l19 -32h4q-14 114 -14 196v785q0 69 31.5 100t101.5 31h205v-176h-88q-45 0 -45 -45v-1225h-185l-645 915q-24 35 -53.5 84t-46.5 81l-18 32h-5q13 -117 13 -197v-784q0 -69 -31 -100t-100 -31h-207z" />
<glyph unicode="O" horiz-adv-x="1624" d="M70 733q0 205 97.5 374t267.5 266t376 97t376.5 -97t268.5 -266t98 -374q0 -210 -98 -384t-268.5 -274t-376.5 -100t-376 100t-267.5 274t-97.5 384zM283 733q0 -157 70.5 -287t191.5 -204t266 -74t266.5 74t192.5 204t71 287q0 114 -42 215.5t-113 174t-169 115 t-206 42.5t-205.5 -42.5t-168.5 -115t-112.5 -174t-41.5 -215.5z" />
<glyph unicode="P" horiz-adv-x="1212" d="M78 1270v176h637q200 0 326 -124.5t126 -328.5t-126.5 -331t-325.5 -127h-299v-535h-205v1270h-133zM416 711h266q127 0 200.5 75.5t73.5 206.5q0 130 -72.5 203.5t-199.5 73.5h-268v-559z" />
<glyph unicode="Q" horiz-adv-x="1624" d="M70 731q0 206 97 375.5t266.5 266.5t375.5 97q156 0 294 -57t237 -155t156.5 -235.5t57.5 -291.5q0 -132 -45 -254.5t-125 -220.5l166 -162l-123 -131l-165 166q-192 -154 -453 -154q-205 0 -375 100.5t-267 274t-97 381.5zM283 731q0 -156 69.5 -285.5t190.5 -203.5 t266 -74q53 0 104 10.5t86 25t62 29t40 25.5l13 10l-160 156l123 133l158 -162q106 145 106 336q0 154 -70.5 279.5t-192 196.5t-269.5 71q-146 0 -266.5 -71t-190 -196.5t-69.5 -279.5z" />
<glyph unicode="R" horiz-adv-x="1265" d="M78 1270v176h631q193 0 312.5 -114.5t119.5 -309.5q0 -69 -17.5 -130t-44.5 -103t-62.5 -74.5t-69.5 -50.5t-66 -25v-4q36 -19 61 -66l174 -346q14 -30 37 -38.5t66 -8.5h26v-176h-100q-88 0 -127.5 20.5t-73.5 88.5l-196 389q-27 49 -54.5 63t-89.5 14h-188v-575h-205 v1270h-133zM416 752h266q117 0 182.5 70t65.5 192q0 121 -65 188.5t-179 67.5h-270v-518z" />
<glyph unicode="S" horiz-adv-x="1091" d="M70 190l120 146q6 -7 17.5 -19t48.5 -42t76.5 -52.5t100 -41.5t120.5 -19q105 0 176.5 59t71.5 156q0 54 -30 99t-79 75.5t-112 63t-128.5 60t-128.5 67t-112 83.5t-79 110.5t-30 147.5q0 165 130.5 276t332.5 111q63 0 130.5 -14.5t132.5 -44t107 -83.5t42 -124v-119 h-189v68q0 56 -67 93.5t-156 37.5q-115 0 -184.5 -55t-69.5 -139q0 -47 24 -85.5t64 -67t92.5 -54t110.5 -51t115.5 -53t110 -64.5t92.5 -81t64 -107.5t24 -139.5q0 -172 -125.5 -292t-333.5 -120q-86 0 -167 22t-135 53.5t-96 63.5t-61 54z" />
<glyph unicode="T" horiz-adv-x="1302" d="M31 1133v190q0 69 27 96t96 27h995q69 0 96 -27t27 -96v-190h-182v92q0 45 -46 45h-290v-1270h-205v1270h-291q-45 0 -45 -45v-92h-182z" />
<glyph unicode="U" horiz-adv-x="1490" d="M61 1270v176h207q69 0 100 -31t31 -100v-801q0 -161 94 -253.5t252 -92.5t252.5 92.5t94.5 255.5v799q0 69 32 100t101 31h205v-176h-89q-45 0 -45 -45v-719q0 -237 -150.5 -384t-397.5 -147q-248 0 -400.5 147t-152.5 384v719q0 45 -45 45h-89z" />
<glyph unicode="V" horiz-adv-x="1368" d="M25 1270v176h114q77 0 111 -23.5t59 -95.5l318 -891q12 -35 25.5 -84.5t21.5 -81.5l8 -32h4q26 120 55 198l318 891q26 72 59.5 95.5t110.5 23.5h114v-176h-28q-29 0 -44 -9t-24 -36l-454 -1225h-218l-454 1225q-9 26 -24.5 35.5t-43.5 9.5h-28z" />
<glyph unicode="W" horiz-adv-x="1982" d="M35 1270v176h117q81 0 120.5 -24.5t57.5 -94.5l223 -930l29 -153h4q12 73 35 153l290 1045h185l270 -1045q9 -36 16.5 -74t11.5 -59l3 -20h4q8 75 26 153l228 930q18 71 57 95t119 24h117v-176h-31q-30 0 -46.5 -9.5t-23.5 -35.5l-317 -1225h-238l-245 913 q-11 42 -21.5 91.5t-15.5 78.5l-4 29h-5q-20 -105 -47 -197l-262 -915h-239l-318 1225q-7 26 -23 35.5t-46 9.5h-31z" />
<glyph unicode="X" horiz-adv-x="1210" d="M20 0l455 745l-291 474q-20 33 -39.5 42t-54.5 9h-53v176h121q75 0 114 -21.5t78 -89.5l162 -274l92 -170h4q41 90 88 170l164 274q39 68 78.5 89.5t116.5 21.5h119v-176h-52q-36 0 -56 -9t-40 -42l-293 -474l457 -745h-232l-262 440l-92 164h-4q-41 -86 -88 -166 l-260 -438h-232z" />
<glyph unicode="Y" horiz-adv-x="1234" d="M20 1270v176h95q76 0 114.5 -20.5t79.5 -90.5l219 -364q21 -36 43 -76.5t33 -62.5l12 -23h5q39 82 88 162l217 364q41 69 80 90t114 21h94v-176h-38q-34 0 -52.5 -10t-38.5 -41l-364 -588v-631h-205v631l-366 588q-20 31 -38 41t-51 10h-41z" />
<glyph unicode="Z" horiz-adv-x="1191" d="M37 0v135l713 1004q25 36 52 69t42 48l14 16v4q-38 -6 -108 -6h-465q-45 0 -45 -45v-92h-187v182q0 69 31 100t100 31h928v-133l-715 -1006q-24 -36 -50.5 -68.5t-40.5 -47.5l-15 -15v-4q38 4 106 4h510q45 0 45 45v92h189v-182q0 -69 -31 -100t-100 -31h-973z" />
<glyph unicode="[" horiz-adv-x="669" d="M199 -63v1437q0 69 31 100t100 31h207v-149h-119q-45 0 -45 -45v-1309q0 -45 45 -45h119v-152h-207q-69 0 -100 31.5t-31 100.5z" />
<glyph unicode="\" horiz-adv-x="696" d="M10 1524h176l521 -1610h-177z" />
<glyph unicode="]" horiz-adv-x="669" d="M133 -43h119q45 0 45 45v1309q0 45 -45 45h-119v149h207q70 0 101.5 -31t31.5 -100v-1437q0 -69 -31.5 -100.5t-101.5 -31.5h-207v152z" />
<glyph unicode="^" d="M141 506l410 940h129l407 -940h-178l-295 721l-292 -721h-181z" />
<glyph unicode="_" horiz-adv-x="1122" d="M10 0h1102v-160h-1102v160z" />
<glyph unicode="`" horiz-adv-x="776" d="M170 1806h201l149 -260h-155z" />
<glyph unicode="a" horiz-adv-x="1114" d="M76 291q0 69 26 124.5t66.5 92t99 63t113 40.5t120.5 22t109 10t90 2h45v10q0 135 -53 191.5t-176 56.5q-23 0 -48 -3t-54.5 -11t-48.5 -25t-19 -41v-59h-186v102q0 59 40 101t103 60.5t115 26t100 7.5q122 0 207.5 -30.5t132 -87.5t66.5 -127t20 -161v-440q0 -45 45 -45 h84v-170h-186q-129 0 -129 119l4 61h-4q-3 -8 -10 -22t-34.5 -49.5t-62 -62.5t-94.5 -49t-129 -22q-143 0 -247.5 84.5t-104.5 231.5zM276 301q0 -68 51 -117t144 -49q80 0 145 51t98.5 125.5t33.5 153.5v35h-52q-40 0 -71 -1t-77 -5.5t-80.5 -12t-72.5 -22.5t-62.5 -35.5 t-40.5 -52t-16 -70.5z" />
<glyph unicode="b" horiz-adv-x="1228" d="M37 1276v170h196q69 0 100.5 -31t31.5 -100v-338l-5 -86h5q4 7 11.5 18.5t36 40.5t63 51.5t94.5 41t128 18.5q208 0 331.5 -150t123.5 -393q0 -245 -132 -394t-339 -149q-65 0 -122 18t-93 43.5t-62.5 51.5t-37.5 44l-11 18h-4q4 -33 4 -78v-72h-190v1231q0 45 -45 45 h-84zM360 514q0 -96 31 -177.5t99.5 -136.5t162.5 -55q128 0 213.5 100t85.5 271q0 168 -82 269.5t-213 101.5q-126 0 -211.5 -93.5t-85.5 -279.5z" />
<glyph unicode="c" horiz-adv-x="1091" d="M74 518q0 152 69 275.5t197 195.5t291 72q53 0 112 -11.5t120.5 -35.5t101 -71t39.5 -109v-107h-181v57q0 35 -33 60.5t-75.5 36t-83.5 10.5q-153 0 -254 -104t-101 -267q0 -170 106.5 -269t258.5 -99q55 0 108 14.5t90 35.5t66 42.5t43 35.5l15 15l86 -141 q-6 -7 -17.5 -19t-52 -43t-85.5 -54.5t-117.5 -43t-149.5 -19.5q-243 0 -398 154t-155 389z" />
<glyph unicode="d" horiz-adv-x="1239" d="M76 518q0 245 131 394t338 149q67 0 124.5 -16.5t92 -40t59 -47t33.5 -39.5l10 -17h4q-4 31 -4 70v260q0 45 -45 45h-84v170h197q69 0 100 -31t31 -100v-1100q0 -45 45 -45h84v-170h-191q-127 0 -127 111l3 53h-5q-4 -8 -11 -20.5t-35.5 -45t-64 -57.5t-97 -45.5 t-132.5 -20.5q-209 0 -332.5 149.5t-123.5 393.5zM279 518q0 -168 81 -269.5t211 -101.5q60 0 112 21.5t95 65t67.5 117.5t24.5 169q0 96 -31 177.5t-100 136.5t-164 55q-126 0 -211 -100t-85 -271z" />
<glyph unicode="e" horiz-adv-x="1130" d="M74 518q0 121 40 223.5t109.5 172t165 108.5t205.5 39q210 0 328 -138t118 -348l-6 -81h-755q9 -160 110.5 -253.5t245.5 -93.5q50 0 99.5 12.5t84.5 30.5t63 35.5t42 30.5l14 12l86 -141q-6 -6 -18 -16.5t-51.5 -36.5t-83 -46t-110.5 -36.5t-136 -16.5q-243 0 -397 155 t-154 388zM287 639h549q-4 124 -73.5 194t-170.5 70q-117 0 -199.5 -69t-105.5 -195z" />
<glyph unicode="f" horiz-adv-x="665" d="M45 877v159h129v35q0 97 29 170.5t70.5 113t98.5 64t101.5 31t91.5 6.5q20 0 39 -1.5t28 -2.5l9 -2v-170q-20 4 -51 4q-36 0 -68 -7.5t-68.5 -28t-58.5 -67t-22 -114.5v-31h245v-159h-245v-877h-199v877h-129z" />
<glyph unicode="g" horiz-adv-x="1218" d="M76 543q0 150 52.5 266t156.5 184t245 68q72 0 133 -16.5t96 -40.5t60 -48t34 -40l9 -17h4v33q0 104 115 104h193v-170h-82q-45 0 -45 -41v-782q0 -99 -29.5 -180t-79 -134.5t-117.5 -90t-142 -52.5t-155 -16q-182 0 -354 86l68 160q14 -8 39.5 -19.5t99.5 -31t143 -19.5 q146 0 237 70.5t91 218.5v69l4 66h-4q-96 -158 -309 -158q-140 0 -246.5 70.5t-161.5 190.5t-55 270zM279 547q0 -163 80.5 -263t218.5 -100q57 0 104 18.5t87 58t62.5 111.5t22.5 169q0 348 -293 348q-134 0 -208 -91t-74 -251z" />
<glyph unicode="h" horiz-adv-x="1273" d="M37 1276v170h196q69 0 100.5 -30.5t31.5 -96.5v-404l-5 -86h5q25 55 73 105t131.5 88.5t180.5 38.5q181 0 267.5 -98.5t86.5 -298.5v-449q0 -45 45 -45h84v-170h-195q-69 0 -100 31t-31 100v487q0 47 -4.5 83t-17 71t-33.5 57.5t-57 36t-84 13.5q-152 0 -249 -110.5 t-97 -283.5v-485h-199v1231q0 45 -45 45h-84z" />
<glyph unicode="i" horiz-adv-x="563" d="M55 866v170h195q69 0 100 -31t31 -100v-690q0 -45 45 -45h84v-170h-195q-69 0 -100 31t-31 100v690q0 45 -45 45h-84zM188 1239v207h179v-207h-179z" />
<glyph unicode="j" horiz-adv-x="585" d="M-41 -248q18 -2 45 -2t52.5 4t57.5 18t55.5 37t39.5 66.5t16 101.5v844q0 45 -45 45h-84v170h197q69 0 100 -31t31 -100v-940q0 -83 -19.5 -148.5t-54.5 -106t-74.5 -68.5t-88 -41t-85.5 -18t-75 -5l-68 4v170zM229 1239v207h181v-207h-181z" />
<glyph unicode="k" horiz-adv-x="1075" d="M37 1276v170h196q71 0 101.5 -26t30.5 -93v-672h92q73 0 108 45l240 336h227l-280 -385q-21 -28 -40.5 -47.5t-28.5 -25.5l-9 -5v-4q4 -1 10.5 -5t24.5 -23.5t34 -48.5l154 -281q12 -24 30.5 -32.5t57.5 -8.5h64v-170h-144q-73 0 -105.5 18t-66.5 78l-188 348 q-25 43 -103 43h-77v-487h-199v1231q0 45 -45 45h-84z" />
<glyph unicode="l" horiz-adv-x="548" d="M41 1276v170h197q69 0 100 -31t31 -100v-1100q0 -45 45 -45h84v-170h-197q-69 0 -100 31t-31 100v1100q0 45 -45 45h-84z" />
<glyph unicode="m" horiz-adv-x="1918" d="M45 866v170h191q131 0 131 -114v-39l-2 -60h4q39 96 138.5 167t215.5 71q258 0 311 -236h4q45 99 146.5 167.5t222.5 68.5q174 0 258 -99t84 -298v-449q0 -45 45 -45h84v-170h-197q-69 0 -100 31t-31 100v490q0 60 -7 103t-26 80.5t-56 57t-93 19.5q-103 0 -182.5 -77.5 t-108.5 -189.5q-16 -69 -16 -141v-473h-199v621q0 46 -3 79.5t-14 69.5t-30 59t-52 37.5t-79 14.5q-108 0 -187 -78.5t-110 -196.5q-14 -57 -14 -133v-473h-199v821q0 45 -45 45h-84z" />
<glyph unicode="n" horiz-adv-x="1282" d="M45 866v170h191q131 0 131 -114v-39l-5 -60h5q17 38 47.5 76t77 76t115.5 62t149 24q183 0 269.5 -98.5t86.5 -298.5v-449q0 -45 45 -45h84v-170h-197q-69 0 -100 31t-31 100v487q0 60 -7.5 103t-27 81t-59.5 57.5t-100 19.5q-155 0 -250.5 -109.5t-95.5 -284.5v-485 h-199v821q0 45 -45 45h-84z" />
<glyph unicode="o" horiz-adv-x="1263" d="M74 520q0 153 74.5 277.5t202 194t280.5 69.5q115 0 217.5 -41t178 -112t119.5 -172t44 -216q0 -154 -75 -279.5t-203 -195.5t-281 -70t-280.5 70t-202 195.5t-74.5 279.5zM276 520q0 -161 103.5 -267t251.5 -106q150 0 253 106t103 267q0 159 -103 264t-253 105 q-148 0 -251.5 -105t-103.5 -264z" />
<glyph unicode="p" horiz-adv-x="1236" d="M45 866v170h186q127 0 127 -104l-2 -55h4q4 7 11 19.5t36 44.5t65 56t98.5 44t134.5 20q208 0 332 -150t124 -393q0 -244 -133 -393.5t-338 -149.5q-64 0 -120.5 17t-91 41.5t-59.5 49t-35 41.5l-11 17h-4q4 -37 4 -90v-461h-199v1231q0 45 -45 45h-84zM367 514 q0 -70 19 -135.5t54.5 -118t92 -84t126.5 -31.5q128 0 213.5 100t85.5 271q0 168 -81 269.5t-211 101.5q-60 0 -112 -21.5t-95 -65t-67.5 -117.5t-24.5 -169z" />
<glyph unicode="q" horiz-adv-x="1236" d="M78 518q0 245 130.5 394t336.5 149q69 0 128.5 -18t95.5 -44t62.5 -52t36.5 -44l11 -18h4q-2 22 -2 53q0 98 127 98h186v-170h-84q-45 0 -45 -45v-1231h-199v469l4 91h-4q-4 -7 -11 -19t-35.5 -42t-63.5 -53t-95 -42t-129 -19q-208 0 -331 149.5t-123 393.5zM279 518 q0 -168 81.5 -269.5t212.5 -101.5q126 0 211.5 93.5t85.5 279.5q0 71 -18.5 135.5t-53.5 117.5t-92 84.5t-128 31.5q-128 0 -213.5 -100t-85.5 -271z" />
<glyph unicode="r" horiz-adv-x="792" d="M45 866v170h188q68 0 101 -29.5t33 -91.5v-65l-5 -72h5q39 119 125 195t202 76l54 -5v-196q-27 6 -60 6q-97 0 -176.5 -65t-114.5 -179q-24 -79 -24 -186v-424h-199v821q0 45 -45 45h-84z" />
<glyph unicode="s" horiz-adv-x="929" d="M55 158l103 133q5 -6 14.5 -16.5t41 -37t65.5 -47t86.5 -37t105.5 -16.5q77 0 128.5 34.5t51.5 98.5q0 37 -31 68t-81 54.5t-110.5 47t-120.5 52.5t-110 65t-81 90.5t-31 122.5q0 142 108.5 216.5t276.5 74.5q53 0 107 -10t109 -31t89.5 -62.5t34.5 -97.5v-98h-178v51 q0 42 -50 65t-106 23q-90 0 -141 -31.5t-51 -91.5q0 -40 31 -71t81 -54t110.5 -45t120.5 -50t110 -63t81 -90.5t31 -125.5q0 -136 -108 -220t-273 -84q-77 0 -148 19t-117.5 45.5t-81.5 53.5t-51 46z" />
<glyph unicode="t" horiz-adv-x="720" d="M47 877v159h139v285h195v-285h248v-159h-248v-476q0 -59 16 -103.5t39 -68.5t54.5 -38.5t57 -18.5t52.5 -4l47 4v-176q-26 -4 -69 -4q-32 0 -63.5 3t-72 13.5t-75.5 27t-70 46t-59.5 69t-40 98.5t-15.5 130v498h-135z" />
<glyph unicode="u" horiz-adv-x="1271" d="M41 866v170h195q70 0 101.5 -30.5t31.5 -96.5v-491q0 -59 7.5 -101.5t27 -80t59 -57t98.5 -19.5q103 0 181.5 55.5t117.5 143.5t39 192v485h199v-821q0 -45 45 -45h84v-170h-191q-131 0 -131 115v39l2 59h-4q-24 -56 -71.5 -107.5t-130.5 -91t-179 -39.5 q-177 0 -264.5 97t-87.5 301v448q0 45 -45 45h-84z" />
<glyph unicode="v" horiz-adv-x="1089" d="M27 866v170h102q69 0 102 -21.5t56 -82.5l223 -596q9 -25 18 -59t14 -55l5 -21h4q17 78 37 135l221 596q23 61 56.5 82.5t101.5 21.5h96v-170h-21q-51 0 -67 -41l-316 -825h-229l-319 825q-16 41 -64 41h-20z" />
<glyph unicode="w" horiz-adv-x="1708" d="M20 866v170h125q70 0 102 -22.5t52 -87.5l184 -617q7 -24 13.5 -51.5t9.5 -43.5l2 -15h4q13 57 29 110l223 723h182l225 -723l27 -110h4q9 57 25 110l182 617q20 65 53 87.5t103 22.5h123v-170h-29q-52 0 -64 -41l-272 -825h-223l-215 666l-29 112h-4q-13 -59 -29 -112 l-213 -666h-225l-272 825q-12 41 -64 41h-29z" />
<glyph unicode="x" horiz-adv-x="1011" d="M31 0l350 532l-199 295q-17 24 -35.5 31.5t-52.5 7.5h-57v170h127q72 0 105 -19.5t75 -84.5l127 -201l33 -65h4q19 38 35 65l125 201q39 65 73 84.5t107 19.5h129v-170h-59q-65 0 -89 -37l-198 -297l350 -532h-223l-219 338l-31 55h-4q-17 -30 -33 -55l-215 -338h-225z " />
<glyph unicode="y" horiz-adv-x="1118" d="M10 -328l82 144q0 -3 18.5 -20t56.5 -35.5t77 -18.5q59 0 105.5 39t76.5 110l47 113l-354 821q-10 24 -25 32.5t-41 8.5h-24v170h116q63 0 93 -21t55 -83l235 -584q9 -24 18 -55t14 -51l5 -19h4q15 72 35 125l215 584q23 61 55.5 82.5t96.5 21.5h119v-170h-27 q-26 0 -41 -8.5t-25 -32.5l-409 -1011q-46 -118 -134.5 -181t-199.5 -63q-43 0 -84 10.5t-69 25.5t-49.5 30t-31.5 26z" />
<glyph unicode="z" horiz-adv-x="1034" d="M68 0v115l530 655q20 24 41.5 48t32.5 36l12 12v4q-32 -4 -100 -4h-283q-45 0 -45 -45v-69h-182v153q0 69 31 100t100 31h741v-114l-532 -658q-19 -23 -40.5 -46.5t-33.5 -35.5l-12 -12v-4q32 4 100 4h332q45 0 45 45v70h180v-154q0 -69 -31 -100t-100 -31h-786z" />
<glyph unicode="{" horiz-adv-x="694" d="M59 578v176q7 1 19 3t42 16t52.5 36t41.5 67t19 105v172q0 92 26 161t62 105t85.5 57.5t85.5 27t73 5.5l47 -2v-151h-28q-20 0 -38.5 -3t-45 -16t-45.5 -35t-33 -63.5t-14 -97.5v-211q0 -57 -17 -104.5t-41.5 -75t-49 -47t-41.5 -26.5l-17 -7v-4q7 -2 18 -6.5t39.5 -24.5 t50.5 -46t40 -75t18 -108v-236q0 -56 14 -97.5t33 -63.5t45.5 -35t45 -16t38.5 -3h28v-152q-18 -4 -47 -4q-37 0 -73 5.5t-85.5 27.5t-85.5 58.5t-62 105.5t-26 162v196q0 59 -18 103.5t-43.5 66t-51 35t-43.5 16.5z" />
<glyph unicode="|" horiz-adv-x="612" d="M219 -326v1948h174v-1948h-174z" />
<glyph unicode="}" horiz-adv-x="694" d="M82 -45h29q20 0 38.5 3t45 16t45.5 35t33 63.5t14 97.5v236q0 59 17 107.5t41.5 75.5t49 45.5t41.5 25.5l17 6v4q-7 2 -18 7t-39.5 26t-50.5 47.5t-40 74.5t-18 105v211q0 56 -14 97.5t-33 63.5t-45.5 35t-45 16t-38.5 3h-29v151q18 2 47 2q37 0 73 -5.5t85.5 -27 t85.5 -57.5t62 -105t26 -161v-172q0 -60 18 -105t43.5 -67t51 -36t43.5 -17l18 -2v-176q-7 -1 -19 -3t-42 -16t-52.5 -35.5t-41.5 -66t-19 -103.5v-196q0 -93 -26 -162t-62 -105.5t-85.5 -58.5t-85.5 -27.5t-73 -5.5l-47 4v152z" />
<glyph unicode="~" d="M127 418q0 174 75 260t212 86q59 0 107 -20.5t80 -50t61 -59.5t65 -50.5t78 -20.5q39 0 67 17.5t42.5 47t21 61.5t6.5 67h162q0 -175 -74.5 -260.5t-210.5 -85.5q-59 0 -107.5 20.5t-80 49.5t-60.5 58t-65.5 49.5t-79.5 20.5q-38 0 -66 -17.5t-42.5 -46.5t-21.5 -60.5 t-7 -65.5h-162z" />
<glyph unicode="&#xa1;" horiz-adv-x="643" d="M219 -410l14 1049h179l12 -1049h-205zM219 838v198h203v-198h-203z" />
<glyph unicode="&#xa2;" horiz-adv-x="1157" d="M113 723q0 149 49 272t144.5 204t223.5 99v226h150v-226q129 -20 224 -103t147 -214l-181 -70q-38 93 -103 148t-155 55q-139 0 -218 -110t-79 -281q0 -176 77.5 -282.5t219.5 -106.5q91 0 155.5 55t102.5 148l181 -72q-50 -125 -145 -213t-226 -102v-228h-150v228 q-128 18 -223.5 98.5t-144.5 203.5t-49 271z" />
<glyph unicode="&#xa3;" horiz-adv-x="1196" d="M102 0v176h125v477h-90v144h90v278q0 171 126 283t319 112q58 0 114.5 -13.5t96 -33t70.5 -38.5t46 -33l15 -13l-117 -141q-11 10 -30.5 24.5t-78 39t-114.5 24.5q-111 0 -176.5 -62.5t-65.5 -156.5v-270h377v-144h-377v-477h442q46 0 46 45v92h188v-182 q0 -69 -31.5 -100t-101.5 -31h-873z" />
<glyph unicode="&#xa5;" horiz-adv-x="1257" d="M31 1270v176h90q76 0 116.5 -21.5t81.5 -89.5l220 -364l88 -160h4q41 80 88 160l217 364q41 69 82 90t119 21h90v-176h-35q-35 0 -54.5 -8.5t-37.5 -36.5l-228 -371v-4h187v-129h-273l-55 -90v-84h328v-129h-328v-418h-205v418h-329v129h329v84l-57 90h-276v129h192v4 l-229 371q-18 28 -38 36.5t-55 8.5h-32z" />
<glyph unicode="&#xa7;" horiz-adv-x="940" d="M125 -23l90 138q3 -3 9.5 -8t27.5 -18.5t42.5 -23.5t54.5 -18t65 -8q95 0 156 56t61 159q0 35 -13 92l-135 770h162l143 -799q11 -61 11 -92q0 -155 -104 -253.5t-281 -98.5q-50 0 -98 10.5t-81 26t-59 31t-38 25.5zM156 1120q0 153 104.5 251.5t282.5 98.5 q49 0 97 -10.5t81 -26t59 -31t38 -26.5l13 -10l-94 -131q-9 8 -25.5 19.5t-67.5 31t-101 19.5q-97 0 -158 -53.5t-61 -153.5q0 -36 12 -82l139 -789h-164l-143 799q-12 46 -12 94z" />
<glyph unicode="&#xa8;" horiz-adv-x="1026" d="M291 1599v207h151v-207h-151zM629 1599v207h149v-207h-149z" />
<glyph unicode="&#xa9;" horiz-adv-x="1611" d="M76 723q0 153 57.5 291.5t154.5 238.5t231.5 158.5t283.5 58.5q201 0 369.5 -99.5t266 -271t97.5 -376.5q0 -153 -57.5 -292t-155.5 -238.5t-234 -158.5t-286 -59q-149 0 -283.5 59t-231.5 158.5t-154.5 238.5t-57.5 292zM225 723q0 -126 45 -239t121.5 -194t184 -128 t227.5 -47q162 0 296 80t210.5 219.5t76.5 308.5t-76.5 308.5t-210.5 219.5t-296 80q-120 0 -227.5 -47t-184 -128t-121.5 -194t-45 -239zM414 721q0 81 28.5 155t79.5 130.5t128 90t167 33.5q66 0 124.5 -21t95.5 -50.5t64 -59t39 -50.5l11 -21l-125 -68q-3 5 -8.5 14 t-24.5 31t-41 39t-57 31t-72 14q-117 0 -185.5 -78.5t-68.5 -189.5q0 -114 67 -191t187 -77q38 0 72.5 13.5t57.5 32.5t40 37.5t25 31.5l8 14l125 -68q-4 -8 -12 -22t-37.5 -49t-64.5 -61.5t-94.5 -48.5t-125.5 -22q-180 0 -291.5 120.5t-111.5 289.5z" />
<glyph unicode="&#xaa;" horiz-adv-x="849" d="M111 543v116h639v-116h-639zM113 987q0 49 19 86.5t53 60.5t71.5 38.5t84 22t79.5 9t69 2.5h29q-3 76 -31 105.5t-94 29.5q-86 0 -86 -34v-39h-143v82q0 35 26 60t67 36t74.5 15.5t63.5 4.5q78 0 132.5 -19.5t84 -56.5t42 -81t12.5 -101v-258q0 -22 20 -22h57v-131h-118 q-87 0 -95 75l-2 21h-4q-2 -4 -6.5 -11.5t-21 -26.5t-36 -33t-53 -26t-71.5 -12q-92 0 -157.5 54t-65.5 149zM264 993q0 -37 26.5 -62.5t76.5 -25.5q67 0 107.5 57.5t43.5 139.5h-20q-234 0 -234 -109z" />
<glyph unicode="&#xab;" horiz-adv-x="1161" d="M86 578l336 421h199l-336 -421l336 -420h-199zM498 578l336 421h198l-336 -421l336 -420h-198z" />
<glyph unicode="&#xac;" d="M139 696v160h977v-547h-166v387h-811z" />
<glyph unicode="&#xad;" horiz-adv-x="882" d="M143 496v176h598v-176h-598z" />
<glyph unicode="&#xae;" horiz-adv-x="1611" d="M76 723q0 153 57.5 291.5t154.5 238.5t231.5 158.5t283.5 58.5q201 0 369.5 -99.5t266 -271t97.5 -376.5q0 -153 -57.5 -292t-155.5 -238.5t-234 -158.5t-286 -59q-149 0 -283.5 59t-231.5 158.5t-154.5 238.5t-57.5 292zM225 723q0 -126 45 -239t121.5 -194t184 -128 t227.5 -47q162 0 296 80t210.5 219.5t76.5 308.5t-76.5 308.5t-210.5 219.5t-296 80q-120 0 -227.5 -47t-184 -128t-121.5 -194t-45 -239zM483 1001v111h367q109 0 176.5 -64t67.5 -171q0 -82 -44 -136.5t-98 -68.5v-4q25 -6 43 -41l80 -154q15 -27 49 -27h23v-106h-78 q-46 0 -69 10.5t-42 46.5l-106 203q-12 24 -28 31.5t-42 7.5h-84v-299h-145v661h-70zM698 745h123q57 0 91 35.5t34 96.5q0 59 -33.5 91.5t-91.5 32.5h-123v-256z" />
<glyph unicode="&#xaf;" horiz-adv-x="950" d="M221 1606v139h520v-139h-520z" />
<glyph unicode="&#xb0;" horiz-adv-x="813" d="M96 1167q0 125 90.5 214t219.5 89t220 -89t91 -214q0 -126 -91 -214.5t-220 -88.5t-219.5 88.5t-90.5 214.5zM254 1167q0 -63 44 -107t108 -44t107.5 44t43.5 107q0 64 -43.5 109t-107.5 45t-108 -45t-44 -109z" />
<glyph unicode="&#xb1;" d="M86 504v160h459v503h168v-503h456v-160h-456v-504h-168v504h-459zM119 -195h1018v-159h-1018v159z" />
<glyph unicode="&#xb2;" horiz-adv-x="866" d="M104 666q0 51 16 95.5t37.5 74.5t60 61t66.5 48.5t74 43.5t72.5 43t57.5 43.5t45 56.5t14 66q0 53 -36.5 87t-98.5 34q-51 0 -85 -21.5t-34 -50.5v-49h-146v90q0 58 48 100t106.5 59t112.5 17q128 0 209.5 -73.5t81.5 -192.5q0 -37 -9.5 -70.5t-21 -58t-36.5 -51 t-42.5 -42t-52 -37.5t-51 -31.5t-54.5 -30.5q-43 -24 -67 -39.5t-52.5 -39t-41.5 -49.5t-13 -55q0 -12 19 -12h305q12 0 12 14v68h143v-125q0 -49 -22.5 -71.5t-71.5 -22.5h-446q-56 0 -77.5 24.5t-21.5 96.5z" />
<glyph unicode="&#xb3;" horiz-adv-x="866" d="M106 692l109 101q4 -5 10.5 -13t28.5 -28.5t45 -36t58 -28.5t69 -13q64 0 110 42t46 105t-47.5 100t-118.5 37h-70l-24 91l172 217q8 11 19 23t19 18l7 6v4q-35 -4 -70 -4h-156q-18 0 -18 -21v-53h-145v109q0 56 20.5 77t77.5 21h475v-105l-213 -260q93 -13 161 -86 t68 -176q0 -127 -92.5 -209t-220.5 -82q-54 0 -107 17t-89.5 41t-66 48t-43.5 41z" />
<glyph unicode="&#xb4;" horiz-adv-x="794" d="M244 1546l149 260h201l-195 -260h-155z" />
<glyph unicode="&#xb6;" horiz-adv-x="1226" d="M84 971q0 131 65.5 241t176.5 172t241 62h557v-176h-401v-1372h-154v596q-130 0 -241.5 62.5t-177.5 173t-66 241.5zM850 -102v1255h151v-1255h-151z" />
<glyph unicode="&#xb7;" horiz-adv-x="491" d="M143 489v211h203v-211h-203z" />
<glyph unicode="&#xb8;" horiz-adv-x="851" d="M229 -291q41 -14 88 -14q97 0 97 63q0 31 -30 47.5t-79 16.5l-35 -2l58 227l100 -20v-17l-22 -112q64 -8 104.5 -47t40.5 -103q0 -89 -60 -130.5t-149 -41.5q-28 0 -56 3.5t-42 6.5l-15 4v119z" />
<glyph unicode="&#xb9;" horiz-adv-x="866" d="M143 1231l224 215h135v-764h188v-137h-534v137h190v494l2 67h-4q-9 -21 -25 -35l-81 -78z" />
<glyph unicode="&#xba;" horiz-adv-x="933" d="M117 1130q0 145 101 241.5t247 96.5q148 0 250 -96.5t102 -241.5q0 -149 -101.5 -246.5t-248.5 -97.5q-148 0 -249 97.5t-101 246.5zM150 543v116h638v-116h-638zM264 1130q0 -93 58.5 -152.5t144.5 -59.5q85 0 143 60t58 152q0 90 -58.5 148.5t-142.5 58.5 q-86 0 -144.5 -58.5t-58.5 -148.5z" />
<glyph unicode="&#xbb;" horiz-adv-x="1161" d="M127 158l336 420l-336 421h199l336 -421l-336 -420h-199zM541 158l336 420l-336 421h198l336 -421l-336 -420h-198z" />
<glyph unicode="&#xbc;" horiz-adv-x="1875" d="M147 1231l222 215h137v-764h182v-137h-528v137h190v494l2 67h-4q-10 -21 -24 -35l-82 -78zM582 0l587 1446h164l-585 -1446h-166zM1059 231v95l391 577h178v-534h135v-138h-135v-231h-155v231h-414zM1227 367q27 2 41 2h207v280l2 74h-4q-13 -28 -31 -55l-187 -265 l-28 -32v-4z" />
<glyph unicode="&#xbd;" horiz-adv-x="1875" d="M147 1231l222 215h137v-764h182v-137h-528v137h190v494l2 67h-4q-10 -21 -24 -35l-82 -78zM559 0l588 1446h164l-588 -1446h-164zM1112 121q0 37 8.5 70t20 58.5t34 51.5t40.5 43t48.5 38t49.5 33t53 31q45 25 71.5 42t57 43t45 56t14.5 66q0 55 -37.5 89t-99.5 34 q-50 0 -83.5 -21t-33.5 -50v-50h-145v88q0 58 48 100.5t106 59.5t112 17q128 0 209.5 -73.5t81.5 -191.5q0 -29 -6 -56t-13 -48t-24 -44t-27.5 -37t-35.5 -34t-36.5 -29t-42 -27.5t-40 -24t-41.5 -23.5q-43 -24 -67.5 -39.5t-53.5 -39t-42 -49t-13 -54.5q0 -13 20 -13h303 q13 0 13 15v69h145v-125q0 -51 -22.5 -73.5t-73.5 -22.5h-447q-55 0 -75.5 25t-20.5 96z" />
<glyph unicode="&#xbe;" horiz-adv-x="1875" d="M123 692l106 101q4 -5 10.5 -13t29 -28.5t45.5 -36t58.5 -28.5t69.5 -13q64 0 110 42t46 105t-47.5 100t-118.5 37h-72l-24 91l174 217q8 11 19 23t17 18l7 6v4q-33 -4 -68 -4h-155q-19 0 -19 -21v-53h-145v109q0 56 20 77t76 21h477v-105l-215 -260q95 -13 163.5 -86 t68.5 -176q0 -127 -93 -209t-221 -82q-54 0 -107 17t-89.5 41t-65.5 48t-43 41zM578 0l587 1446h164l-586 -1446h-165zM1059 231v95l391 577h178v-534h135v-138h-135v-231h-155v231h-414zM1227 367q27 2 41 2h207v280l2 74h-4q-13 -28 -31 -55l-187 -265l-28 -32v-4z" />
<glyph unicode="&#xbf;" horiz-adv-x="927" d="M66 -57q0 69 20 127.5t52 100.5t70.5 79.5t77 71.5t70.5 68.5t52 78.5t20 94v76h193v-88q0 -63 -19 -118t-49.5 -95t-67.5 -76.5t-74.5 -70t-68 -67t-49.5 -76t-19 -89.5q0 -87 66.5 -146t167.5 -59q57 0 115.5 22t88.5 44l29 22l109 -141q-5 -5 -15.5 -14t-45.5 -31.5 t-73.5 -40t-99 -31.5t-122.5 -14q-116 0 -213 45t-156 131.5t-59 196.5zM424 838v198h203v-198h-203z" />
<glyph unicode="&#xc0;" horiz-adv-x="1361" d="M25 0v176h28q29 0 44 9t24 36l452 1225h215l453 -1225q9 -26 24.5 -35.5t43.5 -9.5h30v-176h-114q-76 0 -109.5 24t-58.5 95l-109 297h-532l-109 -297q-26 -71 -60 -95t-110 -24h-112zM408 1806h200l150 -260h-156zM465 588h432l-158 440q-12 34 -26.5 84.5t-22.5 84.5 l-8 34h-4q-28 -127 -55 -203z" />
<glyph unicode="&#xc1;" horiz-adv-x="1361" d="M25 0v176h28q29 0 44 9t24 36l452 1225h215l453 -1225q9 -26 24.5 -35.5t43.5 -9.5h30v-176h-114q-76 0 -109.5 24t-58.5 95l-109 297h-532l-109 -297q-26 -71 -60 -95t-110 -24h-112zM465 588h432l-158 440q-12 34 -26.5 84.5t-22.5 84.5l-8 34h-4q-28 -127 -55 -203z M602 1546l150 260h200l-194 -260h-156z" />
<glyph unicode="&#xc2;" horiz-adv-x="1361" d="M25 0v176h28q29 0 44 9t24 36l452 1225h215l453 -1225q9 -26 24.5 -35.5t43.5 -9.5h30v-176h-114q-76 0 -109.5 24t-58.5 95l-109 297h-532l-109 -297q-26 -71 -60 -95t-110 -24h-112zM412 1546l178 260h182l180 -260h-161l-107 164h-4l-109 -164h-159zM465 588h432 l-158 440q-12 34 -26.5 84.5t-22.5 84.5l-8 34h-4q-28 -127 -55 -203z" />
<glyph unicode="&#xc3;" horiz-adv-x="1361" d="M25 0v176h28q29 0 44 9t24 36l452 1225h215l453 -1225q9 -26 24.5 -35.5t43.5 -9.5h30v-176h-114q-76 0 -109.5 24t-58.5 95l-109 297h-532l-109 -297q-26 -71 -60 -95t-110 -24h-112zM334 1548q0 260 211 260q39 0 72 -14.5t56 -35t43 -40.5t43.5 -34.5t47.5 -14.5 q42 0 62 40.5t20 92.5h135q0 -128 -53.5 -194t-157.5 -66q-38 0 -71 14.5t-56 35t-43.5 40.5t-43.5 34.5t-48 14.5q-42 0 -62 -40t-20 -93h-135zM465 588h432l-158 440q-12 34 -26.5 84.5t-22.5 84.5l-8 34h-4q-28 -127 -55 -203z" />
<glyph unicode="&#xc4;" horiz-adv-x="1361" d="M25 0v176h28q29 0 44 9t24 36l452 1225h215l453 -1225q9 -26 24.5 -35.5t43.5 -9.5h30v-176h-114q-76 0 -109.5 24t-58.5 95l-109 297h-532l-109 -297q-26 -71 -60 -95t-110 -24h-112zM438 1599v207h152v-207h-152zM465 588h432l-158 440q-12 34 -26.5 84.5t-22.5 84.5 l-8 34h-4q-28 -127 -55 -203zM776 1599v207h150v-207h-150z" />
<glyph unicode="&#xc5;" horiz-adv-x="1361" d="M25 0v176h28q29 0 44 9t24 36l452 1225h215l453 -1225q9 -26 24.5 -35.5t43.5 -9.5h30v-176h-114q-76 0 -109.5 24t-58.5 95l-109 297h-532l-109 -297q-26 -71 -60 -95t-110 -24h-112zM465 588h432l-158 440q-12 34 -26.5 84.5t-22.5 84.5l-8 34h-4q-28 -127 -55 -203z M516 1673q0 70 48.5 112t117.5 42q68 0 117 -42.5t49 -111.5q0 -68 -49 -109.5t-117 -41.5q-69 0 -117.5 41.5t-48.5 109.5zM612 1673q0 -29 19.5 -48t50.5 -19t50.5 19t19.5 48q0 32 -19.5 52t-50.5 20t-50.5 -20t-19.5 -52z" />
<glyph unicode="&#xc6;" horiz-adv-x="1755" d="M25 0v176h22q29 0 44.5 9t25.5 36l485 1225h918q69 0 100 -31t31 -100v-182h-187v92q0 45 -45 45h-399v-453h493v-176h-493v-420q0 -25 12.5 -35t40.5 -10h402q45 0 45 45v92h188v-182q0 -69 -31.5 -100t-101.5 -31h-617q-79 0 -112 28t-33 103v510h-326l-194 -522 q-26 -71 -60 -95t-110 -24h-98zM555 817h258v453h-90z" />
<glyph unicode="&#xc7;" horiz-adv-x="1435" d="M70 735q0 154 55.5 290.5t151.5 234t230.5 154t287.5 56.5q62 0 131.5 -10t143.5 -34t132.5 -58.5t96.5 -89.5t38 -121v-141h-188v82q0 57 -58.5 100t-136.5 62.5t-155 19.5q-221 0 -368.5 -152t-147.5 -393q0 -156 67 -286t185.5 -205.5t263.5 -75.5q81 0 158.5 20 t130 48.5t94 57t60.5 48.5l20 20l110 -145q-8 -9 -23.5 -25t-68 -56.5t-112 -72t-154.5 -58.5t-195 -30l-16 -77q66 -8 106.5 -47t40.5 -103q0 -88 -60.5 -130t-148.5 -42q-29 0 -57.5 3.5t-42.5 6.5l-14 4v119q41 -14 88 -14q96 0 96 63q0 31 -28.5 47.5t-77.5 16.5l-37 -2 l41 160q-189 20 -335.5 124.5t-225 269t-78.5 361.5z" />
<glyph unicode="&#xc8;" horiz-adv-x="1163" d="M78 1270v176h850q69 0 100 -31t31 -100v-182h-187v92q0 45 -45 45h-411v-453h506v-176h-506v-420q0 -45 45 -45h422q45 0 45 45v92h188v-182q0 -69 -31 -100t-100 -31h-643q-69 0 -100 31t-31 100v1139h-133zM330 1806h200l150 -260h-156z" />
<glyph unicode="&#xc9;" horiz-adv-x="1163" d="M78 1270v176h850q69 0 100 -31t31 -100v-182h-187v92q0 45 -45 45h-411v-453h506v-176h-506v-420q0 -45 45 -45h422q45 0 45 45v92h188v-182q0 -69 -31 -100t-100 -31h-643q-69 0 -100 31t-31 100v1139h-133zM524 1546l150 260h200l-194 -260h-156z" />
<glyph unicode="&#xca;" horiz-adv-x="1163" d="M78 1270v176h850q69 0 100 -31t31 -100v-182h-187v92q0 45 -45 45h-411v-453h506v-176h-506v-420q0 -45 45 -45h422q45 0 45 45v92h188v-182q0 -69 -31 -100t-100 -31h-643q-69 0 -100 31t-31 100v1139h-133zM336 1546l178 260h182l181 -260h-162l-107 164h-4l-108 -164 h-160z" />
<glyph unicode="&#xcb;" horiz-adv-x="1163" d="M78 1270v176h850q69 0 100 -31t31 -100v-182h-187v92q0 45 -45 45h-411v-453h506v-176h-506v-420q0 -45 45 -45h422q45 0 45 45v92h188v-182q0 -69 -31 -100t-100 -31h-643q-69 0 -100 31t-31 100v1139h-133zM362 1599v207h152v-207h-152zM700 1599v207h150v-207h-150z " />
<glyph unicode="&#xcc;" horiz-adv-x="649" d="M49 1806h201l149 -260h-155zM86 0v176h141v1094h-141v176h477v-176h-141v-1094h141v-176h-477z" />
<glyph unicode="&#xcd;" horiz-adv-x="649" d="M86 0v176h141v1094h-141v176h477v-176h-141v-1094h141v-176h-477zM244 1546l149 260h201l-195 -260h-155z" />
<glyph unicode="&#xce;" horiz-adv-x="649" d="M53 1546l178 260h183l180 -260h-162l-106 164h-4l-109 -164h-160zM86 0v176h141v1094h-141v176h477v-176h-141v-1094h141v-176h-477z" />
<glyph unicode="&#xcf;" horiz-adv-x="649" d="M80 1599v207h151v-207h-151zM86 0v176h141v1094h-141v176h477v-176h-141v-1094h141v-176h-477zM418 1599v207h149v-207h-149z" />
<glyph unicode="&#xd0;" horiz-adv-x="1464" d="M78 1270v176h586q334 0 532.5 -191t198.5 -530q0 -340 -198.5 -532.5t-532.5 -192.5h-322q-69 0 -100 31t-31 100v508h-100v168h100v463h-133zM416 221q0 -45 45 -45h188q246 0 389.5 143t143.5 406q0 261 -144.5 403t-388.5 142h-233v-463h295v-168h-295v-418z" />
<glyph unicode="&#xd1;" horiz-adv-x="1566" d="M78 0v176h88q45 0 45 45v1225h186l643 -916q24 -35 54 -84t48 -80l19 -32h4q-14 114 -14 196v785q0 69 31.5 100t101.5 31h205v-176h-88q-45 0 -45 -45v-1225h-185l-645 915q-24 35 -53.5 84t-46.5 81l-18 32h-5q13 -117 13 -197v-784q0 -69 -31 -100t-100 -31h-207z M457 1548q0 260 211 260q39 0 72 -14.5t56 -35t43 -40.5t43.5 -34.5t47.5 -14.5q42 0 62 40.5t20 92.5h135q0 -128 -53.5 -194t-157.5 -66q-38 0 -71 14.5t-56 35t-43.5 40.5t-43.5 34.5t-48 14.5q-42 0 -62 -40t-20 -93h-135z" />
<glyph unicode="&#xd2;" horiz-adv-x="1624" d="M70 733q0 205 97.5 374t267.5 266t376 97t376.5 -97t268.5 -266t98 -374q0 -210 -98 -384t-268.5 -274t-376.5 -100t-376 100t-267.5 274t-97.5 384zM283 733q0 -157 70.5 -287t191.5 -204t266 -74t266.5 74t192.5 204t71 287q0 114 -42 215.5t-113 174t-169 115 t-206 42.5t-205.5 -42.5t-168.5 -115t-112.5 -174t-41.5 -215.5zM530 1806h201l150 -260h-156z" />
<glyph unicode="&#xd3;" horiz-adv-x="1624" d="M70 733q0 205 97.5 374t267.5 266t376 97t376.5 -97t268.5 -266t98 -374q0 -210 -98 -384t-268.5 -274t-376.5 -100t-376 100t-267.5 274t-97.5 384zM283 733q0 -157 70.5 -287t191.5 -204t266 -74t266.5 74t192.5 204t71 287q0 114 -42 215.5t-113 174t-169 115 t-206 42.5t-205.5 -42.5t-168.5 -115t-112.5 -174t-41.5 -215.5zM727 1546l150 260h200l-194 -260h-156z" />
<glyph unicode="&#xd4;" horiz-adv-x="1624" d="M70 733q0 205 97.5 374t267.5 266t376 97t376.5 -97t268.5 -266t98 -374q0 -210 -98 -384t-268.5 -274t-376.5 -100t-376 100t-267.5 274t-97.5 384zM283 733q0 -157 70.5 -287t191.5 -204t266 -74t266.5 74t192.5 204t71 287q0 114 -42 215.5t-113 174t-169 115 t-206 42.5t-205.5 -42.5t-168.5 -115t-112.5 -174t-41.5 -215.5zM537 1546l178 260h182l180 -260h-162l-106 164h-4l-109 -164h-159z" />
<glyph unicode="&#xd5;" horiz-adv-x="1624" d="M70 733q0 205 97.5 374t267.5 266t376 97t376.5 -97t268.5 -266t98 -374q0 -210 -98 -384t-268.5 -274t-376.5 -100t-376 100t-267.5 274t-97.5 384zM283 733q0 -157 70.5 -287t191.5 -204t266 -74t266.5 74t192.5 204t71 287q0 114 -42 215.5t-113 174t-169 115 t-206 42.5t-205.5 -42.5t-168.5 -115t-112.5 -174t-41.5 -215.5zM459 1548q0 260 211 260q39 0 72 -14.5t56 -35t43 -40.5t43.5 -34.5t47.5 -14.5q42 0 62 40.5t20 92.5h135q0 -128 -53.5 -194t-157.5 -66q-38 0 -71 14.5t-56 35t-43.5 40.5t-43.5 34.5t-48 14.5 q-42 0 -62 -40t-20 -93h-135z" />
<glyph unicode="&#xd6;" horiz-adv-x="1624" d="M70 733q0 205 97.5 374t267.5 266t376 97t376.5 -97t268.5 -266t98 -374q0 -210 -98 -384t-268.5 -274t-376.5 -100t-376 100t-267.5 274t-97.5 384zM283 733q0 -157 70.5 -287t191.5 -204t266 -74t266.5 74t192.5 204t71 287q0 114 -42 215.5t-113 174t-169 115 t-206 42.5t-205.5 -42.5t-168.5 -115t-112.5 -174t-41.5 -215.5zM563 1599v207h152v-207h-152zM901 1599v207h150v-207h-150z" />
<glyph unicode="&#xd7;" d="M96 113l422 471l-422 471l113 112l418 -467l420 467l112 -112l-424 -471l424 -471l-112 -113l-420 465l-418 -465z" />
<glyph unicode="&#xd8;" horiz-adv-x="1628" d="M72 733q0 205 98 374t268 266t375 97q210 0 385 -104l96 133l101 -69l-95 -134q120 -104 188 -250t68 -313q0 -210 -98 -384t-268.5 -274t-376.5 -100q-212 0 -385 109l-96 -135l-103 69l99 136q-121 106 -188.5 255.5t-67.5 323.5zM285 733q0 -121 43.5 -226.5 t120.5 -184.5l634 882q-129 76 -270 76q-108 0 -205.5 -42.5t-168.5 -115t-112.5 -174t-41.5 -215.5zM543 244q124 -76 270 -76q145 0 266.5 74t192.5 204t71 287q0 116 -44 217.5t-121 175.5z" />
<glyph unicode="&#xd9;" horiz-adv-x="1490" d="M61 1270v176h207q69 0 100 -31t31 -100v-801q0 -161 94 -253.5t252 -92.5t252.5 92.5t94.5 255.5v799q0 69 32 100t101 31h205v-176h-89q-45 0 -45 -45v-719q0 -237 -150.5 -384t-397.5 -147q-248 0 -400.5 147t-152.5 384v719q0 45 -45 45h-89zM473 1806h201l149 -260 h-155z" />
<glyph unicode="&#xda;" horiz-adv-x="1490" d="M61 1270v176h207q69 0 100 -31t31 -100v-801q0 -161 94 -253.5t252 -92.5t252.5 92.5t94.5 255.5v799q0 69 32 100t101 31h205v-176h-89q-45 0 -45 -45v-719q0 -237 -150.5 -384t-397.5 -147q-248 0 -400.5 147t-152.5 384v719q0 45 -45 45h-89zM668 1546l149 260h201 l-195 -260h-155z" />
<glyph unicode="&#xdb;" horiz-adv-x="1490" d="M61 1270v176h207q69 0 100 -31t31 -100v-801q0 -161 94 -253.5t252 -92.5t252.5 92.5t94.5 255.5v799q0 69 32 100t101 31h205v-176h-89q-45 0 -45 -45v-719q0 -237 -150.5 -384t-397.5 -147q-248 0 -400.5 147t-152.5 384v719q0 45 -45 45h-89zM477 1546l178 260h183 l180 -260h-162l-106 164h-5l-108 -164h-160z" />
<glyph unicode="&#xdc;" horiz-adv-x="1490" d="M61 1270v176h207q69 0 100 -31t31 -100v-801q0 -161 94 -253.5t252 -92.5t252.5 92.5t94.5 255.5v799q0 69 32 100t101 31h205v-176h-89q-45 0 -45 -45v-719q0 -237 -150.5 -384t-397.5 -147q-248 0 -400.5 147t-152.5 384v719q0 45 -45 45h-89zM504 1599v207h151v-207 h-151zM842 1599v207h149v-207h-149z" />
<glyph unicode="&#xdd;" horiz-adv-x="1234" d="M20 1270v176h95q76 0 114.5 -20.5t79.5 -90.5l219 -364q21 -36 43 -76.5t33 -62.5l12 -23h5q39 82 88 162l217 364q41 69 80 90t114 21h94v-176h-38q-34 0 -52.5 -10t-38.5 -41l-364 -588v-631h-205v631l-366 588q-20 31 -38 41t-51 10h-41zM539 1546l149 260h201 l-195 -260h-155z" />
<glyph unicode="&#xde;" horiz-adv-x="1220" d="M78 1270v176h207q69 0 100 -31t31 -100v-115h299q200 0 326 -124t126 -328q0 -205 -127 -332t-327 -127h-297v-289h-205v1225q0 45 -45 45h-88zM416 465h266q127 0 200.5 76t73.5 207q0 130 -72.5 203t-199.5 73h-268v-559z" />
<glyph unicode="&#xdf;" horiz-adv-x="1183" d="M39 0v170h78q45 0 45 45v870q0 121 65 210.5t163.5 132t213.5 42.5q168 0 278.5 -95.5t110.5 -233.5q0 -53 -21 -100t-51 -80t-60.5 -63t-51.5 -62.5t-21 -65.5q0 -37 38 -75.5t92 -76.5t107.5 -82t91.5 -109t38 -140q0 -76 -29 -136.5t-78.5 -98t-111.5 -57.5t-131 -20 q-56 0 -108.5 10.5t-87.5 25.5t-62.5 30.5t-40.5 26.5l-12 10l55 153l12 -9t32.5 -20.5t50.5 -25.5t63 -20t73 -9q74 0 123 36.5t49 111.5q0 35 -20 68.5t-52.5 61.5t-71.5 56t-78 58.5t-71.5 62.5t-52.5 74t-20 88t21.5 88t52 75t60.5 64.5t51.5 69.5t21.5 78 q0 65 -51.5 112t-143.5 47q-98 0 -168 -59t-70 -168v-940q0 -69 -31.5 -100t-101.5 -31h-188z" />
<glyph unicode="&#xe0;" horiz-adv-x="1114" d="M76 291q0 69 26 124.5t66.5 92t99 63t113 40.5t120.5 22t109 10t90 2h45v10q0 135 -53 191.5t-176 56.5q-23 0 -48 -3t-54.5 -11t-48.5 -25t-19 -41v-59h-186v102q0 59 40 101t103 60.5t115 26t100 7.5q122 0 207.5 -30.5t132 -87.5t66.5 -127t20 -161v-440q0 -45 45 -45 h84v-170h-186q-129 0 -129 119l4 61h-4q-3 -8 -10 -22t-34.5 -49.5t-62 -62.5t-94.5 -49t-129 -22q-143 0 -247.5 84.5t-104.5 231.5zM268 1446h201l149 -260h-155zM276 301q0 -68 51 -117t144 -49q80 0 145 51t98.5 125.5t33.5 153.5v35h-52q-40 0 -71 -1t-77 -5.5 t-80.5 -12t-72.5 -22.5t-62.5 -35.5t-40.5 -52t-16 -70.5z" />
<glyph unicode="&#xe1;" horiz-adv-x="1114" d="M76 291q0 69 26 124.5t66.5 92t99 63t113 40.5t120.5 22t109 10t90 2h45v10q0 135 -53 191.5t-176 56.5q-23 0 -48 -3t-54.5 -11t-48.5 -25t-19 -41v-59h-186v102q0 59 40 101t103 60.5t115 26t100 7.5q122 0 207.5 -30.5t132 -87.5t66.5 -127t20 -161v-440q0 -45 45 -45 h84v-170h-186q-129 0 -129 119l4 61h-4q-3 -8 -10 -22t-34.5 -49.5t-62 -62.5t-94.5 -49t-129 -22q-143 0 -247.5 84.5t-104.5 231.5zM276 301q0 -68 51 -117t144 -49q80 0 145 51t98.5 125.5t33.5 153.5v35h-52q-40 0 -71 -1t-77 -5.5t-80.5 -12t-72.5 -22.5t-62.5 -35.5 t-40.5 -52t-16 -70.5zM463 1186l149 260h201l-195 -260h-155z" />
<glyph unicode="&#xe2;" horiz-adv-x="1114" d="M76 291q0 69 26 124.5t66.5 92t99 63t113 40.5t120.5 22t109 10t90 2h45v10q0 135 -53 191.5t-176 56.5q-23 0 -48 -3t-54.5 -11t-48.5 -25t-19 -41v-59h-186v102q0 59 40 101t103 60.5t115 26t100 7.5q122 0 207.5 -30.5t132 -87.5t66.5 -127t20 -161v-440q0 -45 45 -45 h84v-170h-186q-129 0 -129 119l4 61h-4q-3 -8 -10 -22t-34.5 -49.5t-62 -62.5t-94.5 -49t-129 -22q-143 0 -247.5 84.5t-104.5 231.5zM274 1186l179 260h182l180 -260h-162l-106 164h-4l-109 -164h-160zM276 301q0 -68 51 -117t144 -49q80 0 145 51t98.5 125.5t33.5 153.5 v35h-52q-40 0 -71 -1t-77 -5.5t-80.5 -12t-72.5 -22.5t-62.5 -35.5t-40.5 -52t-16 -70.5z" />
<glyph unicode="&#xe3;" horiz-adv-x="1114" d="M76 291q0 69 26 124.5t66.5 92t99 63t113 40.5t120.5 22t109 10t90 2h45v10q0 135 -53 191.5t-176 56.5q-23 0 -48 -3t-54.5 -11t-48.5 -25t-19 -41v-59h-186v102q0 59 40 101t103 60.5t115 26t100 7.5q122 0 207.5 -30.5t132 -87.5t66.5 -127t20 -161v-440q0 -45 45 -45 h84v-170h-186q-129 0 -129 119l4 61h-4q-3 -8 -10 -22t-34.5 -49.5t-62 -62.5t-94.5 -49t-129 -22q-143 0 -247.5 84.5t-104.5 231.5zM197 1188q0 260 211 260q39 0 72 -14.5t56 -35t43 -40.5t43.5 -34.5t47.5 -14.5q42 0 62 40.5t20 92.5h135q0 -128 -53.5 -194t-157.5 -66 q-38 0 -71 14.5t-56 35t-43.5 40.5t-43.5 34.5t-48 14.5q-42 0 -62 -40t-20 -93h-135zM276 301q0 -68 51 -117t144 -49q80 0 145 51t98.5 125.5t33.5 153.5v35h-52q-40 0 -71 -1t-77 -5.5t-80.5 -12t-72.5 -22.5t-62.5 -35.5t-40.5 -52t-16 -70.5z" />
<glyph unicode="&#xe4;" horiz-adv-x="1114" d="M76 291q0 69 26 124.5t66.5 92t99 63t113 40.5t120.5 22t109 10t90 2h45v10q0 135 -53 191.5t-176 56.5q-23 0 -48 -3t-54.5 -11t-48.5 -25t-19 -41v-59h-186v102q0 59 40 101t103 60.5t115 26t100 7.5q122 0 207.5 -30.5t132 -87.5t66.5 -127t20 -161v-440q0 -45 45 -45 h84v-170h-186q-129 0 -129 119l4 61h-4q-3 -8 -10 -22t-34.5 -49.5t-62 -62.5t-94.5 -49t-129 -22q-143 0 -247.5 84.5t-104.5 231.5zM276 301q0 -68 51 -117t144 -49q80 0 145 51t98.5 125.5t33.5 153.5v35h-52q-40 0 -71 -1t-77 -5.5t-80.5 -12t-72.5 -22.5t-62.5 -35.5 t-40.5 -52t-16 -70.5zM301 1239v207h152v-207h-152zM639 1239v207h149v-207h-149z" />
<glyph unicode="&#xe5;" horiz-adv-x="1114" d="M76 291q0 69 26 124.5t66.5 92t99 63t113 40.5t120.5 22t109 10t90 2h45v10q0 135 -53 191.5t-176 56.5q-23 0 -48 -3t-54.5 -11t-48.5 -25t-19 -41v-59h-186v102q0 59 40 101t103 60.5t115 26t100 7.5q122 0 207.5 -30.5t132 -87.5t66.5 -127t20 -161v-440q0 -45 45 -45 h84v-170h-186q-129 0 -129 119l4 61h-4q-3 -8 -10 -22t-34.5 -49.5t-62 -62.5t-94.5 -49t-129 -22q-143 0 -247.5 84.5t-104.5 231.5zM276 301q0 -68 51 -117t144 -49q80 0 145 51t98.5 125.5t33.5 153.5v35h-52q-40 0 -71 -1t-77 -5.5t-80.5 -12t-72.5 -22.5t-62.5 -35.5 t-40.5 -52t-16 -70.5zM379 1313q0 69 48.5 111t117.5 42q68 0 117 -42t49 -111q0 -68 -49 -110t-117 -42q-69 0 -117.5 42t-48.5 110zM475 1313q0 -29 19.5 -48.5t50.5 -19.5t50 19.5t19 48.5q0 32 -19 51.5t-50 19.5t-50.5 -19.5t-19.5 -51.5z" />
<glyph unicode="&#xe6;" horiz-adv-x="1777" d="M76 291q0 68 24 123t60.5 90.5t92.5 62t107.5 40t118.5 21t113 9.5t102 2h51v18q0 135 -54.5 190.5t-174.5 55.5q-23 0 -48.5 -3t-55 -11t-48 -25t-18.5 -41v-59h-186v102q0 53 33.5 93t88.5 61t114 31t122 10q147 0 230 -46.5t122 -135.5h4q123 182 369 182 q137 0 238.5 -65t151.5 -171.5t50 -238.5l-4 -92h-741q9 -165 104 -256t240 -91q50 0 99.5 12.5t84.5 30.5t63 35.5t42 30.5l14 12l86 -141q-6 -6 -18 -16.5t-51.5 -36.5t-83 -46t-110.5 -36.5t-136 -16.5q-154 0 -269 68.5t-178 192.5h-4q-7 -21 -21.5 -48t-47 -66.5 t-74 -70.5t-107 -53.5t-141.5 -22.5q-149 0 -251.5 85.5t-102.5 230.5zM279 301q0 -69 50.5 -117.5t143.5 -48.5q81 0 145.5 51.5t97 126.5t32.5 154v27h-97q-372 0 -372 -193zM946 639h537q-4 124 -74 194t-170 70q-115 0 -193.5 -69t-99.5 -195z" />
<glyph unicode="&#xe7;" horiz-adv-x="1091" d="M74 518q0 152 69 275.5t197 195.5t291 72q53 0 112 -11.5t120.5 -35.5t101 -71t39.5 -109v-107h-181v57q0 35 -33 60.5t-75.5 36t-83.5 10.5q-153 0 -254 -104t-101 -267q0 -170 106.5 -269t258.5 -99q55 0 108 14.5t90 35.5t66 42.5t43 35.5l15 15l86 -141 q-6 -7 -17.5 -19t-51.5 -42.5t-85 -54t-117 -43t-149 -20.5l-17 -77q66 -8 107 -47t41 -103q0 -88 -60.5 -130t-148.5 -42q-29 0 -58 3.5t-43 6.5l-14 4v119q41 -14 88 -14q97 0 97 63q0 31 -29 47.5t-78 16.5l-37 -2l41 166q-198 32 -321 178.5t-123 353.5z" />
<glyph unicode="&#xe8;" horiz-adv-x="1130" d="M74 518q0 121 40 223.5t109.5 172t165 108.5t205.5 39q210 0 328 -138t118 -348l-6 -81h-755q9 -160 110.5 -253.5t245.5 -93.5q50 0 99.5 12.5t84.5 30.5t63 35.5t42 30.5l14 12l86 -141q-6 -6 -18 -16.5t-51.5 -36.5t-83 -46t-110.5 -36.5t-136 -16.5q-243 0 -397 155 t-154 388zM287 639h549q-4 124 -73.5 194t-170.5 70q-117 0 -199.5 -69t-105.5 -195zM311 1446h201l150 -260h-156z" />
<glyph unicode="&#xe9;" horiz-adv-x="1130" d="M74 518q0 121 40 223.5t109.5 172t165 108.5t205.5 39q210 0 328 -138t118 -348l-6 -81h-755q9 -160 110.5 -253.5t245.5 -93.5q50 0 99.5 12.5t84.5 30.5t63 35.5t42 30.5l14 12l86 -141q-6 -6 -18 -16.5t-51.5 -36.5t-83 -46t-110.5 -36.5t-136 -16.5q-243 0 -397 155 t-154 388zM287 639h549q-4 124 -73.5 194t-170.5 70q-117 0 -199.5 -69t-105.5 -195zM508 1186l149 260h201l-194 -260h-156z" />
<glyph unicode="&#xea;" horiz-adv-x="1130" d="M74 518q0 121 40 223.5t109.5 172t165 108.5t205.5 39q210 0 328 -138t118 -348l-6 -81h-755q9 -160 110.5 -253.5t245.5 -93.5q50 0 99.5 12.5t84.5 30.5t63 35.5t42 30.5l14 12l86 -141q-6 -6 -18 -16.5t-51.5 -36.5t-83 -46t-110.5 -36.5t-136 -16.5q-243 0 -397 155 t-154 388zM287 639h549q-4 124 -73.5 194t-170.5 70q-117 0 -199.5 -69t-105.5 -195zM317 1186l179 260h182l180 -260h-162l-106 164h-4l-109 -164h-160z" />
<glyph unicode="&#xeb;" horiz-adv-x="1130" d="M74 518q0 121 40 223.5t109.5 172t165 108.5t205.5 39q210 0 328 -138t118 -348l-6 -81h-755q9 -160 110.5 -253.5t245.5 -93.5q50 0 99.5 12.5t84.5 30.5t63 35.5t42 30.5l14 12l86 -141q-6 -6 -18 -16.5t-51.5 -36.5t-83 -46t-110.5 -36.5t-136 -16.5q-243 0 -397 155 t-154 388zM287 639h549q-4 124 -73.5 194t-170.5 70q-117 0 -199.5 -69t-105.5 -195zM344 1239v207h152v-207h-152zM682 1239v207h149v-207h-149z" />
<glyph unicode="&#xec;" horiz-adv-x="567" d="M-6 1446h201l149 -260h-156zM55 866v170h197q69 0 100 -31t31 -100v-690q0 -45 45 -45h84v-170h-195q-70 0 -101.5 31t-31.5 100v690q0 45 -45 45h-84z" />
<glyph unicode="&#xed;" horiz-adv-x="567" d="M55 866v170h197q69 0 100 -31t31 -100v-690q0 -45 45 -45h84v-170h-195q-70 0 -101.5 31t-31.5 100v690q0 45 -45 45h-84zM188 1186l150 260h201l-195 -260h-156z" />
<glyph unicode="&#xee;" horiz-adv-x="567" d="M-2 1186l180 260h182l181 -260h-164l-107 166h-4l-106 -166h-162zM55 866v170h197q69 0 100 -31t31 -100v-690q0 -45 45 -45h84v-170h-195q-70 0 -101.5 31t-31.5 100v690q0 45 -45 45h-84z" />
<glyph unicode="&#xef;" horiz-adv-x="567" d="M47 1239v207h150v-207h-150zM55 866v170h197q69 0 100 -31t31 -100v-690q0 -45 45 -45h84v-170h-195q-70 0 -101.5 31t-31.5 100v690q0 45 -45 45h-84zM332 1239v207h151v-207h-151z" />
<glyph unicode="&#xf0;" horiz-adv-x="1177" d="M78 481q0 92 32 176t91.5 151t153.5 106.5t208 39.5q46 0 89 -9t71 -21.5t50 -25t32 -21.5l10 -9h4q-61 163 -223 273l-371 -164l-20 127l254 113q-127 64 -264 94l55 162q240 -55 424 -164l284 125l19 -125l-189 -86q137 -114 216 -280t79 -380q0 -86 -18 -167.5 t-58 -158.5t-99 -134.5t-148 -92.5t-197 -35q-113 0 -206.5 43t-153.5 114.5t-92.5 161.5t-32.5 187zM279 477q0 -135 76.5 -232.5t211.5 -97.5q80 0 142.5 34.5t98.5 90.5t54.5 121.5t18.5 134.5q0 117 -79.5 192t-209.5 75q-150 0 -231.5 -93.5t-81.5 -224.5z" />
<glyph unicode="&#xf1;" horiz-adv-x="1282" d="M45 866v170h191q131 0 131 -114v-39l-5 -60h5q17 38 47.5 76t77 76t115.5 62t149 24q183 0 269.5 -98.5t86.5 -298.5v-449q0 -45 45 -45h84v-170h-197q-69 0 -100 31t-31 100v487q0 60 -7.5 103t-27 81t-59.5 57.5t-100 19.5q-155 0 -250.5 -109.5t-95.5 -284.5v-485 h-199v821q0 45 -45 45h-84zM313 1188q0 260 211 260q39 0 72 -14.5t56 -35t43 -40.5t43.5 -34.5t47.5 -14.5q42 0 62 40.5t20 92.5h136q0 -128 -53.5 -194t-157.5 -66q-38 0 -71 14.5t-56 35t-44 40.5t-44 34.5t-48 14.5q-42 0 -61.5 -39.5t-19.5 -93.5h-136z" />
<glyph unicode="&#xf2;" horiz-adv-x="1263" d="M74 520q0 153 74.5 277.5t202 194t280.5 69.5q115 0 217.5 -41t178 -112t119.5 -172t44 -216q0 -154 -75 -279.5t-203 -195.5t-281 -70t-280.5 70t-202 195.5t-74.5 279.5zM276 520q0 -161 103.5 -267t251.5 -106q150 0 253 106t103 267q0 159 -103 264t-253 105 q-148 0 -251.5 -105t-103.5 -264zM356 1446h201l150 -260h-156z" />
<glyph unicode="&#xf3;" horiz-adv-x="1263" d="M74 520q0 153 74.5 277.5t202 194t280.5 69.5q115 0 217.5 -41t178 -112t119.5 -172t44 -216q0 -154 -75 -279.5t-203 -195.5t-281 -70t-280.5 70t-202 195.5t-74.5 279.5zM276 520q0 -161 103.5 -267t251.5 -106q150 0 253 106t103 267q0 159 -103 264t-253 105 q-148 0 -251.5 -105t-103.5 -264zM551 1186l149 260h201l-194 -260h-156z" />
<glyph unicode="&#xf4;" horiz-adv-x="1263" d="M74 520q0 153 74.5 277.5t202 194t280.5 69.5q115 0 217.5 -41t178 -112t119.5 -172t44 -216q0 -154 -75 -279.5t-203 -195.5t-281 -70t-280.5 70t-202 195.5t-74.5 279.5zM276 520q0 -161 103.5 -267t251.5 -106q150 0 253 106t103 267q0 159 -103 264t-253 105 q-148 0 -251.5 -105t-103.5 -264zM362 1186l179 260h182l180 -260h-162l-106 164h-4l-109 -164h-160z" />
<glyph unicode="&#xf5;" horiz-adv-x="1263" d="M74 520q0 153 74.5 277.5t202 194t280.5 69.5q115 0 217.5 -41t178 -112t119.5 -172t44 -216q0 -154 -75 -279.5t-203 -195.5t-281 -70t-280.5 70t-202 195.5t-74.5 279.5zM276 520q0 -161 103.5 -267t251.5 -106q150 0 253 106t103 267q0 159 -103 264t-253 105 q-148 0 -251.5 -105t-103.5 -264zM285 1188q0 260 211 260q39 0 72 -14.5t56 -35t43 -40.5t43.5 -34.5t47.5 -14.5q42 0 62 40.5t20 92.5h135q0 -128 -53.5 -194t-157.5 -66q-38 0 -71 14.5t-56 35t-43.5 40.5t-43.5 34.5t-48 14.5q-42 0 -62 -40t-20 -93h-135z" />
<glyph unicode="&#xf6;" horiz-adv-x="1263" d="M74 520q0 153 74.5 277.5t202 194t280.5 69.5q115 0 217.5 -41t178 -112t119.5 -172t44 -216q0 -154 -75 -279.5t-203 -195.5t-281 -70t-280.5 70t-202 195.5t-74.5 279.5zM276 520q0 -161 103.5 -267t251.5 -106q150 0 253 106t103 267q0 159 -103 264t-253 105 q-148 0 -251.5 -105t-103.5 -264zM389 1239v207h152v-207h-152zM727 1239v207h150v-207h-150z" />
<glyph unicode="&#xf7;" d="M98 504v160h1035v-160h-1035zM518 90v186h193v-186h-193zM518 891v186h193v-186h-193z" />
<glyph unicode="&#xf8;" horiz-adv-x="1263" d="M74 520q0 153 74.5 277.5t202 194t280.5 69.5q150 0 278 -70l82 115l96 -70l-79 -110q86 -76 134 -180t48 -226q0 -154 -75 -279.5t-203 -195.5t-281 -70q-142 0 -260 62l-80 -115l-98 72l77 106q-92 73 -144 182t-52 238zM276 520q0 -158 105 -266l422 590 q-79 45 -172 45q-148 0 -251.5 -105t-103.5 -264zM477 184q70 -37 154 -37q150 0 253 106t103 267q0 149 -94 246z" />
<glyph unicode="&#xf9;" horiz-adv-x="1271" d="M41 866v170h195q70 0 101.5 -30.5t31.5 -96.5v-491q0 -59 7.5 -101.5t27 -80t59 -57t98.5 -19.5q103 0 181.5 55.5t117.5 143.5t39 192v485h199v-821q0 -45 45 -45h84v-170h-191q-131 0 -131 115v39l2 59h-4q-24 -56 -71.5 -107.5t-130.5 -91t-179 -39.5 q-177 0 -264.5 97t-87.5 301v448q0 45 -45 45h-84zM348 1446h201l149 -260h-155z" />
<glyph unicode="&#xfa;" horiz-adv-x="1271" d="M41 866v170h195q70 0 101.5 -30.5t31.5 -96.5v-491q0 -59 7.5 -101.5t27 -80t59 -57t98.5 -19.5q103 0 181.5 55.5t117.5 143.5t39 192v485h199v-821q0 -45 45 -45h84v-170h-191q-131 0 -131 115v39l2 59h-4q-24 -56 -71.5 -107.5t-130.5 -91t-179 -39.5 q-177 0 -264.5 97t-87.5 301v448q0 45 -45 45h-84zM543 1186l149 260h201l-195 -260h-155z" />
<glyph unicode="&#xfb;" horiz-adv-x="1271" d="M41 866v170h195q70 0 101.5 -30.5t31.5 -96.5v-491q0 -59 7.5 -101.5t27 -80t59 -57t98.5 -19.5q103 0 181.5 55.5t117.5 143.5t39 192v485h199v-821q0 -45 45 -45h84v-170h-191q-131 0 -131 115v39l2 59h-4q-24 -56 -71.5 -107.5t-130.5 -91t-179 -39.5 q-177 0 -264.5 97t-87.5 301v448q0 45 -45 45h-84zM352 1186l178 260h183l180 -260h-162l-106 164h-4l-109 -164h-160z" />
<glyph unicode="&#xfc;" horiz-adv-x="1271" d="M41 866v170h195q70 0 101.5 -30.5t31.5 -96.5v-491q0 -59 7.5 -101.5t27 -80t59 -57t98.5 -19.5q103 0 181.5 55.5t117.5 143.5t39 192v485h199v-821q0 -45 45 -45h84v-170h-191q-131 0 -131 115v39l2 59h-4q-24 -56 -71.5 -107.5t-130.5 -91t-179 -39.5 q-177 0 -264.5 97t-87.5 301v448q0 45 -45 45h-84zM379 1239v207h151v-207h-151zM717 1239v207h149v-207h-149z" />
<glyph unicode="&#xfd;" horiz-adv-x="1118" d="M10 -328l82 144q0 -3 18.5 -20t56.5 -35.5t77 -18.5q59 0 105.5 39t76.5 110l47 113l-354 821q-10 24 -25 32.5t-41 8.5h-24v170h116q63 0 93 -21t55 -83l235 -584q9 -24 18 -55t14 -51l5 -19h4q15 72 35 125l215 584q23 61 55.5 82.5t96.5 21.5h119v-170h-27 q-26 0 -41 -8.5t-25 -32.5l-409 -1011q-46 -118 -134.5 -181t-199.5 -63q-43 0 -84 10.5t-69 25.5t-49.5 30t-31.5 26zM479 1186l150 260h200l-194 -260h-156z" />
<glyph unicode="&#xfe;" horiz-adv-x="1230" d="M39 1276v170h197q69 0 100 -31t31 -100v-334l-5 -90h5q98 170 325 170q211 0 337 -151t126 -392q0 -240 -126 -391.5t-337 -151.5q-68 0 -127 17t-93.5 41.5t-59.5 49t-35 41.5l-10 17h-5q5 -37 5 -90v-461h-199v1641q0 45 -45 45h-84zM360 518q0 -98 25 -172t68 -116 t95.5 -62.5t113.5 -20.5q131 0 210.5 103t79.5 268t-79.5 268t-210.5 103q-63 0 -116 -20.5t-95.5 -62.5t-66.5 -115.5t-24 -172.5z" />
<glyph unicode="&#xff;" horiz-adv-x="1118" d="M10 -328l82 144q0 -3 18.5 -20t56.5 -35.5t77 -18.5q59 0 105.5 39t76.5 110l47 113l-354 821q-10 24 -25 32.5t-41 8.5h-24v170h116q63 0 93 -21t55 -83l235 -584q9 -24 18 -55t14 -51l5 -19h4q15 72 35 125l215 584q23 61 55.5 82.5t96.5 21.5h119v-170h-27 q-26 0 -41 -8.5t-25 -32.5l-409 -1011q-46 -118 -134.5 -181t-199.5 -63q-43 0 -84 10.5t-69 25.5t-49.5 30t-31.5 26zM315 1239v207h152v-207h-152zM653 1239v207h150v-207h-150z" />
<glyph unicode="&#x100;" horiz-adv-x="1361" d="M25 0v176h28q29 0 44 9t24 36l452 1225h215l453 -1225q9 -26 24.5 -35.5t43.5 -9.5h30v-176h-114q-76 0 -109.5 24t-58.5 95l-109 297h-532l-109 -297q-26 -71 -60 -95t-110 -24h-112zM422 1606v139h520v-139h-520zM465 588h432l-158 440q-12 34 -26.5 84.5t-22.5 84.5 l-8 34h-4q-28 -127 -55 -203z" />
<glyph unicode="&#x101;" horiz-adv-x="1114" d="M76 291q0 69 26 124.5t66.5 92t99 63t113 40.5t120.5 22t109 10t90 2h45v10q0 135 -53 191.5t-176 56.5q-23 0 -48 -3t-54.5 -11t-48.5 -25t-19 -41v-59h-186v102q0 59 40 101t103 60.5t115 26t100 7.5q122 0 207.5 -30.5t132 -87.5t66.5 -127t20 -161v-440q0 -45 45 -45 h84v-170h-186q-129 0 -129 119l4 61h-4q-3 -8 -10 -22t-34.5 -49.5t-62 -62.5t-94.5 -49t-129 -22q-143 0 -247.5 84.5t-104.5 231.5zM276 301q0 -68 51 -117t144 -49q80 0 145 51t98.5 125.5t33.5 153.5v35h-52q-40 0 -71 -1t-77 -5.5t-80.5 -12t-72.5 -22.5t-62.5 -35.5 t-40.5 -52t-16 -70.5zM285 1245v139h520v-139h-520z" />
<glyph unicode="&#x102;" horiz-adv-x="1361" d="M25 0v176h28q29 0 44 9t24 36l452 1225h215l453 -1225q9 -26 24.5 -35.5t43.5 -9.5h30v-176h-114q-76 0 -109.5 24t-58.5 95l-109 297h-532l-109 -297q-26 -71 -60 -95t-110 -24h-112zM420 1778v28h137v-26q0 -60 36.5 -91.5t88.5 -31.5t89.5 31.5t37.5 93.5v24h135v-28 q0 -112 -78 -176t-184 -64q-105 0 -183.5 64t-78.5 176zM465 588h432l-158 440q-12 34 -26.5 84.5t-22.5 84.5l-8 34h-4q-28 -127 -55 -203z" />
<glyph unicode="&#x103;" horiz-adv-x="1114" d="M76 291q0 69 26 124.5t66.5 92t99 63t113 40.5t120.5 22t109 10t90 2h45v10q0 135 -53 191.5t-176 56.5q-23 0 -48 -3t-54.5 -11t-48.5 -25t-19 -41v-59h-186v102q0 59 40 101t103 60.5t115 26t100 7.5q122 0 207.5 -30.5t132 -87.5t66.5 -127t20 -161v-440q0 -45 45 -45 h84v-170h-186q-129 0 -129 119l4 61h-4q-3 -8 -10 -22t-34.5 -49.5t-62 -62.5t-94.5 -49t-129 -22q-143 0 -247.5 84.5t-104.5 231.5zM276 301q0 -68 51 -117t144 -49q80 0 145 51t98.5 125.5t33.5 153.5v35h-52q-40 0 -71 -1t-77 -5.5t-80.5 -12t-72.5 -22.5t-62.5 -35.5 t-40.5 -52t-16 -70.5zM281 1417v29h137v-27q0 -60 36.5 -91.5t88.5 -31.5t89.5 31.5t37.5 93.5v25h135v-29q0 -112 -78 -175.5t-184 -63.5q-105 0 -183.5 63.5t-78.5 175.5z" />
<glyph unicode="&#x104;" horiz-adv-x="1361" d="M25 0v176h28q29 0 44 9t24 36l452 1225h215l453 -1225q9 -26 24.5 -35.5t43.5 -9.5h30v-176q-131 -107 -131 -182q0 -22 11.5 -39t28 -26t33.5 -14.5t29 -6.5l11 -2l-47 -154q-5 0 -13.5 1.5t-33.5 6.5t-47.5 13t-49.5 23.5t-47 35t-33.5 49.5t-13.5 66q0 125 140 231v4 q-50 6 -74 30t-45 83l-109 297h-532l-109 -297q-26 -71 -60 -95t-110 -24h-112zM465 588h432l-158 440q-12 34 -26.5 84.5t-22.5 84.5l-8 34h-4q-28 -127 -55 -203z" />
<glyph unicode="&#x105;" horiz-adv-x="1114" d="M76 291q0 69 26 124.5t66.5 92t99.5 63t113 40.5t120.5 22t109.5 10t91 2h43v10q0 135 -53 191.5t-176 56.5q-23 0 -49 -3.5t-54.5 -11.5t-47.5 -25t-19 -40v-59h-186v102q0 48 28 84.5t68.5 57t93 33t92.5 16.5t76 4q122 0 207.5 -30.5t132 -87.5t66.5 -127t20 -161 v-440q0 -45 45 -45h84v-170q-34 -29 -55 -48.5t-48.5 -60t-27.5 -73.5q0 -22 11.5 -39t28 -26t33.5 -14.5t29 -6.5l11 -2l-45 -154q-5 0 -13.5 1.5t-33.5 6.5t-47.5 13t-50.5 23.5t-48 35t-33.5 49.5t-13.5 66q0 118 135 225v4h-35q-60 0 -86 33t-26 80v10l4 57h-4 q-3 -8 -10 -22t-34.5 -49.5t-62 -62.5t-96 -49t-133.5 -22q-143 0 -244.5 88.5t-101.5 227.5zM276 301q0 -68 51 -117t144 -49q80 0 145 51t98.5 125.5t33.5 153.5v35h-52q-40 0 -71 -1t-77 -5.5t-80.5 -12t-72.5 -22.5t-62.5 -35.5t-40.5 -52t-16 -70.5z" />
<glyph unicode="&#x106;" horiz-adv-x="1435" d="M70 735q0 154 55.5 290.5t151.5 234t230.5 154t287.5 56.5q62 0 131.5 -10t143.5 -34t132.5 -58.5t96.5 -89.5t38 -121v-141h-188v82q0 57 -58.5 100t-136.5 62.5t-155 19.5q-221 0 -368.5 -152t-147.5 -393q0 -155 68.5 -285.5t188.5 -206t265 -75.5q59 0 115.5 11 t100.5 28t84 38t68 42.5t48.5 38.5t30.5 28l10 11l110 -148q-8 -10 -24 -26t-71 -58t-116 -74t-158.5 -58t-199.5 -26q-159 0 -296.5 59t-232.5 161t-149.5 242t-54.5 298zM707 1546l149 260h201l-195 -260h-155z" />
<glyph unicode="&#x107;" horiz-adv-x="1091" d="M74 518q0 152 69 275.5t197 195.5t291 72q53 0 112 -11.5t120.5 -35.5t101 -71t39.5 -109v-107h-181v57q0 35 -33 60.5t-75.5 36t-83.5 10.5q-153 0 -254 -104t-101 -267q0 -170 106.5 -269t258.5 -99q55 0 108 14.5t90 35.5t66 42.5t43 35.5l15 15l86 -141 q-6 -7 -17.5 -19t-52 -43t-85.5 -54.5t-117.5 -43t-149.5 -19.5q-243 0 -398 154t-155 389zM516 1186l150 260h200l-194 -260h-156z" />
<glyph unicode="&#x108;" horiz-adv-x="1435" d="M70 735q0 154 55.5 290.5t151.5 234t230.5 154t287.5 56.5q62 0 131.5 -10t143.5 -34t132.5 -58.5t96.5 -89.5t38 -121v-141h-188v82q0 57 -58.5 100t-136.5 62.5t-155 19.5q-221 0 -368.5 -152t-147.5 -393q0 -155 68.5 -285.5t188.5 -206t265 -75.5q59 0 115.5 11 t100.5 28t84 38t68 42.5t48.5 38.5t30.5 28l10 11l110 -148q-8 -10 -24 -26t-71 -58t-116 -74t-158.5 -58t-199.5 -26q-159 0 -296.5 59t-232.5 161t-149.5 242t-54.5 298zM518 1546l178 260h183l180 -260h-162l-106 164h-5l-108 -164h-160z" />
<glyph unicode="&#x109;" horiz-adv-x="1091" d="M74 518q0 152 69 275.5t197 195.5t291 72q53 0 112 -11.5t120.5 -35.5t101 -71t39.5 -109v-107h-181v57q0 35 -33 60.5t-75.5 36t-83.5 10.5q-153 0 -254 -104t-101 -267q0 -170 106.5 -269t258.5 -99q55 0 108 14.5t90 35.5t66 42.5t43 35.5l15 15l86 -141 q-6 -7 -17.5 -19t-52 -43t-85.5 -54.5t-117.5 -43t-149.5 -19.5q-243 0 -398 154t-155 389zM328 1186l178 260h182l180 -260h-161l-107 164h-4l-109 -164h-159z" />
<glyph unicode="&#x10a;" horiz-adv-x="1435" d="M70 735q0 154 55.5 290.5t151.5 234t230.5 154t287.5 56.5q62 0 131.5 -10t143.5 -34t132.5 -58.5t96.5 -89.5t38 -121v-141h-188v82q0 57 -58.5 100t-136.5 62.5t-155 19.5q-221 0 -368.5 -152t-147.5 -393q0 -155 68.5 -285.5t188.5 -206t265 -75.5q59 0 115.5 11 t100.5 28t84 38t68 42.5t48.5 38.5t30.5 28l10 11l110 -148q-8 -10 -24 -26t-71 -58t-116 -74t-158.5 -58t-199.5 -26q-159 0 -296.5 59t-232.5 161t-149.5 242t-54.5 298zM698 1599v207h179v-207h-179z" />
<glyph unicode="&#x10b;" horiz-adv-x="1091" d="M74 518q0 152 69 275.5t197 195.5t291 72q53 0 112 -11.5t120.5 -35.5t101 -71t39.5 -109v-107h-181v57q0 35 -33 60.5t-75.5 36t-83.5 10.5q-153 0 -254 -104t-101 -267q0 -170 106.5 -269t258.5 -99q55 0 108 14.5t90 35.5t66 42.5t43 35.5l15 15l86 -141 q-6 -7 -17.5 -19t-52 -43t-85.5 -54.5t-117.5 -43t-149.5 -19.5q-243 0 -398 154t-155 389zM508 1239v207h178v-207h-178z" />
<glyph unicode="&#x10c;" horiz-adv-x="1435" d="M70 735q0 154 55.5 290.5t151.5 234t230.5 154t287.5 56.5q62 0 131.5 -10t143.5 -34t132.5 -58.5t96.5 -89.5t38 -121v-141h-188v82q0 57 -58.5 100t-136.5 62.5t-155 19.5q-221 0 -368.5 -152t-147.5 -393q0 -155 68.5 -285.5t188.5 -206t265 -75.5q59 0 115.5 11 t100.5 28t84 38t68 42.5t48.5 38.5t30.5 28l10 11l110 -148q-8 -10 -24 -26t-71 -58t-116 -74t-158.5 -58t-199.5 -26q-159 0 -296.5 59t-232.5 161t-149.5 242t-54.5 298zM516 1806h162l106 -166h4l107 166h164l-180 -260h-183z" />
<glyph unicode="&#x10d;" horiz-adv-x="1091" d="M74 518q0 152 69 275.5t197 195.5t291 72q53 0 112 -11.5t120.5 -35.5t101 -71t39.5 -109v-107h-181v57q0 35 -33 60.5t-75.5 36t-83.5 10.5q-153 0 -254 -104t-101 -267q0 -170 106.5 -269t258.5 -99q55 0 108 14.5t90 35.5t66 42.5t43 35.5l15 15l86 -141 q-6 -7 -17.5 -19t-52 -43t-85.5 -54.5t-117.5 -43t-149.5 -19.5q-243 0 -398 154t-155 389zM326 1446h161l107 -166h4l107 166h163l-180 -260h-182z" />
<glyph unicode="&#x10e;" horiz-adv-x="1464" d="M78 1270v176h586q334 0 532.5 -191t198.5 -530q0 -340 -198.5 -532.5t-532.5 -192.5h-322q-69 0 -100 31t-31 100v1139h-133zM416 221q0 -45 45 -45h188q246 0 389.5 143t143.5 406q0 261 -144.5 403t-388.5 142h-233v-1049zM430 1806h162l106 -166h4l107 166h164 l-180 -260h-183z" />
<glyph unicode="&#x10f;" horiz-adv-x="1415" d="M76 518q0 245 131 394t338 149q67 0 124.5 -16.5t92 -40t59 -47t33.5 -39.5l10 -17h4q-4 31 -4 70v260q0 45 -45 45h-84v170h197q69 0 100 -31t31 -100v-1100q0 -45 45 -45h84v-170h-191q-127 0 -127 111l3 53h-5q-4 -8 -11 -20.5t-35.5 -45t-64 -57.5t-97 -45.5 t-132.5 -20.5q-209 0 -332.5 149.5t-123.5 393.5zM279 518q0 -168 81 -269.5t211 -101.5q60 0 112 21.5t95 65t67.5 117.5t24.5 169q0 96 -31 177.5t-100 136.5t-164 55q-126 0 -211 -100t-85 -271zM1159 1157q39 98 39 168q0 59 -22 121h161q13 -60 13 -100q0 -83 -50 -189 h-141z" />
<glyph unicode="&#x110;" horiz-adv-x="1464" d="M78 1270v176h586q334 0 532.5 -191t198.5 -530q0 -340 -198.5 -532.5t-532.5 -192.5h-322q-69 0 -100 31t-31 100v508h-100v168h100v463h-133zM416 221q0 -45 45 -45h188q246 0 389.5 143t143.5 406q0 261 -144.5 403t-388.5 142h-233v-463h295v-168h-295v-418z" />
<glyph unicode="&#x111;" horiz-adv-x="1241" d="M76 518q0 245 131 394t338 149q67 0 124.5 -16.5t92 -40t59 -47t33.5 -39.5l10 -17h4q-4 31 -4 70v182h-264v129h264v164h199v-164h158v-129h-158v-938q0 -45 45 -45h84v-170h-191q-127 0 -127 111l3 53h-5q-4 -8 -11 -20.5t-35.5 -45t-64 -57.5t-97 -45.5t-132.5 -20.5 q-209 0 -332.5 149.5t-123.5 393.5zM279 518q0 -168 81 -269.5t211 -101.5q60 0 112 21.5t95 65t67.5 117.5t24.5 169q0 96 -31 177.5t-100 136.5t-164 55q-126 0 -211 -100t-85 -271z" />
<glyph unicode="&#x112;" horiz-adv-x="1163" d="M78 1270v176h850q69 0 100 -31t31 -100v-182h-187v92q0 45 -45 45h-411v-453h506v-176h-506v-420q0 -45 45 -45h422q45 0 45 45v92h188v-182q0 -69 -31 -100t-100 -31h-643q-69 0 -100 31t-31 100v1139h-133zM346 1606v139h520v-139h-520z" />
<glyph unicode="&#x113;" horiz-adv-x="1130" d="M74 518q0 121 40 223.5t109.5 172t165 108.5t205.5 39q210 0 328 -138t118 -348l-6 -81h-755q9 -160 110.5 -253.5t245.5 -93.5q50 0 99.5 12.5t84.5 30.5t63 35.5t42 30.5l14 12l86 -141q-6 -6 -18 -16.5t-51.5 -36.5t-83 -46t-110.5 -36.5t-136 -16.5q-243 0 -397 155 t-154 388zM287 639h549q-4 124 -73.5 194t-170.5 70q-117 0 -199.5 -69t-105.5 -195zM328 1245v139h520v-139h-520z" />
<glyph unicode="&#x114;" horiz-adv-x="1163" d="M78 1270v176h850q69 0 100 -31t31 -100v-182h-187v92q0 45 -45 45h-411v-453h506v-176h-506v-420q0 -45 45 -45h422q45 0 45 45v92h188v-182q0 -69 -31 -100t-100 -31h-643q-69 0 -100 31t-31 100v1139h-133zM342 1778v28h137v-26q0 -60 36.5 -91.5t88.5 -31.5t89.5 31.5 t37.5 93.5v24h135v-28q0 -112 -78 -176t-184 -64q-105 0 -183.5 64t-78.5 176z" />
<glyph unicode="&#x115;" horiz-adv-x="1130" d="M74 518q0 121 40 223.5t109.5 172t165 108.5t205.5 39q210 0 328 -138t118 -348l-6 -81h-755q9 -160 110.5 -253.5t245.5 -93.5q50 0 99.5 12.5t84.5 30.5t63 35.5t42 30.5l14 12l86 -141q-6 -6 -18 -16.5t-51.5 -36.5t-83 -46t-110.5 -36.5t-136 -16.5q-243 0 -397 155 t-154 388zM287 639h549q-4 124 -73.5 194t-170.5 70q-117 0 -199.5 -69t-105.5 -195zM326 1417v29h137v-27q0 -60 36.5 -91.5t88.5 -31.5t89.5 31.5t37.5 93.5v25h135v-29q0 -112 -78 -175.5t-184 -63.5q-105 0 -183.5 63.5t-78.5 175.5z" />
<glyph unicode="&#x116;" horiz-adv-x="1163" d="M78 1270v176h850q69 0 100 -31t31 -100v-182h-187v92q0 45 -45 45h-411v-453h506v-176h-506v-420q0 -45 45 -45h422q45 0 45 45v92h188v-182q0 -69 -31 -100t-100 -31h-643q-69 0 -100 31t-31 100v1139h-133zM516 1599v207h178v-207h-178z" />
<glyph unicode="&#x117;" horiz-adv-x="1130" d="M74 518q0 121 40 223.5t109.5 172t165 108.5t205.5 39q210 0 328 -138t118 -348l-6 -81h-755q9 -160 110.5 -253.5t245.5 -93.5q50 0 99.5 12.5t84.5 30.5t63 35.5t42 30.5l14 12l86 -141q-6 -6 -18 -16.5t-51.5 -36.5t-83 -46t-110.5 -36.5t-136 -16.5q-243 0 -397 155 t-154 388zM287 639h549q-4 124 -73.5 194t-170.5 70q-117 0 -199.5 -69t-105.5 -195zM498 1239v207h178v-207h-178z" />
<glyph unicode="&#x118;" horiz-adv-x="1163" d="M78 1270v176h850q69 0 100 -31t31 -100v-182h-187v92q0 45 -45 45h-411v-453h506v-176h-506v-420q0 -45 45 -45h422q45 0 45 45v92h188v-182q0 -42 -10.5 -67.5t-36.5 -47.5q-7 -6 -31.5 -26.5t-36 -31t-31.5 -31t-29.5 -35t-17.5 -35t-8 -39.5q0 -35 28.5 -57t56.5 -27 l28 -4l-45 -154q-5 0 -13.5 1.5t-33.5 6.5t-47.5 13t-50.5 23.5t-48 35t-33.5 49.5t-13.5 66q0 118 134 225v4h-535q-69 0 -100 31t-31 100v1139h-133z" />
<glyph unicode="&#x119;" horiz-adv-x="1130" d="M74 518q0 121 40 223.5t109.5 172t165 108.5t205.5 39q210 0 328 -138t118 -348l-6 -81h-755q9 -160 110.5 -253.5t245.5 -93.5q50 0 99.5 12.5t84.5 30.5t63 35.5t42 30.5l14 12l86 -141q-21 -20 -74.5 -60.5t-93 -72t-73 -80t-33.5 -96.5q0 -22 11.5 -39t28.5 -26 t34 -14.5t28 -6.5l12 -2l-47 -154q-5 0 -13.5 1.5t-33 6.5t-47 13t-50 23.5t-47 35t-33 49.5t-13.5 66q0 104 114 206v5q-40 -7 -69 -7q-243 0 -397 155t-154 388zM287 639h549q-6 125 -74 194.5t-170 69.5q-117 0 -199.5 -69t-105.5 -195z" />
<glyph unicode="&#x11a;" horiz-adv-x="1163" d="M78 1270v176h850q69 0 100 -31t31 -100v-182h-187v92q0 45 -45 45h-411v-453h506v-176h-506v-420q0 -45 45 -45h422q45 0 45 45v92h188v-182q0 -69 -31 -100t-100 -31h-643q-69 0 -100 31t-31 100v1139h-133zM334 1806h162l106 -166h4l107 166h164l-181 -260h-182z" />
<glyph unicode="&#x11b;" horiz-adv-x="1130" d="M74 518q0 121 40 223.5t109.5 172t165 108.5t205.5 39q210 0 328 -138t118 -348l-6 -81h-755q9 -160 110.5 -253.5t245.5 -93.5q50 0 99.5 12.5t84.5 30.5t63 35.5t42 30.5l14 12l86 -141q-6 -6 -18 -16.5t-51.5 -36.5t-83 -46t-110.5 -36.5t-136 -16.5q-243 0 -397 155 t-154 388zM287 639h549q-4 124 -73.5 194t-170.5 70q-117 0 -199.5 -69t-105.5 -195zM315 1446h162l107 -166h4l106 166h164l-180 -260h-182z" />
<glyph unicode="&#x11c;" horiz-adv-x="1507" d="M72 729q0 154 56 291t152.5 236t232 156.5t288.5 57.5q97 0 185.5 -18.5t146 -44.5t101.5 -52t64 -45l19 -18l-117 -149q-6 6 -18 15t-51.5 33t-82.5 42.5t-109.5 33.5t-133.5 15q-143 0 -262 -70.5t-188.5 -197.5t-69.5 -285q0 -248 150.5 -404.5t373.5 -156.5 q72 0 141 18.5t116 45t83.5 53t54.5 45.5l17 18v146q0 45 -45 45h-89v176h191q69 0 100 -31t31 -100v-584h-180v90l2 62h-4q-7 -7 -19.5 -19t-56 -42.5t-92 -54t-125.5 -42.5t-158 -19q-143 0 -272 55t-224.5 152t-151.5 239.5t-56 307.5zM524 1546l178 260h183l180 -260 h-162l-106 164h-4l-109 -164h-160z" />
<glyph unicode="&#x11d;" horiz-adv-x="1218" d="M76 543q0 150 52.5 266t156.5 184t245 68q72 0 133 -16.5t96 -40.5t60 -48t34 -40l9 -17h4v33q0 104 115 104h193v-170h-82q-45 0 -45 -41v-782q0 -99 -29.5 -180t-79 -134.5t-117.5 -90t-142 -52.5t-155 -16q-182 0 -354 86l68 160q14 -8 39.5 -19.5t99.5 -31t143 -19.5 q146 0 237 70.5t91 218.5v69l4 66h-4q-96 -158 -309 -158q-140 0 -246.5 70.5t-161.5 190.5t-55 270zM279 547q0 -163 80.5 -263t218.5 -100q57 0 104 18.5t87 58t62.5 111.5t22.5 169q0 348 -293 348q-134 0 -208 -91t-74 -251zM346 1186l178 260h183l180 -260h-162 l-107 164h-4l-108 -164h-160z" />
<glyph unicode="&#x11e;" horiz-adv-x="1507" d="M72 729q0 154 56 291t152.5 236t232 156.5t288.5 57.5q97 0 185.5 -18.5t146 -44.5t101.5 -52t64 -45l19 -18l-117 -149q-6 6 -18 15t-51.5 33t-82.5 42.5t-109.5 33.5t-133.5 15q-143 0 -262 -70.5t-188.5 -197.5t-69.5 -285q0 -248 150.5 -404.5t373.5 -156.5 q72 0 141 18.5t116 45t83.5 53t54.5 45.5l17 18v146q0 45 -45 45h-89v176h191q69 0 100 -31t31 -100v-584h-180v90l2 62h-4q-7 -7 -19.5 -19t-56 -42.5t-92 -54t-125.5 -42.5t-158 -19q-143 0 -272 55t-224.5 152t-151.5 239.5t-56 307.5zM532 1778v28h138v-26 q0 -60 36.5 -91.5t88.5 -31.5t89.5 31.5t37.5 93.5v24h135v-28q0 -112 -78 -176t-184 -64q-105 0 -184 64t-79 176z" />
<glyph unicode="&#x11f;" horiz-adv-x="1218" d="M76 543q0 150 52.5 266t156.5 184t245 68q72 0 133 -16.5t96 -40.5t60 -48t34 -40l9 -17h4v33q0 104 115 104h193v-170h-82q-45 0 -45 -41v-782q0 -99 -29.5 -180t-79 -134.5t-117.5 -90t-142 -52.5t-155 -16q-182 0 -354 86l68 160q14 -8 39.5 -19.5t99.5 -31t143 -19.5 q146 0 237 70.5t91 218.5v69l4 66h-4q-96 -158 -309 -158q-140 0 -246.5 70.5t-161.5 190.5t-55 270zM279 547q0 -163 80.5 -263t218.5 -100q57 0 104 18.5t87 58t62.5 111.5t22.5 169q0 348 -293 348q-134 0 -208 -91t-74 -251zM352 1417v29h137v-27q0 -60 36.5 -91.5 t88.5 -31.5t89.5 31.5t37.5 93.5v25h136v-29q0 -112 -78.5 -175.5t-184.5 -63.5q-105 0 -183.5 63.5t-78.5 175.5z" />
<glyph unicode="&#x120;" horiz-adv-x="1507" d="M72 729q0 154 56 291t152.5 236t232 156.5t288.5 57.5q97 0 185.5 -18.5t146 -44.5t101.5 -52t64 -45l19 -18l-117 -149q-6 6 -18 15t-51.5 33t-82.5 42.5t-109.5 33.5t-133.5 15q-143 0 -262 -70.5t-188.5 -197.5t-69.5 -285q0 -248 150.5 -404.5t373.5 -156.5 q72 0 141 18.5t116 45t83.5 53t54.5 45.5l17 18v146q0 45 -45 45h-89v176h191q69 0 100 -31t31 -100v-584h-180v90l2 62h-4q-7 -7 -19.5 -19t-56 -42.5t-92 -54t-125.5 -42.5t-158 -19q-143 0 -272 55t-224.5 152t-151.5 239.5t-56 307.5zM705 1599v207h178v-207h-178z" />
<glyph unicode="&#x121;" horiz-adv-x="1218" d="M76 543q0 150 52.5 266t156.5 184t245 68q72 0 133 -16.5t96 -40.5t60 -48t34 -40l9 -17h4v33q0 104 115 104h193v-170h-82q-45 0 -45 -41v-782q0 -99 -29.5 -180t-79 -134.5t-117.5 -90t-142 -52.5t-155 -16q-182 0 -354 86l68 160q14 -8 39.5 -19.5t99.5 -31t143 -19.5 q146 0 237 70.5t91 218.5v69l4 66h-4q-96 -158 -309 -158q-140 0 -246.5 70.5t-161.5 190.5t-55 270zM279 547q0 -163 80.5 -263t218.5 -100q57 0 104 18.5t87 58t62.5 111.5t22.5 169q0 348 -293 348q-134 0 -208 -91t-74 -251zM526 1239v207h179v-207h-179z" />
<glyph unicode="&#x122;" horiz-adv-x="1507" d="M72 729q0 154 56 291t152.5 236t232 156.5t288.5 57.5q97 0 185.5 -18.5t146 -44.5t101.5 -52t64 -45l19 -18l-117 -149q-6 6 -18 15t-51.5 33t-82.5 42.5t-109.5 33.5t-133.5 15q-143 0 -262 -70.5t-188.5 -197.5t-69.5 -285q0 -248 150.5 -404.5t373.5 -156.5 q72 0 141 18.5t116 45t83.5 53t54.5 45.5l17 18v146q0 45 -45 45h-89v176h191q69 0 100 -31t31 -100v-584h-180v90l2 62h-4q-7 -7 -19.5 -19t-56 -42.5t-92 -54t-125.5 -42.5t-158 -19q-143 0 -272 55t-224.5 152t-151.5 239.5t-56 307.5zM682 -410q39 98 39 168 q0 56 -23 121h162q12 -56 12 -100q0 -85 -49 -189h-141z" />
<glyph unicode="&#x123;" horiz-adv-x="1218" d="M76 543q0 150 52.5 266t156.5 184t245 68q72 0 133 -16.5t96 -40.5t60 -48t34 -40l9 -17h4v33q0 104 115 104h193v-170h-82q-45 0 -45 -41v-782q0 -99 -29.5 -180t-79 -134.5t-117.5 -90t-142 -52.5t-155 -16q-182 0 -354 86l68 160q14 -8 39.5 -19.5t99.5 -31t143 -19.5 q146 0 237 70.5t91 218.5v69l4 66h-4q-96 -158 -309 -158q-140 0 -246.5 70.5t-161.5 190.5t-55 270zM279 547q0 -163 80.5 -263t218.5 -100q57 0 104 18.5t87 58t62.5 111.5t22.5 169q0 348 -293 348q-134 0 -208 -91t-74 -251zM496 1257q0 85 49 189h141q-39 -98 -39 -168 q0 -56 23 -121h-162q-12 55 -12 100z" />
<glyph unicode="&#x124;" horiz-adv-x="1566" d="M78 1270v176h207q69 0 100 -31t31 -100v-506h735v506q0 69 31 100t100 31h207v-176h-88q-45 0 -45 -45v-1225h-205v635h-735v-635h-205v1225q0 45 -45 45h-88zM514 1546l178 260h182l181 -260h-162l-107 164h-4l-108 -164h-160z" />
<glyph unicode="&#x125;" horiz-adv-x="1273" d="M37 1276v170h196q69 0 100.5 -30.5t31.5 -96.5v-404l-5 -86h5q25 55 73 105t131.5 88.5t180.5 38.5q181 0 267.5 -98.5t86.5 -298.5v-449q0 -45 45 -45h84v-170h-195q-69 0 -100 31t-31 100v487q0 47 -4.5 83t-17 71t-33.5 57.5t-57 36t-84 13.5q-152 0 -249 -110.5 t-97 -283.5v-485h-199v1231q0 45 -45 45h-84zM391 1546l178 260h183l180 -260h-162l-106 164h-5l-108 -164h-160z" />
<glyph unicode="&#x126;" horiz-adv-x="1566" d="M76 1053v139h135v254h205v-254h735v254h205v-254h133v-139h-133v-1053h-205v635h-735v-635h-205v1053h-135zM416 809h735v244h-735v-244z" />
<glyph unicode="&#x127;" horiz-adv-x="1273" d="M10 1153v129h156v164h199v-164h264v-129h-264v-238l-5 -86h5q7 20 23.5 45.5t49.5 59.5t74.5 61.5t104.5 46.5t133 19q181 0 267.5 -98.5t86.5 -298.5v-449q0 -45 45 -45h84v-170h-195q-69 0 -100 31t-31 100v487q0 46 -4.5 81.5t-17 70.5t-33.5 58t-57 37t-84 14 q-154 0 -250 -113t-96 -281v-485h-199v1153h-156z" />
<glyph unicode="&#x128;" horiz-adv-x="649" d="M-25 1548q0 260 211 260q39 0 72 -14.5t56 -35t43.5 -40.5t44 -34.5t47.5 -14.5q42 0 61.5 40t19.5 93h136q0 -128 -53.5 -194t-157.5 -66q-38 0 -71 14.5t-56 35t-43.5 40.5t-43.5 34.5t-48 14.5q-42 0 -62 -40t-20 -93h-136zM86 0v176h141v1094h-141v176h477v-176h-141 v-1094h141v-176h-477z" />
<glyph unicode="&#x129;" horiz-adv-x="567" d="M-35 1190q0 130 45.5 195t143.5 65q40 0 74 -21t53.5 -46.5t42.5 -46.5t43 -21q67 0 67 129h133q0 -131 -45 -195.5t-143 -64.5q-40 0 -75 21t-54.5 45.5t-42 45.5t-41.5 21q-68 0 -68 -127h-133zM55 866v170h197q69 0 100 -31t31 -100v-690q0 -45 45 -45h84v-170h-195 q-70 0 -101.5 31t-31.5 100v690q0 45 -45 45h-84z" />
<glyph unicode="&#x12a;" horiz-adv-x="649" d="M63 1606v139h521v-139h-521zM86 0v176h141v1094h-141v176h477v-176h-141v-1094h141v-176h-477z" />
<glyph unicode="&#x12b;" horiz-adv-x="567" d="M33 1247v139h473v-139h-473zM55 866v170h197q69 0 100 -31t31 -100v-690q0 -45 45 -45h84v-170h-195q-70 0 -101.5 31t-31.5 100v690q0 45 -45 45h-84z" />
<glyph unicode="&#x12c;" horiz-adv-x="649" d="M61 1778v28h138v-26q0 -60 36.5 -91.5t88.5 -31.5t89.5 31.5t37.5 93.5v24h135v-28q0 -112 -78 -176t-184 -64q-105 0 -184 64t-79 176zM86 0v176h141v1094h-141v176h477v-176h-141v-1094h141v-176h-477z" />
<glyph unicode="&#x12d;" horiz-adv-x="567" d="M6 1419v27h137v-25q0 -62 36.5 -93.5t88.5 -31.5t89.5 31.5t37.5 93.5v25h135v-27q0 -113 -78 -177t-184 -64q-105 0 -183.5 64t-78.5 177zM55 866v170h197q69 0 100 -31t31 -100v-690q0 -45 45 -45h84v-170h-195q-70 0 -101.5 31t-31.5 100v690q0 45 -45 45h-84z" />
<glyph unicode="&#x12e;" horiz-adv-x="649" d="M86 0v176h141v1094h-141v176h477v-176h-141v-1094h141v-176q-34 -29 -55 -48.5t-48.5 -60t-27.5 -73.5q0 -22 11.5 -39t28 -26t33.5 -14.5t29 -6.5l11 -2l-45 -154q-5 0 -13.5 1.5t-33.5 6.5t-47.5 13t-50.5 23.5t-48 35t-33.5 49.5t-13.5 66q0 119 133 225v4h-307z" />
<glyph unicode="&#x12f;" horiz-adv-x="563" d="M55 866v170h140q62 0 99 -11t56 -38.5t25 -60.5t6 -90v-621q0 -45 45 -45h84v-170q-34 -29 -55 -48.5t-48.5 -60t-27.5 -73.5q0 -35 29 -57t58 -27l28 -4l-48 -154q-5 0 -13.5 1.5t-33 6.5t-47 13t-50 23.5t-47 35t-33 49.5t-13.5 66q0 125 131 225v4h-41q-62 0 -88.5 42 t-26.5 124v655q0 45 -45 45h-84zM188 1239v207h179v-207h-179z" />
<glyph unicode="&#x130;" horiz-adv-x="649" d="M86 0v176h141v1094h-141v176h477v-176h-141v-1094h141v-176h-477zM233 1599v207h179v-207h-179z" />
<glyph unicode="&#x131;" horiz-adv-x="567" d="M55 866v170h197q69 0 100 -31t31 -100v-690q0 -45 45 -45h84v-170h-195q-70 0 -101.5 31t-31.5 100v690q0 45 -45 45h-84z" />
<glyph unicode="&#x132;" horiz-adv-x="1394" d="M86 0v176h141v1094h-141v176h477v-176h-141v-1094h141v-176h-477zM745 -10v186q39 0 74.5 7t75 27.5t68 54t47 92t18.5 135.5v733q0 45 -45 45h-229v176h348q69 0 100 -31t31 -100v-826q0 -101 -20.5 -181.5t-57.5 -134t-82.5 -90.5t-103 -56.5t-111 -28t-113.5 -8.5z " />
<glyph unicode="&#x133;" horiz-adv-x="1128" d="M55 866v170h195q69 0 100 -31t31 -100v-690q0 -45 45 -45h84v-170h-195q-69 0 -100 31t-31 100v690q0 45 -45 45h-84zM188 1239v207h179v-207h-179zM502 -248q18 -2 45 -2t52.5 4t57.5 18t55.5 37t39.5 66.5t16 101.5v844q0 45 -45 45h-84v170h197q69 0 100 -31t31 -100 v-940q0 -99 -30 -173t-72.5 -113.5t-100.5 -63.5t-103 -30.5t-92 -6.5l-67 4v170zM772 1239v207h178v-207h-178z" />
<glyph unicode="&#x134;" horiz-adv-x="1069" d="M45 416v71h205v-55q0 -72 19 -125.5t52.5 -82.5t72 -42.5t83.5 -13.5q96 0 160.5 62.5t64.5 193.5v801q0 45 -45 45h-354v176h473q69 0 100 -31t31 -100v-899q0 -91 -24.5 -166t-66 -125t-97.5 -84.5t-117 -50t-127 -15.5q-83 0 -157.5 26t-136.5 77t-99 138.5t-37 199.5 zM322 1546l178 260h182l180 -260h-162l-106 164h-4l-109 -164h-159z" />
<glyph unicode="&#x135;" horiz-adv-x="581" d="M-41 -252q18 -2 45 -2t52.5 4t57.5 18.5t55.5 38t39.5 67t16 101.5v852q0 25 -12 35t-39 10h-78v164h193q71 0 101 -25.5t30 -92.5v-953q0 -71 -15 -130t-39.5 -98.5t-59 -69t-69.5 -46t-75.5 -27t-71.5 -13.5t-63 -3l-68 4v166zM-2 1186l180 260h182l179 -260h-160 l-111 168l-108 -168h-162z" />
<glyph unicode="&#x136;" horiz-adv-x="1251" d="M78 1270v176h207q69 0 100 -31t31 -100v-477h137q44 0 73 10t46 39l321 559h230l-351 -600q-18 -32 -38.5 -55.5t-31.5 -30.5l-11 -8v-4q4 -1 12 -5t29.5 -27t39.5 -59l218 -434q14 -30 37 -38.5t65 -8.5h39v-176h-113q-87 0 -126.5 20t-73.5 89l-250 501 q-17 33 -47.5 43.5t-81.5 10.5h-123v-664h-205v1225q0 45 -45 45h-88zM567 -410q39 98 39 168q0 59 -22 121h161q13 -60 13 -100q0 -85 -49 -189h-142z" />
<glyph unicode="&#x137;" horiz-adv-x="1075" d="M37 1276v170h196q71 0 101.5 -26t30.5 -93v-672h92q73 0 108 45l240 336h227l-280 -385q-21 -28 -40.5 -47.5t-28.5 -25.5l-9 -5v-4q4 -1 10.5 -5t24.5 -23.5t34 -48.5l154 -281q12 -24 30.5 -32.5t57.5 -8.5h64v-170h-144q-73 0 -105.5 18t-66.5 78l-188 348 q-25 43 -103 43h-77v-487h-199v1231q0 45 -45 45h-84zM473 -410q39 98 39 168q0 56 -23 121h162q13 -60 13 -100q0 -83 -50 -189h-141z" />
<glyph unicode="&#x138;" horiz-adv-x="1075" d="M37 866v170h196q71 0 101.5 -25.5t30.5 -92.5v-304h92q78 0 108 43l252 379h225l-292 -424q-20 -29 -38.5 -48t-27.5 -23l-8 -4v-5q28 -11 65 -79l133 -242q12 -24 31 -32.5t60 -8.5h71v-170h-153q-73 0 -105.5 18t-66.5 78l-166 307q-11 19 -31 28.5t-34 11t-38 1.5h-77 v-444h-199v821q0 45 -45 45h-84z" />
<glyph unicode="&#x139;" horiz-adv-x="1112" d="M78 1270v176h207q69 0 100 -31t31 -100v-1094q0 -45 45 -45h399q45 0 45 45v92h187v-182q0 -69 -31 -100t-100 -31h-619q-69 0 -100 31t-31 100v1094q0 45 -45 45h-88zM250 1546l149 260h201l-194 -260h-156z" />
<glyph unicode="&#x13a;" horiz-adv-x="548" d="M41 1276v170h197q69 0 100 -31t31 -100v-1100q0 -45 45 -45h84v-170h-197q-69 0 -100 31t-31 100v1100q0 45 -45 45h-84zM150 1546l149 260h201l-195 -260h-155z" />
<glyph unicode="&#x13b;" horiz-adv-x="1112" d="M78 1270v176h207q69 0 100 -31t31 -100v-1094q0 -45 45 -45h399q45 0 45 45v92h187v-182q0 -69 -31 -100t-100 -31h-619q-69 0 -100 31t-31 100v1094q0 45 -45 45h-88zM547 -410q39 98 39 168q0 56 -23 121h162q12 -56 12 -100q0 -85 -49 -189h-141z" />
<glyph unicode="&#x13c;" horiz-adv-x="548" d="M41 1276v170h197q69 0 100 -31t31 -100v-1100q0 -45 45 -45h84v-170h-197q-69 0 -100 31t-31 100v1100q0 45 -45 45h-84zM197 -410q39 98 39 168q0 56 -23 121h162q12 -56 12 -100q0 -85 -49 -189h-141z" />
<glyph unicode="&#x13d;" horiz-adv-x="1112" d="M78 1270v176h207q69 0 100 -31t31 -100v-1094q0 -45 45 -45h399q45 0 45 45v92h187v-182q0 -69 -31 -100t-100 -31h-619q-69 0 -100 31t-31 100v1094q0 45 -45 45h-88zM573 1157q39 98 39 168q0 59 -22 121h162q12 -55 12 -100q0 -85 -49 -189h-142z" />
<glyph unicode="&#x13e;" horiz-adv-x="724" d="M41 1276v170h197q69 0 100 -31t31 -100v-1100q0 -45 45 -45h84v-170h-197q-69 0 -100 31t-31 100v1100q0 45 -45 45h-84zM467 1157q39 98 39 168q0 56 -23 121h162q12 -56 12 -100q0 -85 -49 -189h-141z" />
<glyph unicode="&#x13f;" horiz-adv-x="1112" d="M78 1270v176h207q69 0 100 -31t31 -100v-1094q0 -45 45 -45h399q45 0 45 45v92h187v-182q0 -69 -31 -100t-100 -31h-619q-69 0 -100 31t-31 100v1094q0 45 -45 45h-88zM645 672v211h203v-211h-203z" />
<glyph unicode="&#x140;" horiz-adv-x="729" d="M41 1276v170h197q69 0 100 -31t31 -100v-1100q0 -45 45 -45h84v-170h-197q-69 0 -100 31t-31 100v1100q0 45 -45 45h-84zM514 672v211h203v-211h-203z" />
<glyph unicode="&#x141;" horiz-adv-x="1112" d="M78 1270v176h207q69 0 100 -31t31 -100v-379l213 123v-199l-213 -123v-516q0 -45 45 -45h399q45 0 45 45v92h187v-182q0 -69 -31 -100t-100 -31h-619q-69 0 -100 31t-31 100v490l-129 -74v198l129 74v406q0 45 -45 45h-88z" />
<glyph unicode="&#x142;" horiz-adv-x="583" d="M39 569v199l154 90v373q0 45 -46 45h-81v170h194q69 0 100 -31t31 -100v-344l160 92v-199l-160 -94v-555q0 -45 45 -45h84v-170h-194q-69 0 -101 31t-32 100v526z" />
<glyph unicode="&#x143;" horiz-adv-x="1566" d="M78 0v176h88q45 0 45 45v1225h186l643 -916q24 -35 54 -84t48 -80l19 -32h4q-14 114 -14 196v785q0 69 31.5 100t101.5 31h205v-176h-88q-45 0 -45 -45v-1225h-185l-645 915q-24 35 -53.5 84t-46.5 81l-18 32h-5q13 -117 13 -197v-784q0 -69 -31 -100t-100 -31h-207z M723 1546l149 260h201l-194 -260h-156z" />
<glyph unicode="&#x144;" horiz-adv-x="1282" d="M45 866v170h191q131 0 131 -114v-39l-5 -60h5q17 38 47.5 76t77 76t115.5 62t149 24q183 0 269.5 -98.5t86.5 -298.5v-449q0 -45 45 -45h84v-170h-197q-69 0 -100 31t-31 100v487q0 60 -7.5 103t-27 81t-59.5 57.5t-100 19.5q-155 0 -250.5 -109.5t-95.5 -284.5v-485 h-199v821q0 45 -45 45h-84zM582 1186l149 260h201l-195 -260h-155z" />
<glyph unicode="&#x145;" horiz-adv-x="1566" d="M78 0v176h88q45 0 45 45v1225h186l643 -916q24 -35 54 -84t48 -80l19 -32h4q-14 114 -14 196v785q0 69 31.5 100t101.5 31h205v-176h-88q-45 0 -45 -45v-1225h-185l-645 915q-24 35 -53.5 84t-46.5 81l-18 32h-5q13 -117 13 -197v-784q0 -69 -31 -100t-100 -31h-207z M678 -410q39 98 39 168q0 56 -23 121h162q12 -56 12 -100q0 -85 -49 -189h-141z" />
<glyph unicode="&#x146;" horiz-adv-x="1282" d="M45 866v170h191q131 0 131 -114v-39l-5 -60h5q17 38 47.5 76t77 76t115.5 62t149 24q183 0 269.5 -98.5t86.5 -298.5v-449q0 -45 45 -45h84v-170h-197q-69 0 -100 31t-31 100v487q0 60 -7.5 103t-27 81t-59.5 57.5t-100 19.5q-155 0 -250.5 -109.5t-95.5 -284.5v-485 h-199v821q0 45 -45 45h-84zM565 -410q39 98 39 168q0 59 -22 121h161q13 -60 13 -100q0 -85 -49 -189h-142z" />
<glyph unicode="&#x147;" horiz-adv-x="1566" d="M78 0v176h88q45 0 45 45v1225h186l643 -916q24 -35 54 -84t48 -80l19 -32h4q-14 114 -14 196v785q0 69 31.5 100t101.5 31h205v-176h-88q-45 0 -45 -45v-1225h-185l-645 915q-24 35 -53.5 84t-46.5 81l-18 32h-5q13 -117 13 -197v-784q0 -69 -31 -100t-100 -31h-207z M532 1806h162l107 -166h4l106 166h164l-180 -260h-182z" />
<glyph unicode="&#x148;" horiz-adv-x="1282" d="M45 866v170h191q131 0 131 -114v-39l-5 -60h5q17 38 47.5 76t77 76t115.5 62t149 24q183 0 269.5 -98.5t86.5 -298.5v-449q0 -45 45 -45h84v-170h-197q-69 0 -100 31t-31 100v487q0 60 -7.5 103t-27 81t-59.5 57.5t-100 19.5q-155 0 -250.5 -109.5t-95.5 -284.5v-485 h-199v821q0 45 -45 45h-84zM389 1446h162l106 -166h5l106 166h164l-180 -260h-183z" />
<glyph unicode="&#x149;" horiz-adv-x="1339" d="M-29 1157q39 98 39 168q0 59 -22 121h162q12 -56 12 -100q0 -85 -49 -189h-142zM102 866v170h191q131 0 131 -114v-39l-4 -60h4q17 38 47.5 76t77 76t115.5 62t149 24q183 0 269.5 -98.5t86.5 -298.5v-449q0 -45 45 -45h84v-170h-196q-69 0 -100 31t-31 100v487 q0 60 -7.5 103t-27.5 81t-60 57.5t-100 19.5q-154 0 -250 -110t-96 -284v-485h-199v821q0 45 -45 45h-84z" />
<glyph unicode="&#x14a;" horiz-adv-x="1566" d="M78 0v176h88q45 0 45 45v1225h186l643 -916q24 -35 54 -84t48 -80l19 -32h4q-14 114 -14 196v785q0 69 31.5 100t101.5 31h205v-176h-88q-45 0 -45 -45v-1170q0 -108 -28.5 -192.5t-74.5 -136.5t-109.5 -86t-127.5 -47t-135 -13v187q45 0 89.5 13.5t86.5 41.5t68 79 t26 117v15l-625 882q-24 35 -53.5 84t-46.5 81l-18 32h-5q13 -117 13 -197v-784q0 -69 -31 -100t-100 -31h-207z" />
<glyph unicode="&#x14b;" horiz-adv-x="1271" d="M45 866v170h191q131 0 131 -114v-39l-5 -60h5q17 38 47.5 76t77 76t115.5 62t149 24q183 0 269.5 -98.5t86.5 -298.5v-705q0 -71 -15.5 -130t-40.5 -98.5t-60 -69t-70 -46t-76 -27t-72 -13.5t-63 -3l-70 4v170q18 -2 45 -2q28 0 53.5 4t58 18t56 37.5t39.5 67.5t16 102 v645q0 60 -7.5 103t-27 81t-59.5 57.5t-100 19.5q-117 0 -207 -71t-123 -185q-16 -55 -16 -138v-485h-199v821q0 45 -45 45h-84z" />
<glyph unicode="&#x14c;" horiz-adv-x="1624" d="M70 733q0 205 97.5 374t267.5 266t376 97t376.5 -97t268.5 -266t98 -374q0 -210 -98 -384t-268.5 -274t-376.5 -100t-376 100t-267.5 274t-97.5 384zM283 733q0 -157 70.5 -287t191.5 -204t266 -74t266.5 74t192.5 204t71 287q0 114 -42 215.5t-113 174t-169 115 t-206 42.5t-205.5 -42.5t-168.5 -115t-112.5 -174t-41.5 -215.5zM547 1606v139h520v-139h-520z" />
<glyph unicode="&#x14d;" horiz-adv-x="1263" d="M74 520q0 153 74.5 277.5t202 194t280.5 69.5q115 0 217.5 -41t178 -112t119.5 -172t44 -216q0 -154 -75 -279.5t-203 -195.5t-281 -70t-280.5 70t-202 195.5t-74.5 279.5zM276 520q0 -161 103.5 -267t251.5 -106q150 0 253 106t103 267q0 159 -103 264t-253 105 q-148 0 -251.5 -105t-103.5 -264zM373 1245v139h520v-139h-520z" />
<glyph unicode="&#x14e;" horiz-adv-x="1624" d="M70 733q0 205 97.5 374t267.5 266t376 97t376.5 -97t268.5 -266t98 -374q0 -210 -98 -384t-268.5 -274t-376.5 -100t-376 100t-267.5 274t-97.5 384zM283 733q0 -157 70.5 -287t191.5 -204t266 -74t266.5 74t192.5 204t71 287q0 114 -42 215.5t-113 174t-169 115 t-206 42.5t-205.5 -42.5t-168.5 -115t-112.5 -174t-41.5 -215.5zM545 1778v28h137v-26q0 -60 36.5 -91.5t88.5 -31.5t89.5 31.5t37.5 93.5v24h135v-28q0 -112 -78 -176t-184 -64q-105 0 -183.5 64t-78.5 176z" />
<glyph unicode="&#x14f;" horiz-adv-x="1263" d="M74 520q0 153 74.5 277.5t202 194t280.5 69.5q115 0 217.5 -41t178 -112t119.5 -172t44 -216q0 -154 -75 -279.5t-203 -195.5t-281 -70t-280.5 70t-202 195.5t-74.5 279.5zM276 520q0 -161 103.5 -267t251.5 -106q150 0 253 106t103 267q0 159 -103 264t-253 105 q-148 0 -251.5 -105t-103.5 -264zM369 1417v29h137v-27q0 -60 36.5 -91.5t88.5 -31.5t89.5 31.5t37.5 93.5v25h135v-29q0 -112 -78 -175.5t-184 -63.5q-105 0 -183.5 63.5t-78.5 175.5z" />
<glyph unicode="&#x150;" horiz-adv-x="1624" d="M70 733q0 205 97.5 374t267.5 266t376 97t376.5 -97t268.5 -266t98 -374q0 -210 -98 -384t-268.5 -274t-376.5 -100t-376 100t-267.5 274t-97.5 384zM283 733q0 -157 70.5 -287t191.5 -204t266 -74t266.5 74t192.5 204t71 287q0 114 -42 215.5t-113 174t-169 115 t-206 42.5t-205.5 -42.5t-168.5 -115t-112.5 -174t-41.5 -215.5zM563 1546l142 260h172l-144 -260h-170zM877 1546l147 260h203l-197 -260h-153z" />
<glyph unicode="&#x151;" horiz-adv-x="1263" d="M74 520q0 153 74.5 277.5t202 194t280.5 69.5q115 0 217.5 -41t178 -112t119.5 -172t44 -216q0 -154 -75 -279.5t-203 -195.5t-281 -70t-280.5 70t-202 195.5t-74.5 279.5zM276 520q0 -161 103.5 -267t251.5 -106q150 0 253 106t103 267q0 159 -103 264t-253 105 q-148 0 -251.5 -105t-103.5 -264zM389 1186l141 260h172l-143 -260h-170zM702 1186l148 260h203l-197 -260h-154z" />
<glyph unicode="&#x152;" horiz-adv-x="1902" d="M70 725q0 205 92 374.5t255 267t363 97.5q60 0 158.5 -9t136.5 -9h592q70 0 101.5 -31t31.5 -100v-182h-188v92q0 45 -45 45h-400v-453h496v-176h-496v-465h457q45 0 45 45v92h186v-182q0 -69 -29.5 -100t-94.5 -31h-656q-37 0 -136 -9t-159 -9q-150 0 -282 57.5 t-225.5 156.5t-148 236.5t-54.5 292.5zM283 725q0 -156 62 -282t176 -198.5t259 -72.5q114 0 183 16v1069q-77 17 -183 17q-219 0 -358 -156t-139 -393z" />
<glyph unicode="&#x153;" horiz-adv-x="2052" d="M74 516q0 160 75.5 285.5t201.5 192.5t278 67q153 0 268.5 -65t185.5 -181h4q63 118 171 182t255 64q142 0 245.5 -66.5t153.5 -175t50 -244.5l-6 -81h-756q12 -164 113 -255.5t243 -91.5q79 0 155 30.5t113 60.5l36 30l86 -141q-6 -6 -18 -16.5t-52 -36.5t-83.5 -46 t-111.5 -36.5t-137 -16.5q-157 0 -272 67t-180 185h-5q-69 -119 -186 -185.5t-270 -66.5t-279 66t-202 190.5t-76 284.5zM276 516q0 -165 102.5 -267t252.5 -102q149 0 252.5 103.5t103.5 271.5q0 162 -105 264.5t-251 102.5q-150 0 -252.5 -104t-102.5 -269zM1208 639h549 q-6 125 -73.5 194.5t-170.5 69.5q-118 0 -200 -69t-105 -195z" />
<glyph unicode="&#x154;" horiz-adv-x="1265" d="M78 1270v176h631q193 0 312.5 -114.5t119.5 -309.5q0 -69 -17.5 -130t-44.5 -103t-62.5 -74.5t-69.5 -50.5t-66 -25v-4q36 -19 61 -66l174 -346q14 -30 37 -38.5t66 -8.5h26v-176h-100q-88 0 -127.5 20.5t-73.5 88.5l-196 389q-27 49 -54.5 63t-89.5 14h-188v-575h-205 v1270h-133zM416 752h266q117 0 182.5 70t65.5 192q0 121 -65 188.5t-179 67.5h-270v-518zM508 1546l149 260h201l-194 -260h-156z" />
<glyph unicode="&#x155;" horiz-adv-x="786" d="M45 866v170h188q68 0 101 -29.5t33 -91.5v-65l-5 -72h5q39 119 125 195t202 76l54 -5v-196q-27 6 -60 6q-97 0 -176.5 -65t-114.5 -179q-24 -79 -24 -186v-424h-199v821q0 45 -45 45h-84zM328 1186l149 260h201l-195 -260h-155z" />
<glyph unicode="&#x156;" horiz-adv-x="1265" d="M78 1270v176h631q193 0 312.5 -114.5t119.5 -309.5q0 -69 -17.5 -130t-44.5 -103t-62.5 -74.5t-69.5 -50.5t-66 -25v-4q36 -19 61 -66l174 -346q14 -30 37 -38.5t66 -8.5h26v-176h-100q-88 0 -127.5 20.5t-73.5 88.5l-196 389q-27 49 -54.5 63t-89.5 14h-188v-575h-205 v1270h-133zM416 752h266q117 0 182.5 70t65.5 192q0 121 -65 188.5t-179 67.5h-270v-518zM600 -410q39 98 39 168q0 56 -23 121h162q13 -60 13 -100q0 -83 -50 -189h-141z" />
<glyph unicode="&#x157;" horiz-adv-x="786" d="M45 866v170h188q68 0 101 -29.5t33 -91.5v-65l-5 -72h5q39 119 125 195t202 76l54 -5v-196q-27 6 -60 6q-97 0 -176.5 -65t-114.5 -179q-24 -79 -24 -186v-424h-199v821q0 45 -45 45h-84zM184 -410q39 98 39 168q0 59 -22 121h161q13 -60 13 -100q0 -85 -49 -189h-142z " />
<glyph unicode="&#x158;" horiz-adv-x="1265" d="M78 1270v176h631q193 0 312.5 -114.5t119.5 -309.5q0 -69 -17.5 -130t-44.5 -103t-62.5 -74.5t-69.5 -50.5t-66 -25v-4q36 -19 61 -66l174 -346q14 -30 37 -38.5t66 -8.5h26v-176h-100q-88 0 -127.5 20.5t-73.5 88.5l-196 389q-27 49 -54.5 63t-89.5 14h-188v-575h-205 v1270h-133zM317 1806h162l107 -166h4l106 166h164l-180 -260h-182zM416 752h266q117 0 182.5 70t65.5 192q0 121 -65 188.5t-179 67.5h-270v-518z" />
<glyph unicode="&#x159;" horiz-adv-x="786" d="M45 866v170h188q68 0 101 -29.5t33 -91.5v-65l-5 -72h5q39 119 125 195t202 76l54 -5v-196q-27 6 -60 6q-97 0 -176.5 -65t-114.5 -179q-24 -79 -24 -186v-424h-199v821q0 45 -45 45h-84zM137 1446h162l107 -166h4l106 166h164l-180 -260h-183z" />
<glyph unicode="&#x15a;" horiz-adv-x="1091" d="M70 190l120 146q6 -7 17.5 -19t48.5 -42t76.5 -52.5t100 -41.5t120.5 -19q105 0 176.5 59t71.5 156q0 54 -30 99t-79 75.5t-112 63t-128.5 60t-128.5 67t-112 83.5t-79 110.5t-30 147.5q0 165 130.5 276t332.5 111q63 0 130.5 -14.5t132.5 -44t107 -83.5t42 -124v-119 h-189v68q0 56 -67 93.5t-156 37.5q-115 0 -184.5 -55t-69.5 -139q0 -47 24 -85.5t64 -67t92.5 -54t110.5 -51t115.5 -53t110 -64.5t92.5 -81t64 -107.5t24 -139.5q0 -172 -125.5 -292t-333.5 -120q-86 0 -167 22t-135 53.5t-96 63.5t-61 54zM479 1546l150 260h200l-194 -260 h-156z" />
<glyph unicode="&#x15b;" horiz-adv-x="929" d="M55 158l103 133q5 -6 14.5 -16.5t41 -37t65.5 -47t86.5 -37t105.5 -16.5q77 0 128.5 34.5t51.5 98.5q0 37 -31 68t-81 54.5t-110.5 47t-120.5 52.5t-110 65t-81 90.5t-31 122.5q0 142 108.5 216.5t276.5 74.5q53 0 107 -10t109 -31t89.5 -62.5t34.5 -97.5v-98h-178v51 q0 42 -50 65t-106 23q-90 0 -141 -31.5t-51 -91.5q0 -40 31 -71t81 -54t110.5 -45t120.5 -50t110 -63t81 -90.5t31 -125.5q0 -136 -108 -220t-273 -84q-77 0 -148 19t-117.5 45.5t-81.5 53.5t-51 46zM381 1186l149 260h201l-194 -260h-156z" />
<glyph unicode="&#x15c;" horiz-adv-x="1091" d="M70 190l120 146q6 -7 17.5 -19t48.5 -42t76.5 -52.5t100 -41.5t120.5 -19q105 0 176.5 59t71.5 156q0 54 -30 99t-79 75.5t-112 63t-128.5 60t-128.5 67t-112 83.5t-79 110.5t-30 147.5q0 165 130.5 276t332.5 111q63 0 130.5 -14.5t132.5 -44t107 -83.5t42 -124v-119 h-189v68q0 56 -67 93.5t-156 37.5q-115 0 -184.5 -55t-69.5 -139q0 -47 24 -85.5t64 -67t92.5 -54t110.5 -51t115.5 -53t110 -64.5t92.5 -81t64 -107.5t24 -139.5q0 -172 -125.5 -292t-333.5 -120q-86 0 -167 22t-135 53.5t-96 63.5t-61 54zM291 1546l178 260h182l180 -260 h-161l-107 164h-4l-108 -164h-160z" />
<glyph unicode="&#x15d;" horiz-adv-x="929" d="M55 158l103 133q5 -6 14.5 -16.5t41 -37t65.5 -47t86.5 -37t105.5 -16.5q77 0 128.5 34.5t51.5 98.5q0 37 -31 68t-81 54.5t-110.5 47t-120.5 52.5t-110 65t-81 90.5t-31 122.5q0 142 108.5 216.5t276.5 74.5q53 0 107 -10t109 -31t89.5 -62.5t34.5 -97.5v-98h-178v51 q0 42 -50 65t-106 23q-90 0 -141 -31.5t-51 -91.5q0 -40 31 -71t81 -54t110.5 -45t120.5 -50t110 -63t81 -90.5t31 -125.5q0 -136 -108 -220t-273 -84q-77 0 -148 19t-117.5 45.5t-81.5 53.5t-51 46zM193 1186l178 260h182l180 -260h-162l-106 164h-4l-109 -164h-159z" />
<glyph unicode="&#x15e;" horiz-adv-x="1091" d="M70 190l120 146q6 -7 17.5 -19t48.5 -42t76.5 -52.5t100 -41.5t120.5 -19q105 0 176.5 59t71.5 156q0 54 -30 99t-79 75.5t-112 63t-128.5 60t-128.5 67t-112 83.5t-79 110.5t-30 147.5q0 165 130.5 276t332.5 111q63 0 130.5 -14.5t132.5 -44t107 -83.5t42 -124v-119 h-189v68q0 56 -67 93.5t-156 37.5q-115 0 -184.5 -55t-69.5 -139q0 -47 24 -85.5t64 -67t92.5 -54t110.5 -51t115.5 -53t110 -64.5t92.5 -81t64 -107.5t24 -139.5q0 -164 -113 -281t-303 -129l-17 -79q66 -8 107 -47t41 -103q0 -88 -60.5 -130t-148.5 -42q-29 0 -58 3.5 t-43 6.5l-14 4v119q43 -14 88 -14q97 0 97 63q0 31 -29 47.5t-78 16.5l-37 -2l39 160q-74 8 -143.5 32.5t-115.5 54t-81.5 57.5t-52.5 47z" />
<glyph unicode="&#x15f;" horiz-adv-x="929" d="M55 158l103 133q5 -6 14.5 -16.5t41 -37t65.5 -47t86.5 -37t105.5 -16.5q77 0 128.5 34.5t51.5 98.5q0 37 -31 68t-81 54.5t-110.5 47t-120.5 52.5t-110 65t-81 90.5t-31 122.5q0 142 108.5 216.5t276.5 74.5q53 0 107 -10t109 -31t89.5 -62.5t34.5 -97.5v-98h-178v51 q0 42 -50 65t-106 23q-90 0 -141 -31.5t-51 -91.5q0 -40 31 -71t81 -54t110.5 -45t120.5 -50t110 -63t81 -90.5t31 -125.5q0 -131 -100 -213.5t-256 -90.5l-17 -77q65 -8 105.5 -47t40.5 -103q0 -88 -59.5 -130t-147.5 -42q-29 0 -58 3.5t-43 6.5l-14 4v119q41 -14 88 -14 q96 0 96 63q0 31 -28.5 47.5t-77.5 16.5l-37 -2l41 162q-61 9 -117.5 30t-93 45.5t-64.5 47.5t-40 38z" />
<glyph unicode="&#x160;" horiz-adv-x="1091" d="M70 190l120 146q6 -7 17.5 -19t48.5 -42t76.5 -52.5t100 -41.5t120.5 -19q105 0 176.5 59t71.5 156q0 54 -30 99t-79 75.5t-112 63t-128.5 60t-128.5 67t-112 83.5t-79 110.5t-30 147.5q0 165 130.5 276t332.5 111q63 0 130.5 -14.5t132.5 -44t107 -83.5t42 -124v-119 h-189v68q0 56 -67 93.5t-156 37.5q-115 0 -184.5 -55t-69.5 -139q0 -47 24 -85.5t64 -67t92.5 -54t110.5 -51t115.5 -53t110 -64.5t92.5 -81t64 -107.5t24 -139.5q0 -172 -125.5 -292t-333.5 -120q-86 0 -167 22t-135 53.5t-96 63.5t-61 54zM289 1806h162l106 -166h4 l107 166h163l-180 -260h-182z" />
<glyph unicode="&#x161;" horiz-adv-x="929" d="M55 158l103 133q5 -6 14.5 -16.5t41 -37t65.5 -47t86.5 -37t105.5 -16.5q77 0 128.5 34.5t51.5 98.5q0 37 -31 68t-81 54.5t-110.5 47t-120.5 52.5t-110 65t-81 90.5t-31 122.5q0 142 108.5 216.5t276.5 74.5q53 0 107 -10t109 -31t89.5 -62.5t34.5 -97.5v-98h-178v51 q0 42 -50 65t-106 23q-90 0 -141 -31.5t-51 -91.5q0 -40 31 -71t81 -54t110.5 -45t120.5 -50t110 -63t81 -90.5t31 -125.5q0 -136 -108 -220t-273 -84q-77 0 -148 19t-117.5 45.5t-81.5 53.5t-51 46zM190 1446h162l107 -166h4l106 166h164l-180 -260h-182z" />
<glyph unicode="&#x162;" horiz-adv-x="1302" d="M31 1133v190q0 69 27 96t96 27h995q69 0 96 -27t27 -96v-190h-182v92q0 45 -46 45h-290v-1270h-49l-21 -102q64 -8 104.5 -47t40.5 -103q0 -87 -60 -129.5t-148 -42.5q-28 0 -56.5 3.5t-42.5 6.5l-14 4v119q41 -14 88 -14q96 0 96 63q0 31 -29.5 47.5t-78.5 16.5l-35 -2 l45 180h-45v1270h-291q-45 0 -45 -45v-92h-182z" />
<glyph unicode="&#x163;" horiz-adv-x="720" d="M47 877v159h139v285h195v-285h248v-159h-248v-476q0 -59 16 -103.5t39 -68.5t54.5 -38.5t57 -18.5t52.5 -4l47 4v-176q-26 -4 -69 -4q-58 0 -107 10l-20 -104q65 -8 105 -47t40 -103q0 -88 -59.5 -130t-147.5 -42q-29 0 -58 3.5t-43 6.5l-14 4v119q41 -14 88 -14 q97 0 97 63q0 31 -29 47.5t-78 16.5l-37 -2l56 213q-189 89 -189 346v498h-135z" />
<glyph unicode="&#x164;" horiz-adv-x="1302" d="M31 1133v190q0 69 27 96t96 27h995q69 0 96 -27t27 -96v-190h-182v92q0 45 -46 45h-290v-1270h-205v1270h-291q-45 0 -45 -45v-92h-182zM381 1806h162l106 -166h4l107 166h164l-181 -260h-182z" />
<glyph unicode="&#x165;" horiz-adv-x="778" d="M51 877v159h139v285h195v-285h248v-159h-248v-476q0 -59 16 -103.5t39 -68.5t54.5 -38.5t57 -18.5t52.5 -4l47 4v-176q-26 -4 -69 -4q-32 0 -63.5 3t-72 13.5t-75.5 27t-70 46t-59.5 69t-40 98.5t-15.5 130v498h-135zM498 1157q39 98 39 168q0 56 -23 121h162 q12 -56 12 -100q0 -85 -49 -189h-141z" />
<glyph unicode="&#x166;" horiz-adv-x="1302" d="M31 1133v190q0 69 27 96t96 27h995q69 0 96 -27t27 -96v-190h-182v92q0 45 -46 45h-290v-479h329v-156h-329v-635h-205v635h-316v156h316v479h-291q-45 0 -45 -45v-92h-182z" />
<glyph unicode="&#x167;" horiz-adv-x="720" d="M47 530v140h135v207h-135v159h139v285h195v-285h248v-159h-248v-207h248v-140h-248v-135q0 -57 16 -100t39 -66.5t54.5 -38t57 -18.5t52.5 -4l47 4v-176q-26 -4 -69 -4q-32 0 -63.5 3t-72 13.5t-75.5 27t-70 46t-59.5 69t-40 98.5t-15.5 130v151h-135z" />
<glyph unicode="&#x168;" horiz-adv-x="1490" d="M61 1270v176h207q69 0 100 -31t31 -100v-801q0 -161 94 -253.5t252 -92.5t252.5 92.5t94.5 255.5v799q0 69 32 100t101 31h205v-176h-89q-45 0 -45 -45v-719q0 -237 -150.5 -384t-397.5 -147q-248 0 -400.5 147t-152.5 384v719q0 45 -45 45h-89zM399 1548q0 260 211 260 q39 0 72 -14.5t56 -35t43 -40.5t43.5 -34.5t47.5 -14.5q42 0 62 40.5t20 92.5h136q0 -128 -53.5 -194t-157.5 -66q-38 0 -71 14.5t-56 35t-44 40.5t-44 34.5t-48 14.5q-42 0 -61.5 -39.5t-19.5 -93.5h-136z" />
<glyph unicode="&#x169;" horiz-adv-x="1271" d="M41 866v170h195q70 0 101.5 -30.5t31.5 -96.5v-491q0 -59 7.5 -101.5t27 -80t59 -57t98.5 -19.5q103 0 181.5 55.5t117.5 143.5t39 192v485h199v-821q0 -45 45 -45h84v-170h-191q-131 0 -131 115v39l2 59h-4q-24 -56 -71.5 -107.5t-130.5 -91t-179 -39.5 q-177 0 -264.5 97t-87.5 301v448q0 45 -45 45h-84zM274 1188q0 260 211 260q39 0 72 -14.5t56 -35t43.5 -40.5t44 -34.5t47.5 -14.5q42 0 61.5 40t19.5 93h136q0 -128 -53.5 -194t-157.5 -66q-38 0 -71 14.5t-56 35t-43.5 40.5t-43.5 34.5t-48 14.5q-42 0 -62 -40t-20 -93 h-136z" />
<glyph unicode="&#x16a;" horiz-adv-x="1490" d="M61 1270v176h207q69 0 100 -31t31 -100v-801q0 -161 94 -253.5t252 -92.5t252.5 92.5t94.5 255.5v799q0 69 32 100t101 31h205v-176h-89q-45 0 -45 -45v-719q0 -237 -150.5 -384t-397.5 -147q-248 0 -400.5 147t-152.5 384v719q0 45 -45 45h-89zM487 1606v139h521v-139 h-521z" />
<glyph unicode="&#x16b;" horiz-adv-x="1271" d="M41 866v170h195q70 0 101.5 -30.5t31.5 -96.5v-491q0 -59 7.5 -101.5t27 -80t59 -57t98.5 -19.5q103 0 181.5 55.5t117.5 143.5t39 192v485h199v-821q0 -45 45 -45h84v-170h-191q-131 0 -131 115v39l2 59h-4q-24 -56 -71.5 -107.5t-130.5 -91t-179 -39.5 q-177 0 -264.5 97t-87.5 301v448q0 45 -45 45h-84zM362 1245v139h521v-139h-521z" />
<glyph unicode="&#x16c;" horiz-adv-x="1490" d="M61 1270v176h207q69 0 100 -31t31 -100v-801q0 -161 94 -253.5t252 -92.5t252.5 92.5t94.5 255.5v799q0 69 32 100t101 31h205v-176h-89q-45 0 -45 -45v-719q0 -237 -150.5 -384t-397.5 -147q-248 0 -400.5 147t-152.5 384v719q0 45 -45 45h-89zM485 1778v28h138v-26 q0 -60 36.5 -91.5t88.5 -31.5t89 31.5t37 93.5v24h136v-28q0 -112 -78 -176t-184 -64q-105 0 -184 64t-79 176z" />
<glyph unicode="&#x16d;" horiz-adv-x="1271" d="M41 866v170h195q70 0 101.5 -30.5t31.5 -96.5v-491q0 -59 7.5 -101.5t27 -80t59 -57t98.5 -19.5q103 0 181.5 55.5t117.5 143.5t39 192v485h199v-821q0 -45 45 -45h84v-170h-191q-131 0 -131 115v39l2 59h-4q-24 -56 -71.5 -107.5t-130.5 -91t-179 -39.5 q-177 0 -264.5 97t-87.5 301v448q0 45 -45 45h-84zM360 1417v29h138v-27q0 -60 36.5 -91.5t88.5 -31.5t89.5 31.5t37.5 93.5v25h135v-29q0 -112 -78 -175.5t-184 -63.5q-105 0 -184 63.5t-79 175.5z" />
<glyph unicode="&#x16e;" horiz-adv-x="1490" d="M61 1270v176h207q69 0 100 -31t31 -100v-801q0 -161 94 -253.5t252 -92.5t252.5 92.5t94.5 255.5v799q0 69 32 100t101 31h205v-176h-89q-45 0 -45 -45v-719q0 -237 -150.5 -384t-397.5 -147q-248 0 -400.5 147t-152.5 384v719q0 45 -45 45h-89zM582 1673q0 70 48.5 112 t117.5 42q68 0 116.5 -42.5t48.5 -111.5q0 -68 -48.5 -109.5t-116.5 -41.5q-69 0 -117.5 41.5t-48.5 109.5zM678 1673q0 -29 19.5 -48t50.5 -19t50 19t19 48q0 32 -19 52t-50 20t-50.5 -20t-19.5 -52z" />
<glyph unicode="&#x16f;" horiz-adv-x="1271" d="M41 866v170h195q70 0 101.5 -30.5t31.5 -96.5v-491q0 -59 7.5 -101.5t27 -80t59 -57t98.5 -19.5q103 0 181.5 55.5t117.5 143.5t39 192v485h199v-821q0 -45 45 -45h84v-170h-191q-131 0 -131 115v39l2 59h-4q-24 -56 -71.5 -107.5t-130.5 -91t-179 -39.5 q-177 0 -264.5 97t-87.5 301v448q0 45 -45 45h-84zM457 1313q0 69 48.5 111t117.5 42q68 0 116.5 -42t48.5 -111q0 -68 -49 -110t-116 -42q-69 0 -117.5 42t-48.5 110zM553 1313q0 -29 19.5 -48.5t50.5 -19.5t50 19.5t19 48.5q0 32 -19 51.5t-50 19.5t-50.5 -19.5 t-19.5 -51.5z" />
<glyph unicode="&#x170;" horiz-adv-x="1490" d="M61 1270v176h207q69 0 100 -31t31 -100v-801q0 -161 94 -253.5t252 -92.5t252.5 92.5t94.5 255.5v799q0 69 32 100t101 31h205v-176h-89q-45 0 -45 -45v-719q0 -237 -150.5 -384t-397.5 -147q-248 0 -400.5 147t-152.5 384v719q0 45 -45 45h-89zM506 1546l141 260h172 l-143 -260h-170zM819 1546l148 260h202l-196 -260h-154z" />
<glyph unicode="&#x171;" horiz-adv-x="1271" d="M41 866v170h195q70 0 101.5 -30.5t31.5 -96.5v-491q0 -59 7.5 -101.5t27 -80t59 -57t98.5 -19.5q103 0 181.5 55.5t117.5 143.5t39 192v485h199v-821q0 -45 45 -45h84v-170h-191q-131 0 -131 115v39l2 59h-4q-24 -56 -71.5 -107.5t-130.5 -91t-179 -39.5 q-177 0 -264.5 97t-87.5 301v448q0 45 -45 45h-84zM381 1186l141 260h172l-143 -260h-170zM694 1186l148 260h202l-196 -260h-154z" />
<glyph unicode="&#x172;" horiz-adv-x="1490" d="M61 1270v176h207q69 0 100 -31t31 -100v-801q0 -161 94 -253.5t252 -92.5t252.5 92.5t94.5 255.5v799q0 69 32 100t101 31h205v-176h-89q-45 0 -45 -45v-727q0 -305 -286 -471q-71 -40 -123.5 -95.5t-52.5 -113.5q0 -22 11.5 -39t28.5 -26t34 -14.5t28 -6.5l12 -2 l-47 -154q-5 0 -13.5 1.5t-33 6.5t-47 13t-50 23.5t-47 35t-33 49.5t-13.5 66q0 60 30.5 113t75.5 91v5q-23 -3 -41 -3q-237 0 -385.5 148t-148.5 381v719q0 45 -45 45h-89z" />
<glyph unicode="&#x173;" horiz-adv-x="1271" d="M41 866v170h195q81 0 107 -37.5t26 -132.5v-448q0 -59 7.5 -101.5t27 -80t59 -57t98.5 -19.5q103 0 181.5 55.5t117.5 143.5t39 192v485h199v-821q0 -45 45 -45h84v-170q-131 -107 -131 -182q0 -22 11.5 -39t28 -26t33 -14.5t27.5 -6.5l12 -2l-47 -154q-5 0 -13.5 1.5 t-33 6.5t-47 13t-50 23.5t-47 35t-33 49.5t-13.5 66q0 123 137 227v4h-39q-56 0 -86.5 29t-30.5 84v39l2 59h-4q-2 -5 -6 -13.5t-19.5 -33.5t-34.5 -47.5t-51.5 -49.5t-69.5 -47t-89.5 -33.5t-110.5 -13.5q-177 0 -264.5 97t-87.5 301v448q0 45 -45 45h-84z" />
<glyph unicode="&#x174;" horiz-adv-x="1982" d="M35 1270v176h117q81 0 120.5 -24.5t57.5 -94.5l223 -930l29 -153h4q12 73 35 153l290 1045h185l270 -1045q9 -36 16.5 -74t11.5 -59l3 -20h4q8 75 26 153l228 930q18 71 57 95t119 24h117v-176h-31q-30 0 -46.5 -9.5t-23.5 -35.5l-317 -1225h-238l-245 913 q-11 42 -21.5 91.5t-15.5 78.5l-4 29h-5q-20 -105 -47 -197l-262 -915h-239l-318 1225q-7 26 -23 35.5t-46 9.5h-31zM733 1546l178 260h183l180 -260h-162l-106 164h-5l-108 -164h-160z" />
<glyph unicode="&#x175;" horiz-adv-x="1708" d="M20 866v170h125q70 0 102 -22.5t52 -87.5l184 -617q7 -24 13.5 -51.5t9.5 -43.5l2 -15h4q13 57 29 110l223 723h182l225 -723l27 -110h4q9 57 25 110l182 617q20 65 53 87.5t103 22.5h123v-170h-29q-52 0 -64 -41l-272 -825h-223l-215 666l-29 112h-4q-13 -59 -29 -112 l-213 -666h-225l-272 825q-12 41 -64 41h-29zM586 1186l178 260h182l180 -260h-161l-107 164h-4l-109 -164h-159z" />
<glyph unicode="&#x176;" horiz-adv-x="1234" d="M20 1270v176h95q76 0 114.5 -20.5t79.5 -90.5l219 -364q21 -36 43 -76.5t33 -62.5l12 -23h5q39 82 88 162l217 364q41 69 80 90t114 21h94v-176h-38q-34 0 -52.5 -10t-38.5 -41l-364 -588v-631h-205v631l-366 588q-20 31 -38 41t-51 10h-41zM350 1546l178 260h183 l180 -260h-162l-106 164h-5l-108 -164h-160z" />
<glyph unicode="&#x177;" horiz-adv-x="1118" d="M10 -328l82 144q0 -3 18.5 -20t56.5 -35.5t77 -18.5q59 0 105.5 39t76.5 110l47 113l-354 821q-10 24 -25 32.5t-41 8.5h-24v170h116q63 0 93 -21t55 -83l235 -584q9 -24 18 -55t14 -51l5 -19h4q15 72 35 125l215 584q23 61 55.5 82.5t96.5 21.5h119v-170h-27 q-26 0 -41 -8.5t-25 -32.5l-409 -1011q-46 -118 -134.5 -181t-199.5 -63q-43 0 -84 10.5t-69 25.5t-49.5 30t-31.5 26zM289 1186l178 260h182l180 -260h-161l-107 164h-4l-108 -164h-160z" />
<glyph unicode="&#x178;" horiz-adv-x="1234" d="M20 1270v176h95q76 0 114.5 -20.5t79.5 -90.5l219 -364q21 -36 43 -76.5t33 -62.5l12 -23h5q39 82 88 162l217 364q41 69 80 90t114 21h94v-176h-38q-34 0 -52.5 -10t-38.5 -41l-364 -588v-631h-205v631l-366 588q-20 31 -38 41t-51 10h-41zM377 1599v207h151v-207h-151z M715 1599v207h149v-207h-149z" />
<glyph unicode="&#x179;" horiz-adv-x="1191" d="M37 0v135l713 1004q25 36 52 69t42 48l14 16v4q-38 -6 -108 -6h-465q-45 0 -45 -45v-92h-187v182q0 69 31 100t100 31h928v-133l-715 -1006q-24 -36 -50.5 -68.5t-40.5 -47.5l-15 -15v-4q38 4 106 4h510q45 0 45 45v92h189v-182q0 -69 -31 -100t-100 -31h-973zM526 1546 l150 260h201l-195 -260h-156z" />
<glyph unicode="&#x17a;" horiz-adv-x="1034" d="M68 0v115l530 655q20 24 41.5 48t32.5 36l12 12v4q-32 -4 -100 -4h-283q-45 0 -45 -45v-69h-182v153q0 69 31 100t100 31h741v-114l-532 -658q-19 -23 -40.5 -46.5t-33.5 -35.5l-12 -12v-4q32 4 100 4h332q45 0 45 45v70h180v-154q0 -69 -31 -100t-100 -31h-786z M453 1186l149 260h201l-195 -260h-155z" />
<glyph unicode="&#x17b;" horiz-adv-x="1191" d="M37 0v135l713 1004q25 36 52 69t42 48l14 16v4q-38 -6 -108 -6h-465q-45 0 -45 -45v-92h-187v182q0 69 31 100t100 31h928v-133l-715 -1006q-24 -36 -50.5 -68.5t-40.5 -47.5l-15 -15v-4q38 4 106 4h510q45 0 45 45v92h189v-182q0 -69 -31 -100t-100 -31h-973zM518 1599 v207h178v-207h-178z" />
<glyph unicode="&#x17c;" horiz-adv-x="1034" d="M68 0v115l530 655q20 24 41.5 48t32.5 36l12 12v4q-32 -4 -100 -4h-283q-45 0 -45 -45v-69h-182v153q0 69 31 100t100 31h741v-114l-532 -658q-19 -23 -40.5 -46.5t-33.5 -35.5l-12 -12v-4q32 4 100 4h332q45 0 45 45v70h180v-154q0 -69 -31 -100t-100 -31h-786z M444 1239v207h179v-207h-179z" />
<glyph unicode="&#x17d;" horiz-adv-x="1191" d="M37 0v135l713 1004q25 36 52 69t42 48l14 16v4q-38 -6 -108 -6h-465q-45 0 -45 -45v-92h-187v182q0 69 31 100t100 31h928v-133l-715 -1006q-24 -36 -50.5 -68.5t-40.5 -47.5l-15 -15v-4q38 4 106 4h510q45 0 45 45v92h189v-182q0 -69 -31 -100t-100 -31h-973zM336 1806 h162l106 -166h4l107 166h164l-181 -260h-182z" />
<glyph unicode="&#x17e;" horiz-adv-x="1034" d="M68 0v115l530 655q20 24 41.5 48t32.5 36l12 12v4q-32 -4 -100 -4h-283q-45 0 -45 -45v-69h-182v153q0 69 31 100t100 31h741v-114l-532 -658q-19 -23 -40.5 -46.5t-33.5 -35.5l-12 -12v-4q32 4 100 4h332q45 0 45 45v70h180v-154q0 -69 -31 -100t-100 -31h-786z M262 1446h162l106 -166h5l106 166h164l-180 -260h-183z" />
<glyph unicode="&#x17f;" horiz-adv-x="665" d="M45 877v159h129v35q0 97 29 170.5t70.5 113t98.5 64t101.5 31t91.5 6.5q20 0 39 -1.5t28 -2.5l9 -2v-170q-20 4 -51 4q-28 0 -53 -4t-56.5 -18t-54 -36.5t-38 -64t-15.5 -96.5v-1065h-199v877h-129z" />
<glyph unicode="&#x192;" horiz-adv-x="737" d="M-109 -111l17 172q20 -4 49 -4q27 0 52.5 4t58 18.5t57 38t44 67t24.5 100.5l36 432h-153v160h168l18 194q9 98 44 171t79.5 112.5t103 64t103.5 31t92 6.5q21 0 40 -1.5t28 -2.5l8 -2l-17 -170q-18 4 -49 4q-28 0 -53.5 -4t-57.5 -18.5t-56.5 -37.5t-43.5 -66.5 t-24 -100.5l-19 -180h217v-160h-229l-39 -447q-9 -97 -44 -170.5t-80 -113t-104 -64t-104 -31t-92 -6.5z" />
<glyph unicode="&#x218;" horiz-adv-x="1091" d="M70 190l120 146q6 -7 17.5 -19t48.5 -42t76.5 -52.5t100 -41.5t120.5 -19q105 0 176.5 59t71.5 156q0 54 -30 99t-79 75.5t-112 63t-128.5 60t-128.5 67t-112 83.5t-79 110.5t-30 147.5q0 165 130.5 276t332.5 111q63 0 130.5 -14.5t132.5 -44t107 -83.5t42 -124v-119 h-189v68q0 56 -67 93.5t-156 37.5q-115 0 -184.5 -55t-69.5 -139q0 -47 24 -85.5t64 -67t92.5 -54t110.5 -51t115.5 -53t110 -64.5t92.5 -81t64 -107.5t24 -139.5q0 -172 -125.5 -292t-333.5 -120q-86 0 -167 22t-135 53.5t-96 63.5t-61 54zM451 -410q38 96 38 168 q0 59 -22 121h162q12 -56 12 -100q0 -85 -49 -189h-141z" />
<glyph unicode="&#x219;" horiz-adv-x="929" d="M55 158l103 133q5 -6 14.5 -16.5t41 -37t65.5 -47t86.5 -37t105.5 -16.5q77 0 128.5 34.5t51.5 98.5q0 37 -31 68t-81 54.5t-110.5 47t-120.5 52.5t-110 65t-81 90.5t-31 122.5q0 142 108.5 216.5t276.5 74.5q53 0 107 -10t109 -31t89.5 -62.5t34.5 -97.5v-98h-178v51 q0 42 -50 65t-106 23q-90 0 -141 -31.5t-51 -91.5q0 -40 31 -71t81 -54t110.5 -45t120.5 -50t110 -63t81 -90.5t31 -125.5q0 -136 -108 -220t-273 -84q-77 0 -148 19t-117.5 45.5t-81.5 53.5t-51 46zM362 -410q39 98 39 168q0 59 -22 121h162q12 -56 12 -100q0 -85 -49 -189 h-142z" />
<glyph unicode="&#x21a;" horiz-adv-x="1302" d="M31 1133v190q0 69 27 96t96 27h995q69 0 96 -27t27 -96v-190h-182v92q0 45 -46 45h-290v-1270h-205v1270h-291q-45 0 -45 -45v-92h-182zM547 -410q39 98 39 168q0 56 -23 121h162q12 -56 12 -100q0 -85 -49 -189h-141z" />
<glyph unicode="&#x21b;" horiz-adv-x="720" d="M47 877v159h139v285h195v-285h248v-159h-248v-476q0 -59 16 -103.5t39 -68.5t54.5 -38.5t57 -18.5t52.5 -4l47 4v-176q-26 -4 -69 -4q-32 0 -63.5 3t-72 13.5t-75.5 27t-70 46t-59.5 69t-40 98.5t-15.5 130v498h-135zM307 -410q39 98 39 168q0 59 -22 121h161 q13 -60 13 -100q0 -85 -49 -189h-142z" />
<glyph unicode="&#x2c6;" horiz-adv-x="993" d="M227 1546l179 260h182l180 -260h-162l-106 164h-4l-109 -164h-160z" />
<glyph unicode="&#x2c7;" horiz-adv-x="999" d="M225 1806h162l107 -166h4l106 166h164l-180 -260h-182z" />
<glyph unicode="&#x2d8;" horiz-adv-x="1026" d="M236 1778v28h137v-26q0 -60 36.5 -91.5t88.5 -31.5t89.5 31.5t37.5 93.5v24h135v-28q0 -112 -78 -176t-184 -64q-105 0 -183.5 64t-78.5 176z" />
<glyph unicode="&#x2d9;" horiz-adv-x="524" d="M172 1599v207h178v-207h-178z" />
<glyph unicode="&#x2da;" horiz-adv-x="778" d="M223 1673q0 70 48.5 112t117.5 42q68 0 117 -42.5t49 -111.5q0 -68 -49 -109.5t-117 -41.5q-69 0 -117.5 41.5t-48.5 109.5zM319 1673q0 -29 19.5 -48t50.5 -19t50.5 19t19.5 48q0 32 -19.5 52t-50.5 20t-50.5 -20t-19.5 -52z" />
<glyph unicode="&#x2db;" horiz-adv-x="739" d="M221 -229q0 44 19.5 87t46.5 73.5t54.5 55t46.5 36.5l20 12l141 -15q-6 -4 -17 -12t-38 -32t-48 -47.5t-38 -54t-17 -56.5q0 -35 29 -57t58 -27l28 -4l-47 -154q-5 0 -13.5 1.5t-33.5 6.5t-47.5 13t-49.5 23.5t-47 35t-33.5 49.5t-13.5 66z" />
<glyph unicode="&#x2dc;" horiz-adv-x="1062" d="M188 1548q0 260 211 260q39 0 72 -14.5t56 -35t43.5 -40.5t44 -34.5t47.5 -14.5q42 0 61.5 40t19.5 93h136q0 -128 -53.5 -194t-157.5 -66q-38 0 -71 14.5t-56 35t-43.5 40.5t-43.5 34.5t-48 14.5q-42 0 -62 -40t-20 -93h-136z" />
<glyph unicode="&#x2dd;" horiz-adv-x="1095" d="M203 1546l141 260h172l-143 -260h-170zM516 1546l148 260h202l-196 -260h-154z" />
<glyph unicode="&#x3bc;" horiz-adv-x="1271" d="M41 866v170h195q70 0 101.5 -30.5t31.5 -96.5v-491q0 -59 7.5 -101.5t27 -80t59 -57t98.5 -19.5q103 0 181.5 55.5t117.5 143.5t39 192v485h199v-821q0 -45 45 -45h84v-170h-191q-131 0 -131 115v39l2 59h-4q-2 -5 -6 -13.5t-19.5 -33.5t-34.5 -47.5t-51.5 -49.5 t-69.5 -47t-89.5 -33.5t-110.5 -13.5q-38 0 -71.5 6.5t-53.5 16t-34.5 19t-20.5 15.5l-6 7h-4q14 -101 14 -160v-289h-176v1231q0 45 -45 45h-84z" />
<glyph unicode="&#x1e9e;" horiz-adv-x="1310" d="M61 0v176h89q45 0 45 45v815q0 179 117 294.5t298 115.5h557v-137l-284 -416l-49 -68v-4h20q108 0 195.5 -59.5t133.5 -150.5t46 -191q0 -175 -125.5 -297.5t-302.5 -122.5h-195v176h180q103 0 168.5 72t65.5 172t-64.5 169.5t-167.5 69.5h-178v142l232 346 q27 41 49.5 72t31.5 42l9 11v4q-14 -6 -88 -6h-228q-94 0 -155.5 -66t-61.5 -164v-909q0 -69 -31 -100t-100 -31h-207z" />
<glyph unicode="&#x2000;" horiz-adv-x="913" />
<glyph unicode="&#x2001;" horiz-adv-x="1827" />
<glyph unicode="&#x2002;" horiz-adv-x="913" />
<glyph unicode="&#x2003;" horiz-adv-x="1827" />
<glyph unicode="&#x2004;" horiz-adv-x="609" />
<glyph unicode="&#x2005;" horiz-adv-x="456" />
<glyph unicode="&#x2006;" horiz-adv-x="304" />
<glyph unicode="&#x2007;" horiz-adv-x="304" />
<glyph unicode="&#x2008;" horiz-adv-x="228" />
<glyph unicode="&#x2009;" horiz-adv-x="365" />
<glyph unicode="&#x200a;" horiz-adv-x="101" />
<glyph unicode="&#x2010;" horiz-adv-x="882" d="M143 496v176h598v-176h-598z" />
<glyph unicode="&#x2011;" horiz-adv-x="882" d="M143 496v176h598v-176h-598z" />
<glyph unicode="&#x2012;" horiz-adv-x="882" d="M143 496v176h598v-176h-598z" />
<glyph unicode="&#x2013;" horiz-adv-x="1335" d="M129 504v160h1077v-160h-1077z" />
<glyph unicode="&#x2014;" horiz-adv-x="1744" d="M129 504v160h1487v-160h-1487z" />
<glyph unicode="&#x2018;" horiz-adv-x="466" d="M96 1069l133 399h142l-88 -399h-187z" />
<glyph unicode="&#x2019;" horiz-adv-x="466" d="M96 1071l88 399h187l-133 -399h-142z" />
<glyph unicode="&#x201a;" horiz-adv-x="466" d="M96 -184l88 399h187l-133 -399h-142z" />
<glyph unicode="&#x201c;" horiz-adv-x="751" d="M96 1069l133 399h142l-88 -399h-187zM379 1069l133 399h143l-88 -399h-188z" />
<glyph unicode="&#x201d;" horiz-adv-x="751" d="M96 1071l88 399h187l-133 -399h-142zM379 1071l88 399h188l-133 -399h-143z" />
<glyph unicode="&#x201e;" horiz-adv-x="751" d="M96 -184l88 399h187l-133 -399h-142zM379 -184l88 399h188l-133 -399h-143z" />
<glyph unicode="&#x2020;" horiz-adv-x="806" d="M57 879v157h248v410h191v-410h254v-157h-254v-981h-191v981h-248z" />
<glyph unicode="&#x2021;" horiz-adv-x="806" d="M57 350v160h248v369h-248v157h248v410h191v-410h254v-157h-254v-369h254v-160h-254v-452h-191v452h-248z" />
<glyph unicode="&#x2022;" horiz-adv-x="929" d="M147 596q0 132 93 224.5t225 92.5q131 0 223 -92.5t92 -224.5t-92 -224.5t-223 -92.5q-132 0 -225 92.5t-93 224.5z" />
<glyph unicode="&#x2026;" horiz-adv-x="1851" d="M293 0v211h203v-211h-203zM823 0v211h205v-211h-205zM1356 0v211h203v-211h-203z" />
<glyph unicode="&#x202f;" horiz-adv-x="365" />
<glyph unicode="&#x2030;" horiz-adv-x="2279" d="M121 1167q0 125 90 214t219 89t220 -89t91 -214q0 -126 -91 -214.5t-220 -88.5t-219 88.5t-90 214.5zM152 0l1105 1446h193l-1106 -1446h-192zM279 1167q0 -65 43.5 -108t107.5 -43q65 0 108.5 43.5t43.5 107.5t-44 109t-108 45t-107.5 -45t-43.5 -109zM862 279 q0 125 91 214t221 89q128 0 219.5 -89.5t91.5 -213.5q0 -126 -91.5 -215t-219.5 -89q-130 0 -221 89t-91 215zM1022 279q0 -65 44 -108.5t108 -43.5q63 0 107 44t44 108q0 63 -44 108t-107 45q-64 0 -108 -45t-44 -108zM1589 279q0 125 90 214t219 89t220.5 -89t91.5 -214 q0 -126 -91.5 -215t-220.5 -89t-219 89t-90 215zM1747 279q0 -65 43.5 -108.5t107.5 -43.5t108 43.5t44 108.5q0 63 -44 108t-108 45t-107.5 -44.5t-43.5 -108.5z" />
<glyph unicode="&#x2039;" horiz-adv-x="751" d="M86 578l336 421h199l-336 -421l336 -420h-199z" />
<glyph unicode="&#x203a;" horiz-adv-x="751" d="M127 158l336 420l-336 421h199l336 -421l-336 -420h-199z" />
<glyph unicode="&#x2044;" horiz-adv-x="856" d="M53 0l588 1446h164l-588 -1446h-164z" />
<glyph unicode="&#x205f;" horiz-adv-x="456" />
<glyph unicode="&#x20ac;" horiz-adv-x="1230" d="M80 528v129h121q-4 37 -4 68l4 80h-121v131h143q64 236 254.5 385t440.5 149q48 0 97 -6t74 -12l25 -6l-49 -186q-72 22 -152 22q-170 0 -295.5 -93.5t-177.5 -252.5h568l-29 -131h-569q-4 -35 -4 -76l4 -72h542l-24 -129h-484q48 -163 177 -261.5t299 -98.5q47 0 94.5 7 t71.5 15l24 7l41 -187q-100 -35 -233 -35q-259 0 -448.5 152.5t-248.5 400.5h-141z" />
<glyph unicode="&#x2122;" horiz-adv-x="2013" d="M80 1229v125q0 54 19.5 73t76.5 19h586q56 0 76 -19t20 -73v-125h-135v61q0 19 -18 19h-158v-764h-156v764h-155q-19 0 -19 -19v-61h-137zM866 545v137h47q20 0 23 18l59 746h142l213 -471q7 -16 14 -37.5t10 -35.5l4 -13h4q13 49 27 86l213 471h143l60 -746 q0 -18 20 -18h49v-137h-120q-56 0 -76.5 18.5t-24.5 73.5l-35 446l2 62h-4l-194 -434h-125l-195 434h-4l2 -62l-35 -446q-4 -55 -24 -73.5t-76 -18.5h-119z" />
<glyph unicode="&#x2212;" d="M98 504v160h1059v-160h-1059z" />
<glyph unicode="&#x221e;" horiz-adv-x="1040" d="M147 715q0 155 109.5 262.5t263.5 107.5q156 0 264.5 -107.5t108.5 -262.5q0 -154 -109 -263.5t-264 -109.5q-154 0 -263.5 109.5t-109.5 263.5z" />
<glyph unicode="&#x2248;" d="M117 391q60 63 141 106.5t168 43.5q65 0 124 -22.5t96.5 -49.5t87 -49.5t97.5 -22.5q59 0 120 32.5t106 80.5l84 -121q-60 -62 -141.5 -104.5t-168.5 -42.5q-65 0 -124 22.5t-96.5 49t-87 49t-97.5 22.5q-60 0 -119.5 -32.5t-105.5 -80.5zM117 778q60 63 141 106.5 t168 43.5q65 0 124 -22.5t96.5 -49.5t87 -49.5t97.5 -22.5q59 0 120 32.5t106 80.5l84 -121q-60 -62 -141.5 -104.5t-168.5 -42.5q-65 0 -124 22.5t-96.5 49t-87 49t-97.5 22.5q-60 0 -119 -33t-106 -82z" />
<glyph unicode="&#x2260;" d="M139 309v160h332l164 227h-496v160h602l168 236l105 -72l-119 -164h221v-160h-328l-161 -227h489v-160h-598l-162 -229l-106 70l115 159h-226z" />
<glyph unicode="&#x2264;" d="M137 516v135l955 426v-182l-734 -309v-4l734 -310v-182zM139 -195h953v-159h-953v159z" />
<glyph unicode="&#x2265;" d="M164 90v182l733 310v4l-733 309v182l956 -426v-135zM164 -195h952v-159h-952v159z" />
<glyph unicode="&#xe000;" horiz-adv-x="1034" d="M0 0v1034h1034v-1034h-1034z" />
<glyph horiz-adv-x="1261" d="M31 1135v190q0 67 25.5 94t93.5 27h1056v-176h-442v-1270h-205v1270h-297q-25 0 -35 -11t-10 -34v-90h-186z" />
<glyph horiz-adv-x="1261" d="M55 1270v176h1057q68 0 93.5 -27t25.5 -94v-190h-187v90q0 23 -10 34t-35 11h-294v-1270h-205v1270h-445z" />
<glyph horiz-adv-x="1261" d="M61 1270v176h1139v-176h-467v-1270h-205v1270h-467z" />
<glyph horiz-adv-x="686" d="M252 -410q39 98 39 168q0 56 -23 121h162q12 -56 12 -100q0 -85 -49 -189h-141z" />
<glyph horiz-adv-x="2314" d="M86 262v569l258 146v309l543 291l274 -145l271 145l542 -291v-309l254 -146v-569l-254 -147v-312l-542 -288l-271 145l-274 -145l-543 288v312zM193 291l233 -131v-285l487 -258l248 135l242 -135l487 258v285l234 131v510l-234 135v278l-487 259l-242 -132l-248 132 l-487 -259v-278l-233 -135v-510zM293 315v461l203 119v252l440 233l225 -120l219 120l439 -233v-252l204 -119v-461l-204 -122v-248l-439 -234l-219 119l-225 -119l-440 234v248zM778 897h119v-897h162v418h422v141h-422v338h309q29 0 39 -12t10 -41v-68h150v152 q0 58 -24.5 83t-86.5 25h-678v-139z" />
<glyph horiz-adv-x="1181" d="M80 725q0 129 16 237.5t53 204t95 161.5t146.5 104t201.5 38t201 -38t145.5 -104t94.5 -161.5t53 -204t16 -237.5q0 -130 -16 -239t-53 -205t-94.5 -162.5t-145.5 -105t-201 -38.5t-201.5 38.5t-146.5 105t-95 162.5t-53 205t-16 239zM287 725q0 -99 8.5 -180t30.5 -154 t56 -122t87 -78t123 -29q86 0 146.5 42.5t94 122t48 176.5t14.5 222q0 98 -8.5 178.5t-30 153t-55.5 121.5t-87 77.5t-122 28.5q-70 0 -123 -28.5t-87 -77.5t-56 -121.5t-30.5 -153t-8.5 -178.5z" />
<glyph horiz-adv-x="1169" d="M184 1110l346 336h187v-1270h315v-176h-837v176h317v934l2 90h-4q-17 -33 -68 -84l-135 -133z" />
<glyph horiz-adv-x="1169" d="M84 166q0 85 25 157.5t67.5 124.5t98 97t116.5 81.5t121.5 70.5t116 70.5t98 76.5t67.5 93.5t25 115.5q0 101 -69 165t-185 64q-95 0 -159 -41t-64 -96v-64h-188v123q0 54 27.5 99.5t71.5 75.5t100 51t112 30.5t108 9.5q199 0 327 -115t128 -300q0 -101 -40.5 -185 t-105 -141.5t-142.5 -107t-156.5 -93t-143 -87.5t-105 -101.5t-40.5 -124.5q0 -21 12 -30t39 -9h514q45 0 45 45v92h189v-182q0 -69 -31 -100t-100 -31h-742q-82 0 -109.5 37t-27.5 129z" />
<glyph horiz-adv-x="1169" d="M82 178l111 154q6 -7 17 -18t47.5 -39t76.5 -50t101.5 -39.5t123.5 -17.5q119 0 203 74.5t84 189.5q0 118 -90 188t-221 70h-103l-43 109l301 379q19 27 40 50.5t32 33.5l12 10v4q-43 -6 -123 -6h-278q-45 0 -45 -45v-92h-189v182q0 70 28.5 100.5t96.5 30.5h762v-129 l-381 -459q59 -6 115 -24.5t110.5 -53.5t94.5 -82t65 -115t25 -149q0 -91 -35.5 -174t-99 -146.5t-157.5 -101t-204 -37.5q-84 0 -164.5 21t-134.5 50.5t-96 59.5t-62 51z" />
<glyph horiz-adv-x="1169" d="M29 383v131l651 932h233v-887h226v-176h-226v-383h-204v383h-680zM250 553q60 6 123 6h338v498q0 29 2 66t4 59l2 22h-4q-37 -70 -74 -121l-315 -434q-16 -23 -35 -46t-30 -35l-11 -11v-4z" />
<glyph horiz-adv-x="1169" d="M90 178l111 150q5 -7 14 -17.5t41 -38t68.5 -48.5t94.5 -38.5t120 -17.5q135 0 223 83t88 206q0 132 -99.5 213.5t-244.5 81.5q-71 0 -140 -18.5t-102 -37.5l-33 -18l-84 39l58 598q6 71 35 101t96 30h504q69 0 100 -31t31 -100v-182h-187v92q0 45 -45 45h-303 q-21 0 -31.5 -10.5t-13.5 -34.5l-29 -264l-10 -76h4q9 5 25 12t65 19t97 12q229 0 372.5 -136.5t143.5 -338.5q0 -95 -37.5 -182t-104 -152.5t-165 -104.5t-213.5 -39q-61 0 -119 11t-101.5 29t-81.5 39.5t-64.5 43.5t-45.5 40t-28 29z" />
<glyph horiz-adv-x="1169" d="M82 641q0 116 24 231t76.5 223.5t127 191.5t184 133t239.5 50q76 0 146.5 -15t102.5 -29l32 -15l-66 -174q-10 5 -28.5 13t-73 21t-105.5 13q-95 0 -174 -42t-131 -113.5t-84.5 -158t-44.5 -182.5h4q43 65 133 103.5t187 38.5q202 0 329 -135t127 -336 q0 -213 -130.5 -348.5t-333.5 -135.5q-114 0 -213.5 48t-172 133.5t-114 211t-41.5 273.5zM297 555q0 -69 25 -139t67.5 -126.5t103.5 -92t128 -35.5q123 0 194.5 83.5t71.5 213.5q0 133 -80 216t-217 83q-120 0 -206.5 -62t-86.5 -141z" />
<glyph horiz-adv-x="1169" d="M90 1133v182q0 70 28.5 100.5t96.5 30.5h879v-139l-701 -1307h-227l614 1139q20 36 41 69.5t32 48.5l11 15v4q-32 -6 -104 -6h-436q-45 0 -45 -45v-92h-189z" />
<glyph horiz-adv-x="1169" d="M78 414q0 49 13 95.5t34 82t46 67.5t50.5 54.5t46.5 38.5t34 24l13 8v4q-7 4 -19 11.5t-43 34.5t-54.5 58.5t-42.5 83t-19 107.5q0 76 30 145.5t85.5 123.5t142.5 86t193 32q204 0 328 -110t124 -281q0 -60 -18 -117t-43.5 -96.5t-51 -70t-43.5 -45.5l-18 -15v-4 q104 -61 159.5 -140.5t55.5 -191.5q0 -173 -141.5 -298.5t-357.5 -125.5q-137 0 -251 53t-183.5 154.5t-69.5 231.5zM285 424q0 -118 87 -190t210 -72q117 0 204.5 69.5t87.5 174.5q0 46 -17.5 82t-54.5 64.5t-74.5 47.5t-96.5 43q-127 53 -150 53q-20 0 -52.5 -21.5 t-64.5 -56t-55.5 -87.5t-23.5 -107zM338 1079q0 -37 13 -68t32 -52t53.5 -42t63 -34t75.5 -31q85 -35 113 -35q42 0 98 80.5t56 169.5q0 98 -71 157.5t-183 59.5q-115 0 -182.5 -58t-67.5 -147z" />
<glyph horiz-adv-x="1169" d="M82 987q0 213 131 348t334 135q153 0 275.5 -81.5t193.5 -234t71 -349.5q0 -96 -17.5 -192.5t-51.5 -190t-88.5 -174t-124.5 -142t-165 -96.5t-204 -35q-76 0 -146 15t-102 30l-32 15l65 176q10 -5 28.5 -13.5t73 -22t105.5 -13.5q95 0 174 42t131 114t84.5 158.5 t44.5 182.5h-4q-43 -66 -132 -103.5t-187 -37.5q-203 0 -330 134t-127 335zM283 987q0 -132 80 -215.5t217 -83.5q119 0 205.5 62t86.5 141q0 94 -41.5 184t-117.5 149.5t-164 59.5q-123 0 -194.5 -83.5t-71.5 -213.5z" />
<glyph horiz-adv-x="2342" d="M31 1133v190q0 69 27 96t96 27h1149q69 0 100 -30.5t31 -96.5v-404l-4 -86h4q7 20 23.5 45.5t49.5 59.5t74.5 61.5t104.5 46.5t133 19q182 0 269 -98.5t87 -298.5v-449q0 -45 45 -45h82v-170h-195q-69 0 -100 31t-31 100v487q0 60 -7.5 103t-27.5 81t-60 57.5t-101 19.5 q-154 0 -250 -113t-96 -281v-485h-199v1225q0 45 -45 45h-420v-1270h-205v1270h-307q-45 0 -45 -45v-92h-182z" />
<glyph horiz-adv-x="1280" d="M31 1133v190q0 69 27 96t96 27h1095v-176h-483v-1270h-205v1270h-303q-45 0 -45 -45v-92h-182z" />
<glyph horiz-adv-x="1280" d="M31 1133v190q0 69 27 96t96 27h1095v-176h-483v-1270h-49l-21 -102q64 -8 105 -47t41 -103q0 -88 -60.5 -130t-148.5 -42q-28 0 -56.5 3.5t-42.5 6.5l-14 4v119q41 -14 88 -14q41 0 69 15t28 48q0 31 -30 47.5t-79 16.5l-37 -2l47 180h-45v1270h-303q-45 0 -45 -45v-92 h-182z" />
<glyph horiz-adv-x="1280" d="M31 1133v190q0 69 27 96t96 27h1095v-176h-483v-1270h-205v1270h-303q-45 0 -45 -45v-92h-182zM395 1806h162l107 -166h4l108 166h162l-180 -260h-183z" />
<glyph horiz-adv-x="1280" d="M31 1133v190q0 69 27 96t96 27h1095v-176h-483v-479h319v-156h-319v-635h-205v635h-307v156h307v479h-303q-45 0 -45 -45v-92h-182z" />
<glyph horiz-adv-x="1280" d="M31 1133v190q0 69 27 96t96 27h1095v-176h-483v-1270h-205v1270h-303q-45 0 -45 -45v-92h-182zM559 -410q39 98 39 168q0 56 -23 121h162q13 -60 13 -100q0 -83 -50 -189h-141z" />
<glyph horiz-adv-x="882" d="M143 625v176h598v-176h-598z" />
<glyph horiz-adv-x="675" d="M170 735q0 477 231 832h174q-225 -376 -225 -817q0 -472 236 -883h-176q-115 180 -177.5 405.5t-62.5 462.5z" />
<glyph horiz-adv-x="675" d="M90 -133q236 411 236 883q0 439 -226 817h174q232 -357 232 -832q0 -237 -62.5 -462.5t-177.5 -405.5h-176z" />
<glyph horiz-adv-x="669" d="M199 -2v1438q0 69 31 100t100 31h207v-150h-119q-45 0 -45 -45v-1309q0 -45 45 -45h119v-151h-207q-69 0 -100 31t-31 100z" />
<glyph horiz-adv-x="669" d="M133 18h119q45 0 45 45v1309q0 45 -45 45h-119v150h207q70 0 101.5 -31t31.5 -100v-1438q0 -69 -31.5 -100t-101.5 -31h-207v151z" />
<glyph horiz-adv-x="694" d="M59 639v176q7 1 19 3t42 16t52.5 36t41.5 67t19 105v172q0 92 26 161t62 105t85.5 58t85.5 27.5t73 5.5l47 -2v-152h-28q-20 0 -38.5 -3t-45 -16t-45.5 -35t-33 -63.5t-14 -97.5v-211q0 -57 -17 -104.5t-41.5 -75t-49 -47t-41.5 -26.5l-17 -7v-4q7 -2 18 -6.5t39.5 -24.5 t50.5 -46t40 -75t18 -108v-236q0 -56 14 -97.5t33 -63.5t45.5 -35t45 -16t38.5 -3h28v-151q-18 -4 -47 -4q-37 0 -73 5.5t-85.5 27t-85.5 58t-62 105.5t-26 162v197q0 59 -18 103.5t-43.5 66t-51 35t-43.5 15.5z" />
<glyph horiz-adv-x="694" d="M82 16h29q20 0 38.5 3t45 16t45.5 35t33 63.5t14 97.5v236q0 59 17 107.5t41.5 75.5t49 45.5t41.5 24.5l17 7v4q-7 2 -18 7t-39.5 26t-50.5 47.5t-40 74.5t-18 105v211q0 56 -14 97.5t-33 63.5t-45.5 35t-45 16t-38.5 3h-29v152q18 2 47 2q37 0 73 -5.5t85.5 -27.5 t85.5 -58t62 -105t26 -161v-172q0 -60 18 -105t43.5 -67t51 -36t43.5 -16l18 -3v-176q-7 -1 -19 -3t-42 -15.5t-52.5 -35t-41.5 -66t-19 -103.5v-197q0 -93 -26 -162t-62 -105.5t-85.5 -58t-85.5 -27t-73 -5.5l-47 4v151z" />
<glyph horiz-adv-x="1599" d="M82 721q0 208 99 382t270.5 275t377.5 101q115 0 206.5 -23t152 -61.5t100.5 -92.5t57 -114t17 -127v-580h147v-149h-559q-93 0 -173.5 31.5t-135 85t-85 123.5t-30.5 147q0 76 30.5 146t84.5 123t134.5 84.5t174.5 31.5h221q-3 92 -90.5 151.5t-240.5 59.5 q-155 0 -284 -82t-202 -218.5t-73 -293.5q0 -121 42.5 -229t117 -187.5t184 -126.5t237.5 -47v-162q-169 0 -315 59t-247.5 160t-159.5 239.5t-58 293.5zM727 723q0 -101 67.5 -171.5t170.5 -70.5h206v486h-202q-105 0 -173.5 -71.5t-68.5 -172.5z" />
<glyph horiz-adv-x="1161" d="M86 700l336 422h199l-336 -422l336 -419h-199zM498 700l336 422h198l-336 -422l336 -419h-198z" />
<glyph horiz-adv-x="1161" d="M127 281l336 419l-336 422h199l336 -422l-336 -419h-199zM541 281l336 419l-336 422h198l336 -422l-336 -419h-198z" />
<glyph horiz-adv-x="751" d="M86 700l336 422h199l-336 -422l336 -419h-199z" />
<glyph horiz-adv-x="751" d="M127 281l336 419l-336 422h199l336 -422l-336 -419h-199z" />
<glyph horiz-adv-x="1335" d="M129 627v159h1077v-159h-1077z" />
<glyph horiz-adv-x="1744" d="M129 627v159h1487v-159h-1487z" />
<glyph horiz-adv-x="491" d="M143 602v211h203v-211h-203z" />
<glyph horiz-adv-x="927" d="M66 348q0 69 20 127.5t52 100.5t70.5 79.5t77 72t70.5 69t52 78.5t20 94v80h193v-93q0 -63 -19 -118t-49.5 -95t-67.5 -76.5t-74.5 -69.5t-68 -66.5t-49.5 -76t-19 -89.5q0 -87 66.5 -146t167.5 -59q57 0 115.5 22t88.5 44l29 22l109 -142q-5 -5 -15.5 -14t-45.5 -31.5 t-73.5 -40t-99 -31.5t-122.5 -14q-116 0 -213 45t-156 131.5t-59 196.5zM424 1247v199h203v-199h-203z" />
<glyph horiz-adv-x="643" d="M219 0l14 1049h179l12 -1049h-205zM219 1247v199h203v-199h-203z" />
<glyph horiz-adv-x="929" d="M147 723q0 132 93 224.5t225 92.5q131 0 223 -92.5t92 -224.5q0 -131 -92.5 -224t-222.5 -93q-132 0 -225 93t-93 224z" />
</font>
</defs>
</svg>
